G75*
G70*
%OFA0B0*%
%FSLAX24Y24*%
%IPPOS*%
%LPD*%
%AMOC8*
5,1,8,0,0,1.08239X$1,22.5*
%
%ADD10C,0.0000*%
%ADD11C,0.0010*%
%ADD12C,0.0030*%
%ADD13C,0.0080*%
D10*
X000300Y002393D02*
X000300Y004143D01*
X004050Y004143D01*
X004300Y004143D01*
X004300Y007643D01*
X002050Y007643D01*
X001300Y007643D01*
X001300Y008643D01*
X000300Y008643D01*
X000300Y010389D01*
X000300Y010393D01*
X000300Y010389D02*
X026678Y010389D01*
X026678Y002393D01*
X000300Y002393D01*
D11*
X004395Y005339D02*
X004420Y005314D01*
X004395Y005339D02*
X004395Y005389D01*
X004420Y005414D01*
X004445Y005414D01*
X004470Y005389D01*
X004470Y005339D01*
X004495Y005314D01*
X004520Y005314D01*
X004545Y005339D01*
X004545Y005389D01*
X004520Y005414D01*
X004545Y005511D02*
X004545Y005561D01*
X004545Y005536D02*
X004420Y005536D01*
X004395Y005511D01*
X004395Y005486D01*
X004420Y005461D01*
X004395Y005608D02*
X004495Y005709D01*
X004520Y005709D01*
X004545Y005684D01*
X004545Y005633D01*
X004520Y005608D01*
X004395Y005608D02*
X004395Y005709D01*
X006555Y005686D02*
X006555Y005585D01*
X006555Y005636D02*
X006705Y005636D01*
X006655Y005585D01*
X006705Y005538D02*
X006705Y005488D01*
X006705Y005513D02*
X006580Y005513D01*
X006555Y005488D01*
X006555Y005463D01*
X006580Y005438D01*
X006580Y005391D02*
X006555Y005366D01*
X006555Y005316D01*
X006580Y005291D01*
X006630Y005316D02*
X006630Y005366D01*
X006605Y005391D01*
X006580Y005391D01*
X006630Y005316D02*
X006655Y005291D01*
X006680Y005291D01*
X006705Y005316D01*
X006705Y005366D01*
X006680Y005391D01*
X006415Y007398D02*
X006415Y007548D01*
X006340Y007548D01*
X006315Y007523D01*
X006315Y007473D01*
X006340Y007448D01*
X006415Y007448D01*
X006365Y007448D02*
X006315Y007398D01*
X006268Y007398D02*
X006168Y007498D01*
X006168Y007523D01*
X006193Y007548D01*
X006243Y007548D01*
X006268Y007523D01*
X006268Y007398D02*
X006168Y007398D01*
X005415Y007398D02*
X005415Y007548D01*
X005340Y007548D01*
X005315Y007523D01*
X005315Y007473D01*
X005340Y007448D01*
X005415Y007448D01*
X005365Y007448D02*
X005315Y007398D01*
X005268Y007398D02*
X005168Y007398D01*
X005218Y007398D02*
X005218Y007548D01*
X005268Y007498D01*
X017418Y007273D02*
X017418Y007248D01*
X017443Y007223D01*
X017418Y007198D01*
X017418Y007173D01*
X017443Y007148D01*
X017493Y007148D01*
X017518Y007173D01*
X017565Y007148D02*
X017615Y007198D01*
X017590Y007198D02*
X017665Y007198D01*
X017665Y007148D02*
X017665Y007298D01*
X017590Y007298D01*
X017565Y007273D01*
X017565Y007223D01*
X017590Y007198D01*
X017518Y007273D02*
X017493Y007298D01*
X017443Y007298D01*
X017418Y007273D01*
X017443Y007223D02*
X017468Y007223D01*
D12*
X016841Y006998D02*
X018259Y006998D01*
X018259Y006604D01*
X018259Y006328D01*
X018259Y006289D01*
X016841Y006289D01*
X016841Y006328D01*
X016841Y006998D01*
X006404Y007352D02*
X006404Y005935D01*
X006365Y005935D01*
X005696Y005935D01*
X005696Y007352D01*
X006089Y007352D01*
X006365Y007352D01*
X006404Y007352D01*
X005404Y007352D02*
X005404Y005935D01*
X005365Y005935D01*
X004696Y005935D01*
X004696Y007352D01*
X005089Y007352D01*
X005365Y007352D01*
X005404Y007352D01*
D13*
X005444Y005708D02*
X005444Y005078D01*
X005443Y005078D02*
X005438Y005062D01*
X005430Y005046D01*
X005420Y005032D01*
X005408Y005020D01*
X005393Y005010D01*
X005377Y005003D01*
X005360Y004999D01*
X005343Y004998D01*
X005325Y005000D01*
X004775Y005000D02*
X004755Y004998D01*
X004736Y005000D01*
X004717Y005006D01*
X004700Y005015D01*
X004684Y005027D01*
X004672Y005042D01*
X004663Y005060D01*
X004657Y005078D01*
X004656Y005078D02*
X004656Y005708D01*
X004657Y005709D02*
X004663Y005727D01*
X004672Y005745D01*
X004684Y005760D01*
X004700Y005772D01*
X004717Y005781D01*
X004736Y005787D01*
X004755Y005789D01*
X004775Y005787D01*
X005325Y005787D02*
X005343Y005789D01*
X005360Y005788D01*
X005377Y005784D01*
X005393Y005777D01*
X005408Y005767D01*
X005420Y005755D01*
X005430Y005741D01*
X005438Y005725D01*
X005443Y005709D01*
X005656Y005708D02*
X005656Y005078D01*
X005657Y005078D02*
X005663Y005060D01*
X005672Y005042D01*
X005684Y005027D01*
X005700Y005015D01*
X005717Y005006D01*
X005736Y005000D01*
X005755Y004998D01*
X005775Y005000D01*
X006325Y005000D02*
X006343Y004998D01*
X006360Y004999D01*
X006377Y005003D01*
X006393Y005010D01*
X006408Y005020D01*
X006420Y005032D01*
X006430Y005046D01*
X006438Y005062D01*
X006443Y005078D01*
X006444Y005078D02*
X006444Y005708D01*
X006443Y005709D02*
X006438Y005725D01*
X006430Y005741D01*
X006420Y005755D01*
X006408Y005767D01*
X006393Y005777D01*
X006377Y005784D01*
X006360Y005788D01*
X006343Y005789D01*
X006325Y005787D01*
X005775Y005787D02*
X005755Y005789D01*
X005736Y005787D01*
X005717Y005781D01*
X005700Y005772D01*
X005684Y005760D01*
X005672Y005745D01*
X005663Y005727D01*
X005657Y005709D01*
M02*
