G75*
G70*
%OFA0B0*%
%FSLAX24Y24*%
%IPPOS*%
%LPD*%
%AMOC8*
5,1,8,0,0,1.08239X$1,22.5*
%
%ADD10C,0.0000*%
%ADD11C,0.0030*%
%ADD12C,0.0020*%
%ADD13C,0.0080*%
%ADD14C,0.0010*%
D10*
X000300Y002893D02*
X000300Y004643D01*
X004050Y004643D01*
X004300Y004643D01*
X004300Y008143D01*
X002050Y008143D01*
X001300Y008143D01*
X001300Y009143D01*
X000300Y009143D01*
X000300Y010889D01*
X000300Y010893D01*
X000300Y010889D02*
X026670Y010889D01*
X026670Y002893D01*
X000300Y002893D01*
D11*
X004696Y006435D02*
X004696Y007852D01*
X005089Y007852D01*
X005365Y007852D01*
X005404Y007852D01*
X005404Y006435D01*
X005365Y006435D01*
X004696Y006435D01*
X005696Y006435D02*
X005696Y007852D01*
X006089Y007852D01*
X006365Y007852D01*
X006404Y007852D01*
X006404Y006435D01*
X006365Y006435D01*
X005696Y006435D01*
X017696Y007185D02*
X017696Y008602D01*
X018089Y008602D01*
X018365Y008602D01*
X018404Y008602D01*
X018404Y007185D01*
X018365Y007185D01*
X017696Y007185D01*
D12*
X006232Y007913D02*
X006232Y008133D01*
X006122Y008133D01*
X006085Y008097D01*
X006085Y008023D01*
X006122Y007987D01*
X006232Y007987D01*
X006159Y007987D02*
X006085Y007913D01*
X006011Y007913D02*
X005864Y008060D01*
X005864Y008097D01*
X005901Y008133D01*
X005974Y008133D01*
X006011Y008097D01*
X006011Y007913D02*
X005864Y007913D01*
X005232Y007913D02*
X005232Y008133D01*
X005122Y008133D01*
X005085Y008097D01*
X005085Y008023D01*
X005122Y007987D01*
X005232Y007987D01*
X005159Y007987D02*
X005085Y007913D01*
X005011Y007913D02*
X004864Y007913D01*
X004938Y007913D02*
X004938Y008133D01*
X005011Y008060D01*
D13*
X004656Y006208D02*
X004656Y005578D01*
X004657Y005578D02*
X004663Y005560D01*
X004672Y005542D01*
X004684Y005527D01*
X004700Y005515D01*
X004717Y005506D01*
X004736Y005500D01*
X004755Y005498D01*
X004775Y005500D01*
X005325Y005500D02*
X005343Y005498D01*
X005360Y005499D01*
X005377Y005503D01*
X005393Y005510D01*
X005408Y005520D01*
X005420Y005532D01*
X005430Y005546D01*
X005438Y005562D01*
X005443Y005578D01*
X005444Y005578D02*
X005444Y006208D01*
X005443Y006209D02*
X005438Y006225D01*
X005430Y006241D01*
X005420Y006255D01*
X005408Y006267D01*
X005393Y006277D01*
X005377Y006284D01*
X005360Y006288D01*
X005343Y006289D01*
X005325Y006287D01*
X005656Y006208D02*
X005656Y005578D01*
X005657Y005578D02*
X005663Y005560D01*
X005672Y005542D01*
X005684Y005527D01*
X005700Y005515D01*
X005717Y005506D01*
X005736Y005500D01*
X005755Y005498D01*
X005775Y005500D01*
X006325Y005500D02*
X006343Y005498D01*
X006360Y005499D01*
X006377Y005503D01*
X006393Y005510D01*
X006408Y005520D01*
X006420Y005532D01*
X006430Y005546D01*
X006438Y005562D01*
X006443Y005578D01*
X006444Y005578D02*
X006444Y006208D01*
X006443Y006209D02*
X006438Y006225D01*
X006430Y006241D01*
X006420Y006255D01*
X006408Y006267D01*
X006393Y006277D01*
X006377Y006284D01*
X006360Y006288D01*
X006343Y006289D01*
X006325Y006287D01*
X005775Y006287D02*
X005755Y006289D01*
X005736Y006287D01*
X005717Y006281D01*
X005700Y006272D01*
X005684Y006260D01*
X005672Y006245D01*
X005663Y006227D01*
X005657Y006209D01*
X004775Y006287D02*
X004755Y006289D01*
X004736Y006287D01*
X004717Y006281D01*
X004700Y006272D01*
X004684Y006260D01*
X004672Y006245D01*
X004663Y006227D01*
X004657Y006209D01*
D14*
X004545Y006184D02*
X004545Y006133D01*
X004520Y006108D01*
X004545Y006061D02*
X004545Y006011D01*
X004545Y006036D02*
X004420Y006036D01*
X004395Y006011D01*
X004395Y005986D01*
X004420Y005961D01*
X004420Y005914D02*
X004395Y005889D01*
X004395Y005839D01*
X004420Y005814D01*
X004470Y005839D02*
X004470Y005889D01*
X004445Y005914D01*
X004420Y005914D01*
X004470Y005839D02*
X004495Y005814D01*
X004520Y005814D01*
X004545Y005839D01*
X004545Y005889D01*
X004520Y005914D01*
X004395Y006108D02*
X004495Y006209D01*
X004520Y006209D01*
X004545Y006184D01*
X004395Y006209D02*
X004395Y006108D01*
X006555Y006085D02*
X006555Y006186D01*
X006555Y006136D02*
X006705Y006136D01*
X006655Y006085D01*
X006705Y006038D02*
X006705Y005988D01*
X006705Y006013D02*
X006580Y006013D01*
X006555Y005988D01*
X006555Y005963D01*
X006580Y005938D01*
X006580Y005891D02*
X006555Y005866D01*
X006555Y005816D01*
X006580Y005791D01*
X006630Y005816D02*
X006630Y005866D01*
X006605Y005891D01*
X006580Y005891D01*
X006630Y005816D02*
X006655Y005791D01*
X006680Y005791D01*
X006705Y005816D01*
X006705Y005866D01*
X006680Y005891D01*
X017395Y007724D02*
X017545Y007724D01*
X017545Y007799D01*
X017520Y007824D01*
X017470Y007824D01*
X017445Y007799D01*
X017445Y007724D01*
X017445Y007774D02*
X017395Y007824D01*
X017420Y007871D02*
X017395Y007896D01*
X017395Y007946D01*
X017420Y007971D01*
X017445Y007971D01*
X017470Y007946D01*
X017470Y007921D01*
X017470Y007946D02*
X017495Y007971D01*
X017520Y007971D01*
X017545Y007946D01*
X017545Y007896D01*
X017520Y007871D01*
M02*
