G75*
G70*
%OFA0B0*%
%FSLAX24Y24*%
%IPPOS*%
%LPD*%
%AMOC8*
5,1,8,0,0,1.08239X$1,22.5*
%
%ADD10C,0.0740*%
%ADD11R,0.0591X0.0512*%
%ADD12R,0.0500X0.0250*%
%ADD13C,0.0100*%
%ADD14OC8,0.0250*%
%ADD15OC8,0.0270*%
D10*
X001050Y003893D03*
X002050Y003893D03*
X003050Y003893D03*
X004050Y003893D03*
X005050Y003893D03*
X006050Y003893D03*
X007050Y003893D03*
X008050Y003893D03*
X009050Y003893D03*
X010050Y003893D03*
X011050Y003893D03*
X012050Y003893D03*
X013050Y003893D03*
X014050Y003893D03*
X015050Y003893D03*
X016050Y003893D03*
X017050Y003893D03*
X018050Y003893D03*
X019050Y003893D03*
X020050Y003893D03*
X021050Y003893D03*
X022050Y003893D03*
X023050Y003893D03*
X024050Y003893D03*
X014050Y004893D03*
X014050Y005893D03*
X014050Y006893D03*
X013050Y006893D03*
X012050Y006893D03*
X011050Y006893D03*
X010050Y006893D03*
X009050Y006893D03*
X008050Y006893D03*
X007050Y006893D03*
X007050Y007893D03*
X008050Y007893D03*
X009050Y007893D03*
X010050Y007893D03*
X011050Y007893D03*
X012050Y007893D03*
X013050Y007893D03*
X014050Y007893D03*
X014050Y008893D03*
X014050Y009893D03*
X015050Y009893D03*
X016050Y009893D03*
X017050Y009893D03*
X018050Y009893D03*
X019050Y009893D03*
X020050Y009893D03*
X021050Y009893D03*
X022050Y009893D03*
X023050Y009893D03*
X024050Y009893D03*
X013050Y009893D03*
X012050Y009893D03*
X011050Y009893D03*
X010050Y009893D03*
X009050Y009893D03*
X008050Y009893D03*
X007050Y009893D03*
X006050Y009893D03*
X005050Y009893D03*
X004050Y009893D03*
X003050Y009893D03*
X002050Y009893D03*
X001050Y009893D03*
X002050Y008893D03*
X003050Y008893D03*
X004050Y008893D03*
X005050Y008893D03*
X006050Y008893D03*
D11*
X006050Y007478D03*
X005050Y007478D03*
X005050Y006809D03*
X006050Y006809D03*
X018050Y007559D03*
X018050Y008228D03*
D12*
X006050Y006070D03*
X006050Y005716D03*
X005050Y005716D03*
X005050Y006070D03*
D13*
X008432Y003143D02*
X000550Y003143D01*
X000550Y003749D01*
X000568Y003694D01*
X000605Y003621D01*
X000653Y003555D01*
X000711Y003497D01*
X000777Y003449D01*
X000850Y003411D01*
X000928Y003386D01*
X001000Y003375D01*
X001000Y003843D01*
X001100Y003843D01*
X001100Y003375D01*
X001172Y003386D01*
X001250Y003411D01*
X001323Y003449D01*
X001389Y003497D01*
X001447Y003555D01*
X001495Y003621D01*
X001517Y003664D01*
X001558Y003565D01*
X001721Y003402D01*
X001935Y003313D01*
X002165Y003313D01*
X002379Y003402D01*
X002542Y003565D01*
X002550Y003585D01*
X002558Y003565D01*
X002721Y003402D01*
X002935Y003313D01*
X003165Y003313D01*
X003379Y003402D01*
X003542Y003565D01*
X003550Y003585D01*
X003558Y003565D01*
X003721Y003402D01*
X003935Y003313D01*
X004165Y003313D01*
X004379Y003402D01*
X004542Y003565D01*
X004550Y003585D01*
X004558Y003565D01*
X004721Y003402D01*
X004935Y003313D01*
X005165Y003313D01*
X005379Y003402D01*
X005542Y003565D01*
X005550Y003585D01*
X005558Y003565D01*
X005721Y003402D01*
X005935Y003313D01*
X006165Y003313D01*
X006379Y003402D01*
X006542Y003565D01*
X006550Y003585D01*
X006558Y003565D01*
X006721Y003402D01*
X006935Y003313D01*
X007165Y003313D01*
X007379Y003402D01*
X007542Y003565D01*
X007550Y003585D01*
X007558Y003565D01*
X007721Y003402D01*
X007935Y003313D01*
X008165Y003313D01*
X008290Y003365D01*
X008290Y003342D01*
X008330Y003246D01*
X008403Y003173D01*
X008432Y003143D01*
X008387Y003189D02*
X000550Y003189D01*
X000550Y003287D02*
X008312Y003287D01*
X008550Y003393D02*
X008550Y007393D01*
X009050Y007893D01*
X009550Y008202D02*
X009542Y008222D01*
X009379Y008385D01*
X009165Y008473D01*
X008935Y008473D01*
X008721Y008385D01*
X008558Y008222D01*
X008550Y008202D01*
X008542Y008222D01*
X008379Y008385D01*
X008165Y008473D01*
X007935Y008473D01*
X007721Y008385D01*
X007558Y008222D01*
X007550Y008202D01*
X007542Y008222D01*
X007379Y008385D01*
X007165Y008473D01*
X006935Y008473D01*
X006810Y008422D01*
X006810Y008786D01*
X006908Y008883D01*
X008852Y008883D01*
X008947Y008923D01*
X009197Y009173D01*
X009270Y009246D01*
X009310Y009342D01*
X009310Y009373D01*
X009379Y009402D01*
X009542Y009565D01*
X009550Y009585D01*
X009558Y009565D01*
X009721Y009402D01*
X009935Y009313D01*
X010165Y009313D01*
X010379Y009402D01*
X010542Y009565D01*
X010550Y009585D01*
X010558Y009565D01*
X010721Y009402D01*
X010935Y009313D01*
X011165Y009313D01*
X011379Y009402D01*
X011542Y009565D01*
X011550Y009585D01*
X011558Y009565D01*
X011721Y009402D01*
X011935Y009313D01*
X012165Y009313D01*
X012379Y009402D01*
X012542Y009565D01*
X012550Y009585D01*
X012558Y009565D01*
X012721Y009402D01*
X012935Y009313D01*
X013165Y009313D01*
X013290Y009365D01*
X013290Y009342D01*
X013330Y009246D01*
X013403Y009173D01*
X013498Y009133D01*
X013522Y009133D01*
X013470Y009009D01*
X013470Y008778D01*
X013558Y008565D01*
X013721Y008402D01*
X013741Y008393D01*
X013721Y008385D01*
X013558Y008222D01*
X013550Y008202D01*
X013542Y008222D01*
X013379Y008385D01*
X013165Y008473D01*
X012935Y008473D01*
X012721Y008385D01*
X012558Y008222D01*
X012550Y008202D01*
X012542Y008222D01*
X012379Y008385D01*
X012165Y008473D01*
X011935Y008473D01*
X011721Y008385D01*
X011558Y008222D01*
X011550Y008202D01*
X011542Y008222D01*
X011379Y008385D01*
X011165Y008473D01*
X010935Y008473D01*
X010721Y008385D01*
X010558Y008222D01*
X010550Y008202D01*
X010542Y008222D01*
X010379Y008385D01*
X010165Y008473D01*
X009935Y008473D01*
X009721Y008385D01*
X009558Y008222D01*
X009550Y008202D01*
X009546Y008212D02*
X009554Y008212D01*
X009647Y008311D02*
X009453Y008311D01*
X009320Y008409D02*
X009780Y008409D01*
X010320Y008409D02*
X010780Y008409D01*
X010647Y008311D02*
X010453Y008311D01*
X010546Y008212D02*
X010554Y008212D01*
X010050Y007893D02*
X009550Y007393D01*
X009550Y003643D01*
X009800Y003393D01*
X022550Y003393D01*
X023050Y003893D01*
X022609Y004272D02*
X022491Y004272D01*
X022542Y004222D02*
X022379Y004385D01*
X022165Y004473D01*
X021935Y004473D01*
X021721Y004385D01*
X021558Y004222D01*
X021550Y004202D01*
X021542Y004222D01*
X021379Y004385D01*
X021165Y004473D01*
X020935Y004473D01*
X020721Y004385D01*
X020558Y004222D01*
X020550Y004202D01*
X020542Y004222D01*
X020379Y004385D01*
X020310Y004413D01*
X020310Y007180D01*
X020385Y007255D01*
X020385Y007532D01*
X020274Y007643D01*
X020385Y007755D01*
X020385Y008032D01*
X020310Y008107D01*
X020310Y009373D01*
X020379Y009402D01*
X020542Y009565D01*
X020550Y009585D01*
X020558Y009565D01*
X020721Y009402D01*
X020935Y009313D01*
X021165Y009313D01*
X021379Y009402D01*
X021542Y009565D01*
X021550Y009585D01*
X021558Y009565D01*
X021721Y009402D01*
X021935Y009313D01*
X022165Y009313D01*
X022379Y009402D01*
X022542Y009565D01*
X022550Y009585D01*
X022558Y009565D01*
X022721Y009402D01*
X022935Y009313D01*
X023165Y009313D01*
X023379Y009402D01*
X023542Y009565D01*
X023550Y009585D01*
X023558Y009565D01*
X023721Y009402D01*
X023935Y009313D01*
X024165Y009313D01*
X024379Y009402D01*
X024542Y009565D01*
X024630Y009778D01*
X024630Y010009D01*
X024542Y010222D01*
X024379Y010385D01*
X024165Y010473D01*
X023935Y010473D01*
X023721Y010385D01*
X023558Y010222D01*
X023550Y010202D01*
X023542Y010222D01*
X023379Y010385D01*
X023165Y010473D01*
X022935Y010473D01*
X022721Y010385D01*
X022558Y010222D01*
X022550Y010202D01*
X022542Y010222D01*
X022379Y010385D01*
X022165Y010473D01*
X021935Y010473D01*
X021721Y010385D01*
X021558Y010222D01*
X021550Y010202D01*
X021542Y010222D01*
X021379Y010385D01*
X021165Y010473D01*
X020935Y010473D01*
X020721Y010385D01*
X020558Y010222D01*
X020550Y010202D01*
X020542Y010222D01*
X020379Y010385D01*
X020165Y010473D01*
X019935Y010473D01*
X019721Y010385D01*
X019558Y010222D01*
X019550Y010202D01*
X019542Y010222D01*
X019379Y010385D01*
X019165Y010473D01*
X018935Y010473D01*
X018866Y010445D01*
X018632Y010679D01*
X026300Y010679D01*
X026300Y003143D01*
X023668Y003143D01*
X023866Y003342D01*
X023935Y003313D01*
X024165Y003313D01*
X024379Y003402D01*
X024542Y003565D01*
X024630Y003778D01*
X024630Y004009D01*
X024542Y004222D01*
X024379Y004385D01*
X024165Y004473D01*
X023935Y004473D01*
X023721Y004385D01*
X023558Y004222D01*
X023550Y004202D01*
X023542Y004222D01*
X023379Y004385D01*
X023165Y004473D01*
X022935Y004473D01*
X022721Y004385D01*
X022558Y004222D01*
X022550Y004202D01*
X022542Y004222D01*
X022393Y004371D02*
X022707Y004371D01*
X022925Y004469D02*
X022175Y004469D01*
X021925Y004469D02*
X021175Y004469D01*
X021393Y004371D02*
X021707Y004371D01*
X021609Y004272D02*
X021491Y004272D01*
X020925Y004469D02*
X020310Y004469D01*
X020310Y004568D02*
X026300Y004568D01*
X026300Y004666D02*
X020310Y004666D01*
X020310Y004765D02*
X026300Y004765D01*
X026300Y004863D02*
X020310Y004863D01*
X020310Y004962D02*
X026300Y004962D01*
X026300Y005060D02*
X020310Y005060D01*
X020310Y005159D02*
X026300Y005159D01*
X026300Y005257D02*
X020310Y005257D01*
X020310Y005356D02*
X026300Y005356D01*
X026300Y005454D02*
X020310Y005454D01*
X020310Y005553D02*
X026300Y005553D01*
X026300Y005651D02*
X020310Y005651D01*
X020310Y005750D02*
X026300Y005750D01*
X026300Y005848D02*
X020310Y005848D01*
X020310Y005947D02*
X026300Y005947D01*
X026300Y006045D02*
X020310Y006045D01*
X020310Y006144D02*
X026300Y006144D01*
X026300Y006242D02*
X020310Y006242D01*
X020310Y006341D02*
X026300Y006341D01*
X026300Y006439D02*
X020310Y006439D01*
X020310Y006538D02*
X026300Y006538D01*
X026300Y006636D02*
X020310Y006636D01*
X020310Y006735D02*
X026300Y006735D01*
X026300Y006833D02*
X020310Y006833D01*
X020310Y006932D02*
X026300Y006932D01*
X026300Y007030D02*
X020310Y007030D01*
X020310Y007129D02*
X026300Y007129D01*
X026300Y007227D02*
X020358Y007227D01*
X020385Y007326D02*
X026300Y007326D01*
X026300Y007424D02*
X020385Y007424D01*
X020385Y007523D02*
X026300Y007523D01*
X026300Y007621D02*
X020296Y007621D01*
X020350Y007720D02*
X026300Y007720D01*
X026300Y007818D02*
X020385Y007818D01*
X020385Y007917D02*
X026300Y007917D01*
X026300Y008015D02*
X020385Y008015D01*
X020310Y008114D02*
X026300Y008114D01*
X026300Y008212D02*
X020310Y008212D01*
X020310Y008311D02*
X026300Y008311D01*
X026300Y008409D02*
X020310Y008409D01*
X020310Y008508D02*
X026300Y008508D01*
X026300Y008606D02*
X020310Y008606D01*
X020310Y008705D02*
X026300Y008705D01*
X026300Y008803D02*
X020310Y008803D01*
X020310Y008902D02*
X026300Y008902D01*
X026300Y009000D02*
X020310Y009000D01*
X020310Y009099D02*
X026300Y009099D01*
X026300Y009197D02*
X020310Y009197D01*
X020310Y009296D02*
X026300Y009296D01*
X026300Y009394D02*
X024361Y009394D01*
X024470Y009493D02*
X026300Y009493D01*
X026300Y009591D02*
X024553Y009591D01*
X024594Y009690D02*
X026300Y009690D01*
X026300Y009788D02*
X024630Y009788D01*
X024630Y009887D02*
X026300Y009887D01*
X026300Y009985D02*
X024630Y009985D01*
X024599Y010084D02*
X026300Y010084D01*
X026300Y010182D02*
X024558Y010182D01*
X024483Y010281D02*
X026300Y010281D01*
X026300Y010379D02*
X024384Y010379D01*
X023716Y010379D02*
X023384Y010379D01*
X023483Y010281D02*
X023617Y010281D01*
X022716Y010379D02*
X022384Y010379D01*
X022483Y010281D02*
X022617Y010281D01*
X021716Y010379D02*
X021384Y010379D01*
X021483Y010281D02*
X021617Y010281D01*
X020716Y010379D02*
X020384Y010379D01*
X020483Y010281D02*
X020617Y010281D01*
X020050Y009893D02*
X020050Y007893D01*
X019290Y007917D02*
X018555Y007917D01*
X018555Y008015D02*
X019290Y008015D01*
X019290Y008114D02*
X018555Y008114D01*
X018555Y008212D02*
X019290Y008212D01*
X019290Y008311D02*
X018555Y008311D01*
X018555Y008409D02*
X019290Y008409D01*
X019290Y008508D02*
X018555Y008508D01*
X018555Y008571D02*
X018432Y008694D01*
X018324Y008694D01*
X018385Y008755D01*
X018385Y009032D01*
X018310Y009107D01*
X018310Y009373D01*
X018379Y009402D01*
X018542Y009565D01*
X018550Y009585D01*
X018558Y009565D01*
X018721Y009402D01*
X018935Y009313D01*
X019165Y009313D01*
X019379Y009402D01*
X019542Y009565D01*
X019550Y009585D01*
X019558Y009565D01*
X019721Y009402D01*
X019790Y009373D01*
X019790Y009127D01*
X019689Y009228D01*
X019411Y009228D01*
X019215Y009032D01*
X019215Y008755D01*
X019290Y008680D01*
X019290Y007107D01*
X019215Y007032D01*
X019215Y006755D01*
X019411Y006558D01*
X019689Y006558D01*
X019790Y006660D01*
X019790Y004413D01*
X019721Y004385D01*
X019558Y004222D01*
X019550Y004202D01*
X019542Y004222D01*
X019379Y004385D01*
X019310Y004413D01*
X019310Y004680D01*
X019385Y004755D01*
X019385Y005032D01*
X019189Y005228D01*
X018911Y005228D01*
X018715Y005032D01*
X018715Y004755D01*
X018790Y004680D01*
X018790Y004413D01*
X018721Y004385D01*
X018558Y004222D01*
X018550Y004202D01*
X018542Y004222D01*
X018379Y004385D01*
X018165Y004473D01*
X017935Y004473D01*
X017721Y004385D01*
X017558Y004222D01*
X017550Y004202D01*
X017542Y004222D01*
X017379Y004385D01*
X017310Y004413D01*
X017310Y004660D01*
X017411Y004558D01*
X017689Y004558D01*
X017885Y004755D01*
X017885Y005032D01*
X017810Y005107D01*
X017810Y005660D01*
X017911Y005558D01*
X018189Y005558D01*
X018385Y005755D01*
X018385Y006032D01*
X018310Y006107D01*
X018310Y007093D01*
X018432Y007093D01*
X018555Y007216D01*
X018555Y008571D01*
X018520Y008606D02*
X019290Y008606D01*
X019265Y008705D02*
X018335Y008705D01*
X018385Y008803D02*
X019215Y008803D01*
X019215Y008902D02*
X018385Y008902D01*
X018385Y009000D02*
X019215Y009000D01*
X019282Y009099D02*
X018318Y009099D01*
X018310Y009197D02*
X019380Y009197D01*
X019720Y009197D02*
X019790Y009197D01*
X019790Y009296D02*
X018310Y009296D01*
X018361Y009394D02*
X018739Y009394D01*
X018630Y009493D02*
X018470Y009493D01*
X018050Y009893D02*
X018050Y008893D01*
X018050Y008228D01*
X017965Y008143D01*
X016550Y008143D01*
X016050Y008643D01*
X015796Y008409D02*
X015310Y008409D01*
X015310Y008311D02*
X015895Y008311D01*
X015907Y008298D02*
X016027Y008298D01*
X016330Y007996D01*
X016403Y007923D01*
X016498Y007883D01*
X017545Y007883D01*
X017545Y007216D01*
X017668Y007093D01*
X017790Y007093D01*
X017790Y006243D01*
X017770Y006291D01*
X017697Y006364D01*
X017447Y006614D01*
X017352Y006653D01*
X014511Y006653D01*
X014532Y006694D01*
X014557Y006772D01*
X014569Y006843D01*
X014100Y006843D01*
X014100Y006943D01*
X014569Y006943D01*
X014557Y007015D01*
X014532Y007093D01*
X014495Y007166D01*
X014447Y007232D01*
X014389Y007290D01*
X014323Y007338D01*
X014279Y007360D01*
X014379Y007402D01*
X014542Y007565D01*
X014630Y007778D01*
X014630Y008009D01*
X014542Y008222D01*
X014379Y008385D01*
X014359Y008393D01*
X014379Y008402D01*
X014542Y008565D01*
X014630Y008778D01*
X014630Y009009D01*
X014578Y009133D01*
X014602Y009133D01*
X014697Y009173D01*
X014770Y009246D01*
X014790Y009293D01*
X014790Y007092D01*
X014830Y006996D01*
X014903Y006923D01*
X014998Y006883D01*
X015586Y006883D01*
X015661Y006808D01*
X015939Y006808D01*
X016135Y007005D01*
X016135Y007282D01*
X015939Y007478D01*
X015661Y007478D01*
X015586Y007403D01*
X015310Y007403D01*
X015310Y009373D01*
X015379Y009402D01*
X015542Y009565D01*
X015583Y009664D01*
X015605Y009621D01*
X015653Y009555D01*
X015711Y009497D01*
X015777Y009449D01*
X015850Y009411D01*
X015928Y009386D01*
X016000Y009375D01*
X016000Y009843D01*
X016100Y009843D01*
X016100Y009375D01*
X016172Y009386D01*
X016250Y009411D01*
X016323Y009449D01*
X016389Y009497D01*
X016447Y009555D01*
X016495Y009621D01*
X016517Y009664D01*
X016558Y009565D01*
X016721Y009402D01*
X016935Y009313D01*
X017165Y009313D01*
X017379Y009402D01*
X017542Y009565D01*
X017550Y009585D01*
X017558Y009565D01*
X017721Y009402D01*
X017790Y009373D01*
X017790Y009107D01*
X017715Y009032D01*
X017715Y008755D01*
X017776Y008694D01*
X017668Y008694D01*
X017545Y008571D01*
X017545Y008403D01*
X016658Y008403D01*
X016395Y008666D01*
X016395Y008786D01*
X016193Y008988D01*
X015907Y008988D01*
X015705Y008786D01*
X015705Y008500D01*
X015907Y008298D01*
X016113Y008212D02*
X015310Y008212D01*
X015310Y008114D02*
X016212Y008114D01*
X016310Y008015D02*
X015310Y008015D01*
X015310Y007917D02*
X016417Y007917D01*
X015993Y007424D02*
X017545Y007424D01*
X017545Y007326D02*
X016091Y007326D01*
X016135Y007227D02*
X017545Y007227D01*
X017632Y007129D02*
X016135Y007129D01*
X016135Y007030D02*
X017790Y007030D01*
X017790Y006932D02*
X016062Y006932D01*
X015964Y006833D02*
X017790Y006833D01*
X017790Y006735D02*
X014545Y006735D01*
X014567Y006833D02*
X015636Y006833D01*
X014894Y006932D02*
X014100Y006932D01*
X014050Y006893D02*
X013550Y007393D01*
X014550Y007393D01*
X014500Y007523D02*
X014790Y007523D01*
X014790Y007621D02*
X014565Y007621D01*
X014606Y007720D02*
X014790Y007720D01*
X014790Y007818D02*
X014630Y007818D01*
X014630Y007917D02*
X014790Y007917D01*
X014790Y008015D02*
X014627Y008015D01*
X014586Y008114D02*
X014790Y008114D01*
X014790Y008212D02*
X014546Y008212D01*
X014453Y008311D02*
X014790Y008311D01*
X014790Y008409D02*
X014386Y008409D01*
X014485Y008508D02*
X014790Y008508D01*
X014790Y008606D02*
X014559Y008606D01*
X014600Y008705D02*
X014790Y008705D01*
X014790Y008803D02*
X014630Y008803D01*
X014630Y008902D02*
X014790Y008902D01*
X014790Y009000D02*
X014630Y009000D01*
X014593Y009099D02*
X014790Y009099D01*
X014790Y009197D02*
X014722Y009197D01*
X014550Y009393D02*
X013550Y009393D01*
X013309Y009296D02*
X009291Y009296D01*
X009222Y009197D02*
X013378Y009197D01*
X013507Y009099D02*
X009123Y009099D01*
X009025Y009000D02*
X013470Y009000D01*
X013470Y008902D02*
X008896Y008902D01*
X008800Y009143D02*
X009050Y009393D01*
X009050Y009893D01*
X009470Y009493D02*
X009630Y009493D01*
X009739Y009394D02*
X009361Y009394D01*
X008800Y009143D02*
X006800Y009143D01*
X006550Y008893D01*
X006550Y008393D01*
X006050Y007893D01*
X006050Y007478D01*
X005050Y007478D02*
X005050Y007893D01*
X005300Y008143D01*
X005550Y008393D01*
X005550Y009143D01*
X005800Y009393D01*
X007550Y009393D01*
X008050Y009893D01*
X006828Y008803D02*
X013470Y008803D01*
X013500Y008705D02*
X006810Y008705D01*
X006810Y008606D02*
X013541Y008606D01*
X013550Y008643D02*
X013330Y008863D01*
X013550Y008643D02*
X013550Y008393D01*
X014550Y008393D01*
X015310Y008508D02*
X015705Y008508D01*
X015705Y008606D02*
X015310Y008606D01*
X015310Y008705D02*
X015705Y008705D01*
X015722Y008803D02*
X015310Y008803D01*
X015310Y008902D02*
X015821Y008902D01*
X016279Y008902D02*
X017715Y008902D01*
X017715Y009000D02*
X015310Y009000D01*
X015310Y009099D02*
X017782Y009099D01*
X017790Y009197D02*
X015310Y009197D01*
X015310Y009296D02*
X017790Y009296D01*
X017739Y009394D02*
X017361Y009394D01*
X017470Y009493D02*
X017630Y009493D01*
X017050Y009893D02*
X016550Y010393D01*
X005800Y010393D01*
X005550Y010143D01*
X005550Y009643D01*
X005300Y009393D01*
X004800Y009393D01*
X004550Y009143D01*
X004550Y008643D01*
X004300Y008393D01*
X002550Y008393D01*
X002050Y008893D01*
X003550Y009393D02*
X004050Y008893D01*
X004684Y008409D02*
X004714Y008409D01*
X004721Y008402D02*
X004935Y008313D01*
X005102Y008313D01*
X005080Y008291D01*
X004830Y008041D01*
X004790Y007945D01*
X004790Y007944D01*
X004668Y007944D01*
X004545Y007821D01*
X004545Y006466D01*
X004659Y006351D01*
X004590Y006282D01*
X004590Y005504D01*
X004713Y005381D01*
X005290Y005381D01*
X005290Y005371D01*
X005205Y005286D01*
X005205Y005000D01*
X005407Y004798D01*
X005693Y004798D01*
X005895Y005000D01*
X005895Y005286D01*
X005810Y005371D01*
X005810Y005381D01*
X006387Y005381D01*
X006510Y005504D01*
X006510Y006282D01*
X006441Y006351D01*
X006555Y006466D01*
X006555Y006572D01*
X006558Y006565D01*
X006721Y006402D01*
X006935Y006313D01*
X007165Y006313D01*
X007379Y006402D01*
X007542Y006565D01*
X007583Y006664D01*
X007605Y006621D01*
X007653Y006555D01*
X007711Y006497D01*
X007777Y006449D01*
X007850Y006411D01*
X007928Y006386D01*
X008000Y006375D01*
X008000Y006843D01*
X008100Y006843D01*
X008100Y006375D01*
X008172Y006386D01*
X008250Y006411D01*
X008290Y006432D01*
X008290Y004422D01*
X008165Y004473D01*
X007935Y004473D01*
X007721Y004385D01*
X007558Y004222D01*
X007550Y004202D01*
X007542Y004222D01*
X007379Y004385D01*
X007165Y004473D01*
X006935Y004473D01*
X006721Y004385D01*
X006558Y004222D01*
X006550Y004202D01*
X006542Y004222D01*
X006379Y004385D01*
X006165Y004473D01*
X005935Y004473D01*
X005721Y004385D01*
X005558Y004222D01*
X005550Y004202D01*
X005542Y004222D01*
X005379Y004385D01*
X005165Y004473D01*
X004935Y004473D01*
X004721Y004385D01*
X004558Y004222D01*
X004550Y004202D01*
X004542Y004222D01*
X004379Y004385D01*
X004262Y004433D01*
X004387Y004433D01*
X004510Y004556D01*
X004510Y008230D01*
X004507Y008233D01*
X004520Y008246D01*
X004699Y008424D01*
X004721Y008402D01*
X004585Y008311D02*
X005100Y008311D01*
X005001Y008212D02*
X004510Y008212D01*
X004510Y008114D02*
X004903Y008114D01*
X004819Y008015D02*
X004510Y008015D01*
X004510Y007917D02*
X004641Y007917D01*
X004545Y007818D02*
X004510Y007818D01*
X004510Y007720D02*
X004545Y007720D01*
X004545Y007621D02*
X004510Y007621D01*
X004510Y007523D02*
X004545Y007523D01*
X004545Y007424D02*
X004510Y007424D01*
X004510Y007326D02*
X004545Y007326D01*
X004545Y007227D02*
X004510Y007227D01*
X004510Y007129D02*
X004545Y007129D01*
X004545Y007030D02*
X004510Y007030D01*
X004510Y006932D02*
X004545Y006932D01*
X004545Y006833D02*
X004510Y006833D01*
X004510Y006735D02*
X004545Y006735D01*
X004545Y006636D02*
X004510Y006636D01*
X004510Y006538D02*
X004545Y006538D01*
X004571Y006439D02*
X004510Y006439D01*
X004510Y006341D02*
X004648Y006341D01*
X004590Y006242D02*
X004510Y006242D01*
X004510Y006144D02*
X004590Y006144D01*
X004590Y006045D02*
X004510Y006045D01*
X004510Y005947D02*
X004590Y005947D01*
X004590Y005848D02*
X004510Y005848D01*
X004510Y005750D02*
X004590Y005750D01*
X004590Y005651D02*
X004510Y005651D01*
X004510Y005553D02*
X004590Y005553D01*
X004640Y005454D02*
X004510Y005454D01*
X004510Y005356D02*
X005275Y005356D01*
X005205Y005257D02*
X004510Y005257D01*
X004510Y005159D02*
X005205Y005159D01*
X005205Y005060D02*
X004510Y005060D01*
X004510Y004962D02*
X005244Y004962D01*
X005342Y004863D02*
X004510Y004863D01*
X004510Y004765D02*
X008290Y004765D01*
X008290Y004863D02*
X005758Y004863D01*
X005856Y004962D02*
X008290Y004962D01*
X008290Y005060D02*
X005895Y005060D01*
X005895Y005159D02*
X008290Y005159D01*
X008290Y005257D02*
X005895Y005257D01*
X005825Y005356D02*
X008290Y005356D01*
X008290Y005454D02*
X006460Y005454D01*
X006510Y005553D02*
X008290Y005553D01*
X008290Y005651D02*
X006510Y005651D01*
X006510Y005750D02*
X008290Y005750D01*
X008290Y005848D02*
X006510Y005848D01*
X006510Y005947D02*
X008290Y005947D01*
X008290Y006045D02*
X006510Y006045D01*
X006510Y006144D02*
X008290Y006144D01*
X008290Y006242D02*
X006510Y006242D01*
X006452Y006341D02*
X006868Y006341D01*
X006684Y006439D02*
X006529Y006439D01*
X006555Y006538D02*
X006585Y006538D01*
X006050Y006809D02*
X006050Y006070D01*
X006050Y005716D02*
X005550Y005716D01*
X005550Y005143D01*
X004510Y004666D02*
X008290Y004666D01*
X008290Y004568D02*
X004510Y004568D01*
X004423Y004469D02*
X004925Y004469D01*
X004707Y004371D02*
X004393Y004371D01*
X004491Y004272D02*
X004609Y004272D01*
X004550Y004393D02*
X004550Y003393D01*
X004461Y003484D02*
X004639Y003484D01*
X004551Y003583D02*
X004549Y003583D01*
X004340Y003386D02*
X004760Y003386D01*
X005340Y003386D02*
X005760Y003386D01*
X005639Y003484D02*
X005461Y003484D01*
X005550Y003393D02*
X005550Y004393D01*
X005550Y003393D01*
X005549Y003583D02*
X005551Y003583D01*
X006340Y003386D02*
X006760Y003386D01*
X006639Y003484D02*
X006461Y003484D01*
X006550Y003393D02*
X006550Y004393D01*
X006491Y004272D02*
X006609Y004272D01*
X006707Y004371D02*
X006393Y004371D01*
X006175Y004469D02*
X006925Y004469D01*
X007175Y004469D02*
X007925Y004469D01*
X007707Y004371D02*
X007393Y004371D01*
X007491Y004272D02*
X007609Y004272D01*
X007550Y004393D02*
X007550Y003393D01*
X007461Y003484D02*
X007639Y003484D01*
X007551Y003583D02*
X007549Y003583D01*
X007340Y003386D02*
X007760Y003386D01*
X008550Y003393D02*
X008800Y003143D01*
X023300Y003143D01*
X024050Y003893D01*
X024590Y003681D02*
X026300Y003681D01*
X026300Y003583D02*
X024549Y003583D01*
X024461Y003484D02*
X026300Y003484D01*
X026300Y003386D02*
X024340Y003386D01*
X023812Y003287D02*
X026300Y003287D01*
X026300Y003189D02*
X023713Y003189D01*
X024630Y003780D02*
X026300Y003780D01*
X026300Y003878D02*
X024630Y003878D01*
X024630Y003977D02*
X026300Y003977D01*
X026300Y004075D02*
X024602Y004075D01*
X024562Y004174D02*
X026300Y004174D01*
X026300Y004272D02*
X024491Y004272D01*
X024393Y004371D02*
X026300Y004371D01*
X026300Y004469D02*
X024175Y004469D01*
X023925Y004469D02*
X023175Y004469D01*
X023393Y004371D02*
X023707Y004371D01*
X023609Y004272D02*
X023491Y004272D01*
X020707Y004371D02*
X020393Y004371D01*
X020491Y004272D02*
X020609Y004272D01*
X020050Y003893D02*
X020050Y007393D01*
X019290Y007424D02*
X018555Y007424D01*
X018555Y007326D02*
X019290Y007326D01*
X019290Y007227D02*
X018555Y007227D01*
X018468Y007129D02*
X019290Y007129D01*
X019215Y007030D02*
X018310Y007030D01*
X018310Y006932D02*
X019215Y006932D01*
X019215Y006833D02*
X018310Y006833D01*
X018310Y006735D02*
X019235Y006735D01*
X019333Y006636D02*
X018310Y006636D01*
X018310Y006538D02*
X019790Y006538D01*
X019790Y006636D02*
X019767Y006636D01*
X019790Y006439D02*
X018310Y006439D01*
X018310Y006341D02*
X019790Y006341D01*
X019790Y006242D02*
X018310Y006242D01*
X018310Y006144D02*
X019790Y006144D01*
X019790Y006045D02*
X018372Y006045D01*
X018385Y005947D02*
X019790Y005947D01*
X019790Y005848D02*
X018385Y005848D01*
X018380Y005750D02*
X019790Y005750D01*
X019790Y005651D02*
X018282Y005651D01*
X018050Y005893D02*
X018050Y007559D01*
X018555Y007523D02*
X019290Y007523D01*
X019290Y007621D02*
X018555Y007621D01*
X018555Y007720D02*
X019290Y007720D01*
X019290Y007818D02*
X018555Y007818D01*
X017545Y007818D02*
X015310Y007818D01*
X015310Y007720D02*
X017545Y007720D01*
X017545Y007621D02*
X015310Y007621D01*
X015310Y007523D02*
X017545Y007523D01*
X017393Y006636D02*
X017790Y006636D01*
X017790Y006538D02*
X017523Y006538D01*
X017622Y006439D02*
X017790Y006439D01*
X017790Y006341D02*
X017720Y006341D01*
X017550Y006143D02*
X017550Y004893D01*
X017857Y005060D02*
X018743Y005060D01*
X018715Y004962D02*
X017885Y004962D01*
X017885Y004863D02*
X018715Y004863D01*
X018715Y004765D02*
X017885Y004765D01*
X017797Y004666D02*
X018790Y004666D01*
X018790Y004568D02*
X017698Y004568D01*
X017707Y004371D02*
X017393Y004371D01*
X017310Y004469D02*
X017925Y004469D01*
X018175Y004469D02*
X018790Y004469D01*
X018707Y004371D02*
X018393Y004371D01*
X018491Y004272D02*
X018609Y004272D01*
X019050Y003893D02*
X019050Y004893D01*
X019385Y004863D02*
X019790Y004863D01*
X019790Y004765D02*
X019385Y004765D01*
X019310Y004666D02*
X019790Y004666D01*
X019790Y004568D02*
X019310Y004568D01*
X019310Y004469D02*
X019790Y004469D01*
X019707Y004371D02*
X019393Y004371D01*
X019491Y004272D02*
X019609Y004272D01*
X019790Y004962D02*
X019385Y004962D01*
X019357Y005060D02*
X019790Y005060D01*
X019790Y005159D02*
X019258Y005159D01*
X018842Y005159D02*
X017810Y005159D01*
X017810Y005257D02*
X019790Y005257D01*
X019790Y005356D02*
X017810Y005356D01*
X017810Y005454D02*
X019790Y005454D01*
X019790Y005553D02*
X017810Y005553D01*
X017810Y005651D02*
X017818Y005651D01*
X017050Y005893D02*
X016800Y006143D01*
X014800Y006143D01*
X014550Y005893D01*
X014050Y005893D01*
X014300Y006393D02*
X013550Y006393D01*
X013050Y006893D01*
X013583Y007122D02*
X013542Y007222D01*
X013379Y007385D01*
X013359Y007393D01*
X013379Y007402D01*
X013542Y007565D01*
X013550Y007585D01*
X013558Y007565D01*
X013721Y007402D01*
X013821Y007360D01*
X013777Y007338D01*
X013711Y007290D01*
X013653Y007232D01*
X013605Y007166D01*
X013583Y007122D01*
X013580Y007129D02*
X013586Y007129D01*
X013536Y007227D02*
X013650Y007227D01*
X013761Y007326D02*
X013438Y007326D01*
X013401Y007424D02*
X013699Y007424D01*
X013600Y007523D02*
X013500Y007523D01*
X013550Y007393D02*
X012800Y007393D01*
X012550Y007643D01*
X012550Y008393D01*
X012453Y008311D02*
X012647Y008311D01*
X012554Y008212D02*
X012546Y008212D01*
X012320Y008409D02*
X012780Y008409D01*
X013320Y008409D02*
X013714Y008409D01*
X013647Y008311D02*
X013453Y008311D01*
X013550Y008393D02*
X013550Y007393D01*
X014339Y007326D02*
X014790Y007326D01*
X014790Y007424D02*
X014401Y007424D01*
X014450Y007227D02*
X014790Y007227D01*
X014790Y007129D02*
X014514Y007129D01*
X014552Y007030D02*
X014815Y007030D01*
X015050Y007143D02*
X015800Y007143D01*
X015607Y007424D02*
X015310Y007424D01*
X015050Y007143D02*
X015050Y009893D01*
X015553Y009591D02*
X015627Y009591D01*
X015717Y009493D02*
X015470Y009493D01*
X015361Y009394D02*
X015903Y009394D01*
X016000Y009394D02*
X016100Y009394D01*
X016197Y009394D02*
X016739Y009394D01*
X016630Y009493D02*
X016383Y009493D01*
X016473Y009591D02*
X016547Y009591D01*
X016100Y009591D02*
X016000Y009591D01*
X016000Y009493D02*
X016100Y009493D01*
X016100Y009690D02*
X016000Y009690D01*
X016000Y009788D02*
X016100Y009788D01*
X016378Y008803D02*
X017715Y008803D01*
X017765Y008705D02*
X016395Y008705D01*
X016455Y008606D02*
X017580Y008606D01*
X017545Y008508D02*
X016553Y008508D01*
X016652Y008409D02*
X017545Y008409D01*
X019550Y008893D02*
X019550Y006893D01*
X017550Y006143D02*
X017300Y006393D01*
X015050Y006393D01*
X014300Y006393D01*
X015050Y005893D02*
X016550Y005893D01*
X017050Y005393D01*
X017050Y003893D01*
X016609Y004272D02*
X016491Y004272D01*
X016542Y004222D02*
X016379Y004385D01*
X016310Y004413D01*
X016310Y004680D01*
X016385Y004755D01*
X016385Y005032D01*
X016189Y005228D01*
X016109Y005228D01*
X016135Y005255D01*
X016135Y005532D01*
X016034Y005633D01*
X016442Y005633D01*
X016790Y005286D01*
X016790Y004413D01*
X016721Y004385D01*
X016558Y004222D01*
X016550Y004202D01*
X016542Y004222D01*
X016393Y004371D02*
X016707Y004371D01*
X016790Y004469D02*
X016310Y004469D01*
X016310Y004568D02*
X016790Y004568D01*
X016790Y004666D02*
X016310Y004666D01*
X016385Y004765D02*
X016790Y004765D01*
X016790Y004863D02*
X016385Y004863D01*
X016385Y004962D02*
X016790Y004962D01*
X016790Y005060D02*
X016357Y005060D01*
X016258Y005159D02*
X016790Y005159D01*
X016790Y005257D02*
X016135Y005257D01*
X016135Y005356D02*
X016720Y005356D01*
X016621Y005454D02*
X016135Y005454D01*
X016114Y005553D02*
X016523Y005553D01*
X015800Y005393D02*
X015300Y004893D01*
X015050Y004893D01*
X014050Y004893D01*
X014650Y005153D02*
X014697Y005173D01*
X015158Y005633D01*
X015566Y005633D01*
X015465Y005532D01*
X015465Y005426D01*
X015192Y005153D01*
X014650Y005153D01*
X014663Y005159D02*
X015198Y005159D01*
X015296Y005257D02*
X014782Y005257D01*
X014880Y005356D02*
X015395Y005356D01*
X015465Y005454D02*
X014979Y005454D01*
X015077Y005553D02*
X015486Y005553D01*
X015050Y005893D02*
X014550Y005393D01*
X013300Y005393D01*
X013050Y005643D01*
X013050Y005893D01*
X012550Y006393D02*
X012550Y004643D01*
X012800Y004393D01*
X015550Y004393D01*
X016050Y004893D02*
X016050Y003893D01*
X017310Y004568D02*
X017402Y004568D01*
X017491Y004272D02*
X017609Y004272D01*
X012550Y006393D02*
X012050Y006893D01*
X011050Y006893D02*
X011050Y006143D01*
X011300Y005893D01*
X012050Y005893D01*
X012050Y005393D02*
X010300Y005393D01*
X010050Y005643D01*
X010050Y006893D01*
X009050Y006893D02*
X009050Y004643D01*
X008290Y004469D02*
X008175Y004469D01*
X009810Y004877D02*
X009810Y005543D01*
X009830Y005496D01*
X010080Y005246D01*
X010153Y005173D01*
X010248Y005133D01*
X011836Y005133D01*
X011911Y005058D01*
X012189Y005058D01*
X012290Y005160D01*
X012290Y004877D01*
X012189Y004978D01*
X011911Y004978D01*
X011836Y004903D01*
X010264Y004903D01*
X010189Y004978D01*
X009911Y004978D01*
X009810Y004877D01*
X009810Y004962D02*
X009895Y004962D01*
X009810Y005060D02*
X011909Y005060D01*
X011895Y004962D02*
X010205Y004962D01*
X010187Y005159D02*
X009810Y005159D01*
X009810Y005257D02*
X010068Y005257D01*
X009970Y005356D02*
X009810Y005356D01*
X009810Y005454D02*
X009871Y005454D01*
X010050Y004643D02*
X012050Y004643D01*
X012205Y004962D02*
X012290Y004962D01*
X012290Y005060D02*
X012191Y005060D01*
X012289Y005159D02*
X012290Y005159D01*
X008290Y006341D02*
X007232Y006341D01*
X007416Y006439D02*
X007796Y006439D01*
X007670Y006538D02*
X007515Y006538D01*
X007571Y006636D02*
X007597Y006636D01*
X008000Y006636D02*
X008100Y006636D01*
X008100Y006538D02*
X008000Y006538D01*
X008000Y006439D02*
X008100Y006439D01*
X008100Y006735D02*
X008000Y006735D01*
X008000Y006833D02*
X008100Y006833D01*
X005550Y005716D02*
X005050Y005716D01*
X005050Y006070D02*
X005050Y006809D01*
X007546Y008212D02*
X007554Y008212D01*
X007647Y008311D02*
X007453Y008311D01*
X007320Y008409D02*
X007780Y008409D01*
X008320Y008409D02*
X008780Y008409D01*
X008647Y008311D02*
X008453Y008311D01*
X008546Y008212D02*
X008554Y008212D01*
X006810Y008508D02*
X013615Y008508D01*
X013554Y008212D02*
X013546Y008212D01*
X011780Y008409D02*
X011320Y008409D01*
X011453Y008311D02*
X011647Y008311D01*
X011554Y008212D02*
X011546Y008212D01*
X011361Y009394D02*
X011739Y009394D01*
X011630Y009493D02*
X011470Y009493D01*
X010739Y009394D02*
X010361Y009394D01*
X010470Y009493D02*
X010630Y009493D01*
X012361Y009394D02*
X012739Y009394D01*
X012630Y009493D02*
X012470Y009493D01*
X018300Y010643D02*
X004800Y010643D01*
X003800Y010643D01*
X003550Y010393D01*
X003550Y009393D01*
X005175Y004469D02*
X005925Y004469D01*
X005707Y004371D02*
X005393Y004371D01*
X005491Y004272D02*
X005609Y004272D01*
X006549Y003583D02*
X006551Y003583D01*
X003760Y003386D02*
X003340Y003386D01*
X003461Y003484D02*
X003639Y003484D01*
X003551Y003583D02*
X003549Y003583D01*
X002760Y003386D02*
X002340Y003386D01*
X002461Y003484D02*
X002639Y003484D01*
X002551Y003583D02*
X002549Y003583D01*
X001760Y003386D02*
X001170Y003386D01*
X001100Y003386D02*
X001000Y003386D01*
X000930Y003386D02*
X000550Y003386D01*
X000550Y003484D02*
X000728Y003484D01*
X000633Y003583D02*
X000550Y003583D01*
X000550Y003681D02*
X000574Y003681D01*
X001000Y003681D02*
X001100Y003681D01*
X001100Y003583D02*
X001000Y003583D01*
X001000Y003484D02*
X001100Y003484D01*
X001372Y003484D02*
X001639Y003484D01*
X001551Y003583D02*
X001467Y003583D01*
X001100Y003780D02*
X001000Y003780D01*
X001000Y003943D02*
X001000Y004412D01*
X000928Y004401D01*
X000850Y004375D01*
X000777Y004338D01*
X000711Y004290D01*
X000653Y004232D01*
X000605Y004166D01*
X000568Y004093D01*
X000550Y004037D01*
X000550Y004433D01*
X001838Y004433D01*
X001721Y004385D01*
X001558Y004222D01*
X001517Y004122D01*
X001495Y004166D01*
X001447Y004232D01*
X001389Y004290D01*
X001323Y004338D01*
X001250Y004375D01*
X001172Y004401D01*
X001100Y004412D01*
X001100Y003943D01*
X001000Y003943D01*
X001000Y003977D02*
X001100Y003977D01*
X001100Y004075D02*
X001000Y004075D01*
X001000Y004174D02*
X001100Y004174D01*
X001100Y004272D02*
X001000Y004272D01*
X001000Y004371D02*
X001100Y004371D01*
X001258Y004371D02*
X001707Y004371D01*
X001609Y004272D02*
X001406Y004272D01*
X001489Y004174D02*
X001538Y004174D01*
X000842Y004371D02*
X000550Y004371D01*
X000550Y004272D02*
X000694Y004272D01*
X000611Y004174D02*
X000550Y004174D01*
X000550Y004075D02*
X000562Y004075D01*
X018300Y010643D02*
X019050Y009893D01*
X019470Y009493D02*
X019630Y009493D01*
X019739Y009394D02*
X019361Y009394D01*
X020361Y009394D02*
X020739Y009394D01*
X020630Y009493D02*
X020470Y009493D01*
X021361Y009394D02*
X021739Y009394D01*
X021630Y009493D02*
X021470Y009493D01*
X022361Y009394D02*
X022739Y009394D01*
X022630Y009493D02*
X022470Y009493D01*
X023361Y009394D02*
X023739Y009394D01*
X023630Y009493D02*
X023470Y009493D01*
X026300Y010478D02*
X018833Y010478D01*
X018735Y010576D02*
X026300Y010576D01*
X026300Y010675D02*
X018636Y010675D01*
X019384Y010379D02*
X019716Y010379D01*
X019617Y010281D02*
X019483Y010281D01*
D14*
X019550Y008893D03*
X018050Y008893D03*
X020050Y007893D03*
X020050Y007393D03*
X019550Y006893D03*
X018050Y005893D03*
X017050Y005893D03*
X015800Y005393D03*
X016050Y004893D03*
X015550Y004393D03*
X017550Y004893D03*
X019050Y004893D03*
X015800Y007143D03*
X013050Y005893D03*
X012050Y005893D03*
X012050Y005393D03*
X012050Y004643D03*
X010050Y004643D03*
D15*
X010050Y005143D03*
X009050Y004643D03*
X006550Y004393D03*
X005550Y005143D03*
X006550Y003393D03*
X015170Y005473D03*
X016300Y005393D03*
X016160Y006773D03*
X016760Y007253D03*
X016050Y008643D03*
X016550Y008893D03*
X019180Y008533D03*
X021300Y008893D03*
X022050Y007893D03*
X019050Y005643D03*
X022550Y005143D03*
X013330Y008863D03*
X010300Y008893D03*
X007050Y008643D03*
M02*
