%
M48
M72
T01C0.0130
T02C0.0400
%
T01
X6550Y3393
X6550Y4393
X5550Y5143
X9050Y4643
X10050Y4643
X10050Y5143
X12050Y5393
X12050Y5893
X13050Y5893
X15170Y5473
X15800Y5393
X16300Y5393
X16050Y4893
X15550Y4393
X17550Y4893
X19050Y4893
X19050Y5643
X18050Y5893
X17050Y5893
X16160Y6773
X15800Y7143
X16760Y7253
X16050Y8643
X16550Y8893
X18050Y8893
X19180Y8533
X19550Y8893
X20050Y7893
X20050Y7393
X19550Y6893
X22050Y7893
X21300Y8893
X22550Y5143
X13330Y8863
X10300Y8893
X7050Y8643
X12050Y4643
T02
X12050Y3893
X13050Y3893
X14050Y3893
X15050Y3893
X16050Y3893
X17050Y3893
X18050Y3893
X19050Y3893
X20050Y3893
X21050Y3893
X22050Y3893
X23050Y3893
X24050Y3893
X14050Y4893
X14050Y5893
X14050Y6893
X13050Y6893
X12050Y6893
X11050Y6893
X10050Y6893
X9050Y6893
X8050Y6893
X7050Y6893
X7050Y7893
X8050Y7893
X9050Y7893
X10050Y7893
X11050Y7893
X12050Y7893
X13050Y7893
X14050Y7893
X14050Y8893
X14050Y9893
X15050Y9893
X16050Y9893
X17050Y9893
X18050Y9893
X19050Y9893
X20050Y9893
X21050Y9893
X22050Y9893
X23050Y9893
X24050Y9893
X13050Y9893
X12050Y9893
X11050Y9893
X10050Y9893
X9050Y9893
X8050Y9893
X7050Y9893
X6050Y9893
X5050Y9893
X4050Y9893
X3050Y9893
X2050Y9893
X1050Y9893
X2050Y8893
X3050Y8893
X4050Y8893
X5050Y8893
X6050Y8893
X6050Y3893
X5050Y3893
X4050Y3893
X3050Y3893
X2050Y3893
X1050Y3893
X7050Y3893
X8050Y3893
X9050Y3893
X10050Y3893
X11050Y3893
M30
