G75*
G70*
%OFA0B0*%
%FSLAX24Y24*%
%IPPOS*%
%LPD*%
%AMOC8*
5,1,8,0,0,1.08239X$1,22.5*
%
%ADD10C,0.0740*%
%ADD11R,0.1560X0.1560*%
%ADD12R,0.1250X0.1250*%
%ADD13OC8,0.0270*%
%ADD14C,0.0100*%
%ADD15C,0.0200*%
D10*
X001050Y003393D03*
X002050Y003393D03*
X003050Y003393D03*
X004050Y003393D03*
X005050Y003393D03*
X006050Y003393D03*
X007050Y003393D03*
X008050Y003393D03*
X009050Y003393D03*
X010050Y003393D03*
X011050Y003393D03*
X012050Y003393D03*
X013050Y003393D03*
X014050Y003393D03*
X015050Y003393D03*
X016050Y003393D03*
X017050Y003393D03*
X018050Y003393D03*
X019050Y003393D03*
X020050Y003393D03*
X021050Y003393D03*
X022050Y003393D03*
X023050Y003393D03*
X024050Y003393D03*
X020940Y005613D03*
X019160Y005613D03*
X014050Y005393D03*
X014050Y006393D03*
X013050Y006393D03*
X012050Y006393D03*
X011050Y006393D03*
X010050Y006393D03*
X009050Y006393D03*
X008050Y006393D03*
X007050Y006393D03*
X007050Y007393D03*
X008050Y007393D03*
X009050Y007393D03*
X010050Y007393D03*
X011050Y007393D03*
X012050Y007393D03*
X013050Y007393D03*
X014050Y007393D03*
X014050Y008393D03*
X014050Y009393D03*
X015050Y009393D03*
X016050Y009393D03*
X017050Y009393D03*
X018050Y009393D03*
X019050Y009393D03*
X020050Y009393D03*
X021050Y009393D03*
X022050Y009393D03*
X023050Y009393D03*
X024050Y009393D03*
X020940Y008173D03*
X019160Y008173D03*
X013050Y009393D03*
X012050Y009393D03*
X011050Y009393D03*
X010050Y009393D03*
X009050Y009393D03*
X008050Y009393D03*
X007050Y009393D03*
X006050Y009393D03*
X005050Y009393D03*
X004050Y009393D03*
X003050Y009393D03*
X002050Y009393D03*
X001050Y009393D03*
X002050Y008393D03*
X003050Y008393D03*
X004050Y008393D03*
X005050Y008393D03*
X006050Y008393D03*
X014050Y004393D03*
D11*
X025550Y006393D03*
D12*
X025550Y003293D03*
X025550Y009493D03*
D13*
X023050Y008143D03*
X025510Y007993D03*
X022800Y005643D03*
X020550Y004393D03*
X019550Y004393D03*
X019050Y004393D03*
X017550Y004393D03*
X016550Y004393D03*
X016050Y004393D03*
X015550Y003893D03*
X015050Y004893D03*
X016300Y005393D03*
X017050Y005393D03*
X018550Y006393D03*
X020050Y006393D03*
X020050Y006893D03*
X017540Y008523D03*
X016080Y008543D03*
X015550Y008143D03*
X013330Y008363D03*
X010300Y008393D03*
X007050Y008143D03*
X004640Y007513D03*
X008020Y004903D03*
X009050Y004143D03*
X010050Y004143D03*
X009950Y004593D03*
X011050Y004543D03*
X011850Y004543D03*
X012050Y004893D03*
X012050Y005393D03*
X011830Y005703D03*
X013050Y005393D03*
X013320Y005663D03*
X015050Y006643D03*
X016300Y006643D03*
X013040Y004393D03*
X012050Y004143D03*
X006550Y004143D03*
X005550Y004643D03*
X006550Y002893D03*
X025500Y004853D03*
D14*
X010517Y002643D02*
X000550Y002643D01*
X000550Y003249D01*
X000568Y003194D01*
X000605Y003121D01*
X000653Y003055D01*
X000711Y002997D01*
X000777Y002949D01*
X000850Y002911D01*
X000928Y002886D01*
X001000Y002875D01*
X001000Y003343D01*
X001100Y003343D01*
X001100Y002875D01*
X001172Y002886D01*
X001250Y002911D01*
X001323Y002949D01*
X001389Y002997D01*
X001447Y003055D01*
X001495Y003121D01*
X001532Y003194D01*
X001549Y003245D01*
X001609Y003099D01*
X001755Y002952D01*
X001947Y002873D01*
X002153Y002873D01*
X002345Y002952D01*
X002491Y003099D01*
X002550Y003242D01*
X002609Y003099D01*
X002755Y002952D01*
X002947Y002873D01*
X003153Y002873D01*
X003345Y002952D01*
X003491Y003099D01*
X003550Y003242D01*
X003609Y003099D01*
X003755Y002952D01*
X003947Y002873D01*
X004153Y002873D01*
X004345Y002952D01*
X004491Y003099D01*
X004550Y003242D01*
X004609Y003099D01*
X004755Y002952D01*
X004947Y002873D01*
X005153Y002873D01*
X005345Y002952D01*
X005491Y003099D01*
X005550Y003242D01*
X005609Y003099D01*
X005755Y002952D01*
X005947Y002873D01*
X006153Y002873D01*
X006345Y002952D01*
X006491Y003099D01*
X006550Y003242D01*
X006609Y003099D01*
X006755Y002952D01*
X006947Y002873D01*
X007153Y002873D01*
X007345Y002952D01*
X007491Y003099D01*
X007550Y003242D01*
X007609Y003099D01*
X007755Y002952D01*
X007947Y002873D01*
X008153Y002873D01*
X008345Y002952D01*
X008491Y003099D01*
X008550Y003242D01*
X008609Y003099D01*
X008755Y002952D01*
X008947Y002873D01*
X009153Y002873D01*
X009345Y002952D01*
X009491Y003099D01*
X009550Y003242D01*
X009609Y003099D01*
X009755Y002952D01*
X009947Y002873D01*
X010153Y002873D01*
X010345Y002952D01*
X010350Y002958D01*
X010350Y002810D01*
X010517Y002643D01*
X010472Y002689D02*
X000550Y002689D01*
X000550Y002787D02*
X010373Y002787D01*
X010350Y002886D02*
X010184Y002886D01*
X009916Y002886D02*
X009184Y002886D01*
X009376Y002984D02*
X009724Y002984D01*
X009625Y003083D02*
X009475Y003083D01*
X009525Y003181D02*
X009575Y003181D01*
X008916Y002886D02*
X008184Y002886D01*
X008376Y002984D02*
X008724Y002984D01*
X008625Y003083D02*
X008475Y003083D01*
X008525Y003181D02*
X008575Y003181D01*
X007916Y002886D02*
X007184Y002886D01*
X007376Y002984D02*
X007724Y002984D01*
X007625Y003083D02*
X007475Y003083D01*
X007525Y003181D02*
X007575Y003181D01*
X007550Y002893D02*
X007550Y003893D01*
X007406Y003772D02*
X007694Y003772D01*
X007755Y003834D02*
X007609Y003688D01*
X007550Y003545D01*
X007491Y003688D01*
X007345Y003834D01*
X007153Y003913D01*
X006947Y003913D01*
X006755Y003834D01*
X006609Y003688D01*
X006550Y003545D01*
X006491Y003688D01*
X006345Y003834D01*
X006153Y003913D01*
X005947Y003913D01*
X005755Y003834D01*
X005609Y003688D01*
X005550Y003545D01*
X005491Y003688D01*
X005345Y003834D01*
X005153Y003913D01*
X004947Y003913D01*
X004755Y003834D01*
X004609Y003688D01*
X004550Y003545D01*
X004491Y003688D01*
X004345Y003834D01*
X004153Y003913D01*
X003947Y003913D01*
X003755Y003834D01*
X003609Y003688D01*
X003550Y003545D01*
X003491Y003688D01*
X003345Y003834D01*
X003153Y003913D01*
X002947Y003913D01*
X002755Y003834D01*
X002609Y003688D01*
X002550Y003545D01*
X002491Y003688D01*
X002345Y003834D01*
X002153Y003913D01*
X001947Y003913D01*
X001755Y003834D01*
X001609Y003688D01*
X001549Y003542D01*
X001532Y003593D01*
X001495Y003666D01*
X001447Y003732D01*
X001389Y003790D01*
X001323Y003838D01*
X001250Y003875D01*
X001172Y003901D01*
X001100Y003912D01*
X001100Y003443D01*
X001000Y003443D01*
X001000Y003912D01*
X000928Y003901D01*
X000850Y003875D01*
X000777Y003838D01*
X000711Y003790D01*
X000653Y003732D01*
X000605Y003666D01*
X000568Y003593D01*
X000550Y003537D01*
X000550Y003943D01*
X004383Y003943D01*
X004500Y004060D01*
X004500Y007693D01*
X005217Y007693D01*
X005350Y007560D01*
X005350Y004846D01*
X005265Y004761D01*
X005265Y004525D01*
X005432Y004358D01*
X005668Y004358D01*
X005835Y004525D01*
X005835Y004761D01*
X005750Y004846D01*
X005750Y007726D01*
X005633Y007843D01*
X005434Y008042D01*
X005491Y008099D01*
X005550Y008242D01*
X005609Y008099D01*
X005755Y007952D01*
X005947Y007873D01*
X006153Y007873D01*
X006345Y007952D01*
X006491Y008099D01*
X006570Y008290D01*
X006570Y008497D01*
X006491Y008688D01*
X006345Y008834D01*
X006202Y008893D01*
X006345Y008952D01*
X006491Y009099D01*
X006550Y009242D01*
X006609Y009099D01*
X006755Y008952D01*
X006947Y008873D01*
X007153Y008873D01*
X007345Y008952D01*
X007491Y009099D01*
X007550Y009242D01*
X007609Y009099D01*
X007755Y008952D01*
X007947Y008873D01*
X008153Y008873D01*
X008313Y008940D01*
X007248Y007874D01*
X007153Y007913D01*
X006947Y007913D01*
X006755Y007834D01*
X006609Y007688D01*
X006530Y007497D01*
X006530Y007290D01*
X006609Y007099D01*
X006755Y006952D01*
X006898Y006893D01*
X006755Y006834D01*
X006609Y006688D01*
X006530Y006497D01*
X006530Y006290D01*
X006609Y006099D01*
X006755Y005952D01*
X006947Y005873D01*
X007153Y005873D01*
X007345Y005952D01*
X007491Y006099D01*
X007551Y006245D01*
X007568Y006194D01*
X007605Y006121D01*
X007653Y006055D01*
X007711Y005997D01*
X007777Y005949D01*
X007850Y005911D01*
X007928Y005886D01*
X008000Y005875D01*
X008000Y006343D01*
X008100Y006343D01*
X008100Y005875D01*
X008172Y005886D01*
X008250Y005911D01*
X008323Y005949D01*
X008389Y005997D01*
X008447Y006055D01*
X008495Y006121D01*
X008532Y006194D01*
X008549Y006245D01*
X008609Y006099D01*
X008755Y005952D01*
X008947Y005873D01*
X009153Y005873D01*
X009345Y005952D01*
X009491Y006099D01*
X009550Y006242D01*
X009609Y006099D01*
X009755Y005952D01*
X009947Y005873D01*
X010153Y005873D01*
X010345Y005952D01*
X010350Y005958D01*
X010350Y003829D01*
X010345Y003834D01*
X010203Y003893D01*
X010335Y004025D01*
X010335Y004261D01*
X010168Y004428D01*
X009932Y004428D01*
X009847Y004343D01*
X009253Y004343D01*
X009168Y004428D01*
X008932Y004428D01*
X008765Y004261D01*
X008765Y004025D01*
X008897Y003893D01*
X008755Y003834D01*
X008609Y003688D01*
X008550Y003545D01*
X008491Y003688D01*
X008345Y003834D01*
X008153Y003913D01*
X007947Y003913D01*
X007755Y003834D01*
X007844Y003871D02*
X007256Y003871D01*
X007497Y003674D02*
X007603Y003674D01*
X007563Y003575D02*
X007537Y003575D01*
X006844Y003871D02*
X006256Y003871D01*
X006406Y003772D02*
X006694Y003772D01*
X006603Y003674D02*
X006497Y003674D01*
X006537Y003575D02*
X006563Y003575D01*
X006575Y003181D02*
X006525Y003181D01*
X006475Y003083D02*
X006625Y003083D01*
X006724Y002984D02*
X006376Y002984D01*
X006550Y002893D02*
X006550Y004143D01*
X005844Y003871D02*
X005256Y003871D01*
X005406Y003772D02*
X005694Y003772D01*
X005603Y003674D02*
X005497Y003674D01*
X005537Y003575D02*
X005563Y003575D01*
X005550Y003893D02*
X005550Y002893D01*
X005376Y002984D02*
X005724Y002984D01*
X005625Y003083D02*
X005475Y003083D01*
X005525Y003181D02*
X005575Y003181D01*
X005916Y002886D02*
X005184Y002886D01*
X004916Y002886D02*
X004184Y002886D01*
X004376Y002984D02*
X004724Y002984D01*
X004625Y003083D02*
X004475Y003083D01*
X004525Y003181D02*
X004575Y003181D01*
X004550Y002893D02*
X004550Y003893D01*
X004409Y003969D02*
X008821Y003969D01*
X008844Y003871D02*
X008256Y003871D01*
X008406Y003772D02*
X008694Y003772D01*
X008603Y003674D02*
X008497Y003674D01*
X008537Y003575D02*
X008563Y003575D01*
X008765Y004068D02*
X004500Y004068D01*
X004500Y004166D02*
X008765Y004166D01*
X008768Y004265D02*
X004500Y004265D01*
X004500Y004363D02*
X005427Y004363D01*
X005328Y004462D02*
X004500Y004462D01*
X004500Y004560D02*
X005265Y004560D01*
X005265Y004659D02*
X004500Y004659D01*
X004500Y004757D02*
X005265Y004757D01*
X005350Y004856D02*
X004500Y004856D01*
X004500Y004954D02*
X005350Y004954D01*
X005350Y005053D02*
X004500Y005053D01*
X004500Y005151D02*
X005350Y005151D01*
X005350Y005250D02*
X004500Y005250D01*
X004500Y005348D02*
X005350Y005348D01*
X005350Y005447D02*
X004500Y005447D01*
X004500Y005545D02*
X005350Y005545D01*
X005350Y005644D02*
X004500Y005644D01*
X004500Y005742D02*
X005350Y005742D01*
X005350Y005841D02*
X004500Y005841D01*
X004500Y005939D02*
X005350Y005939D01*
X005350Y006038D02*
X004500Y006038D01*
X004500Y006136D02*
X005350Y006136D01*
X005350Y006235D02*
X004500Y006235D01*
X004500Y006333D02*
X005350Y006333D01*
X005350Y006432D02*
X004500Y006432D01*
X004500Y006530D02*
X005350Y006530D01*
X005350Y006629D02*
X004500Y006629D01*
X004500Y006727D02*
X005350Y006727D01*
X005350Y006826D02*
X004500Y006826D01*
X004500Y006924D02*
X005350Y006924D01*
X005350Y007023D02*
X004500Y007023D01*
X004500Y007121D02*
X005350Y007121D01*
X005350Y007220D02*
X004500Y007220D01*
X004500Y007318D02*
X005350Y007318D01*
X005350Y007417D02*
X004500Y007417D01*
X004500Y007515D02*
X005350Y007515D01*
X005297Y007614D02*
X004500Y007614D01*
X004300Y007893D02*
X005300Y007893D01*
X005550Y007643D01*
X005550Y004643D01*
X005835Y004659D02*
X010350Y004659D01*
X010350Y004757D02*
X005835Y004757D01*
X005750Y004856D02*
X010350Y004856D01*
X010350Y004954D02*
X005750Y004954D01*
X005750Y005053D02*
X010350Y005053D01*
X010350Y005151D02*
X005750Y005151D01*
X005750Y005250D02*
X010350Y005250D01*
X010350Y005348D02*
X005750Y005348D01*
X005750Y005447D02*
X010350Y005447D01*
X010350Y005545D02*
X005750Y005545D01*
X005750Y005644D02*
X010350Y005644D01*
X010350Y005742D02*
X005750Y005742D01*
X005750Y005841D02*
X010350Y005841D01*
X010350Y005939D02*
X010313Y005939D01*
X010750Y005939D02*
X010787Y005939D01*
X010755Y005952D02*
X010947Y005873D01*
X011153Y005873D01*
X011345Y005952D01*
X011350Y005958D01*
X011350Y003829D01*
X011345Y003834D01*
X011153Y003913D01*
X010947Y003913D01*
X010755Y003834D01*
X010750Y003829D01*
X010750Y005958D01*
X010755Y005952D01*
X010750Y005841D02*
X011350Y005841D01*
X011350Y005939D02*
X011313Y005939D01*
X011750Y005939D02*
X011787Y005939D01*
X011755Y005952D02*
X011947Y005873D01*
X012153Y005873D01*
X012345Y005952D01*
X012491Y006099D01*
X012550Y006242D01*
X012609Y006099D01*
X012755Y005952D01*
X012947Y005873D01*
X013153Y005873D01*
X013345Y005952D01*
X013491Y006099D01*
X013551Y006245D01*
X013568Y006194D01*
X013605Y006121D01*
X013653Y006055D01*
X013711Y005997D01*
X013777Y005949D01*
X013850Y005911D01*
X013902Y005895D01*
X013755Y005834D01*
X013609Y005688D01*
X013530Y005497D01*
X013530Y005290D01*
X013609Y005099D01*
X013615Y005093D01*
X012253Y005093D01*
X012203Y005143D01*
X012253Y005193D01*
X012847Y005193D01*
X012932Y005108D01*
X013168Y005108D01*
X013335Y005275D01*
X013335Y005511D01*
X013168Y005678D01*
X012932Y005678D01*
X012847Y005593D01*
X012253Y005593D01*
X012168Y005678D01*
X011932Y005678D01*
X011765Y005511D01*
X011765Y005275D01*
X011897Y005143D01*
X011765Y005011D01*
X011765Y004775D01*
X011932Y004608D01*
X012168Y004608D01*
X012253Y004693D01*
X013615Y004693D01*
X013609Y004688D01*
X013530Y004497D01*
X013530Y004290D01*
X013609Y004099D01*
X013615Y004093D01*
X012383Y004093D01*
X012335Y004141D01*
X012335Y004261D01*
X012168Y004428D01*
X011932Y004428D01*
X011765Y004261D01*
X011765Y004025D01*
X011897Y003893D01*
X011755Y003834D01*
X011750Y003829D01*
X011750Y005958D01*
X011755Y005952D01*
X011750Y005841D02*
X013772Y005841D01*
X013796Y005939D02*
X013313Y005939D01*
X013430Y006038D02*
X013670Y006038D01*
X013597Y006136D02*
X013506Y006136D01*
X013547Y006235D02*
X013555Y006235D01*
X014100Y006343D02*
X014100Y006443D01*
X014569Y006443D01*
X014557Y006515D01*
X014532Y006593D01*
X014495Y006666D01*
X014475Y006693D01*
X014765Y006693D01*
X014765Y006525D01*
X014850Y006440D01*
X014850Y005096D01*
X014765Y005011D01*
X014765Y004961D01*
X014633Y005093D01*
X014485Y005093D01*
X014491Y005099D01*
X014570Y005290D01*
X014570Y005497D01*
X014491Y005688D01*
X014345Y005834D01*
X014198Y005895D01*
X014250Y005911D01*
X014323Y005949D01*
X014389Y005997D01*
X014447Y006055D01*
X014495Y006121D01*
X014532Y006194D01*
X014557Y006272D01*
X014569Y006343D01*
X014100Y006343D01*
X014100Y006432D02*
X014850Y006432D01*
X014850Y006333D02*
X014567Y006333D01*
X014545Y006235D02*
X014850Y006235D01*
X014850Y006136D02*
X014503Y006136D01*
X014430Y006038D02*
X014850Y006038D01*
X014850Y005939D02*
X014304Y005939D01*
X014328Y005841D02*
X014850Y005841D01*
X014850Y005742D02*
X014436Y005742D01*
X014509Y005644D02*
X014850Y005644D01*
X014850Y005545D02*
X014550Y005545D01*
X014570Y005447D02*
X014850Y005447D01*
X014850Y005348D02*
X014570Y005348D01*
X014553Y005250D02*
X014850Y005250D01*
X014850Y005151D02*
X014513Y005151D01*
X014673Y005053D02*
X014806Y005053D01*
X015050Y004893D02*
X021550Y004893D01*
X021800Y005143D01*
X021800Y005893D01*
X025400Y009493D01*
X025550Y009493D01*
X024775Y009485D02*
X024570Y009485D01*
X024570Y009497D02*
X024491Y009688D01*
X024345Y009834D01*
X024153Y009913D01*
X023947Y009913D01*
X023852Y009874D01*
X023537Y010189D01*
X024784Y010189D01*
X024775Y010180D01*
X024775Y009151D01*
X021717Y006093D01*
X021600Y005976D01*
X021600Y005226D01*
X021467Y005093D01*
X015253Y005093D01*
X015250Y005096D01*
X015250Y006440D01*
X015335Y006525D01*
X015335Y006761D01*
X015168Y006928D01*
X015118Y006928D01*
X015133Y006943D01*
X019217Y006943D01*
X019765Y006395D01*
X019765Y006275D01*
X019932Y006108D01*
X020168Y006108D01*
X020335Y006275D01*
X020335Y006511D01*
X020203Y006643D01*
X020335Y006775D01*
X020335Y007011D01*
X020168Y007178D01*
X020048Y007178D01*
X019783Y007443D01*
X021883Y007443D01*
X022250Y007810D01*
X022250Y008913D01*
X022345Y008952D01*
X022491Y009099D01*
X022550Y009242D01*
X022609Y009099D01*
X022755Y008952D01*
X022947Y008873D01*
X023153Y008873D01*
X023345Y008952D01*
X023491Y009099D01*
X023550Y009242D01*
X023609Y009099D01*
X023755Y008952D01*
X023947Y008873D01*
X024153Y008873D01*
X024345Y008952D01*
X024491Y009099D01*
X024570Y009290D01*
X024570Y009497D01*
X024534Y009584D02*
X024775Y009584D01*
X024775Y009682D02*
X024493Y009682D01*
X024398Y009781D02*
X024775Y009781D01*
X024775Y009879D02*
X024235Y009879D01*
X023865Y009879D02*
X023847Y009879D01*
X023748Y009978D02*
X024775Y009978D01*
X024775Y010076D02*
X023650Y010076D01*
X023551Y010175D02*
X024775Y010175D01*
X024050Y009393D02*
X023300Y010143D01*
X005050Y010143D01*
X004550Y009643D01*
X004550Y008893D01*
X005050Y008393D01*
X005535Y008205D02*
X005565Y008205D01*
X005606Y008106D02*
X005494Y008106D01*
X005468Y008008D02*
X005700Y008008D01*
X005567Y007909D02*
X005860Y007909D01*
X005665Y007811D02*
X006732Y007811D01*
X006634Y007712D02*
X005750Y007712D01*
X005750Y007614D02*
X006578Y007614D01*
X006538Y007515D02*
X005750Y007515D01*
X005750Y007417D02*
X006530Y007417D01*
X006530Y007318D02*
X005750Y007318D01*
X005750Y007220D02*
X006559Y007220D01*
X006600Y007121D02*
X005750Y007121D01*
X005750Y007023D02*
X006685Y007023D01*
X006823Y006924D02*
X005750Y006924D01*
X005750Y006826D02*
X006747Y006826D01*
X006649Y006727D02*
X005750Y006727D01*
X005750Y006629D02*
X006585Y006629D01*
X006544Y006530D02*
X005750Y006530D01*
X005750Y006432D02*
X006530Y006432D01*
X006530Y006333D02*
X005750Y006333D01*
X005750Y006235D02*
X006553Y006235D01*
X006594Y006136D02*
X005750Y006136D01*
X005750Y006038D02*
X006670Y006038D01*
X006787Y005939D02*
X005750Y005939D01*
X007050Y006393D02*
X007550Y006893D01*
X008300Y006893D01*
X008550Y007143D01*
X008550Y007643D01*
X008800Y007893D01*
X014800Y007893D01*
X015050Y007643D01*
X019800Y007643D01*
X020050Y007643D01*
X021800Y007643D01*
X022050Y007893D01*
X022050Y009393D01*
X022529Y009190D02*
X022571Y009190D01*
X022617Y009091D02*
X022483Y009091D01*
X022385Y008993D02*
X022715Y008993D01*
X022896Y008894D02*
X022250Y008894D01*
X022250Y008796D02*
X024420Y008796D01*
X024518Y008894D02*
X024204Y008894D01*
X024385Y008993D02*
X024617Y008993D01*
X024715Y009091D02*
X024483Y009091D01*
X024529Y009190D02*
X024775Y009190D01*
X024775Y009288D02*
X024569Y009288D01*
X024570Y009387D02*
X024775Y009387D01*
X023896Y008894D02*
X023204Y008894D01*
X023385Y008993D02*
X023715Y008993D01*
X023617Y009091D02*
X023483Y009091D01*
X023529Y009190D02*
X023571Y009190D01*
X023050Y009393D02*
X022550Y009893D01*
X005800Y009893D01*
X005550Y009643D01*
X005550Y008893D01*
X006050Y008393D01*
X006528Y008599D02*
X007973Y008599D01*
X008071Y008697D02*
X006481Y008697D01*
X006383Y008796D02*
X008170Y008796D01*
X008204Y008894D02*
X008268Y008894D01*
X008550Y008893D02*
X007050Y007393D01*
X006937Y007909D02*
X006240Y007909D01*
X006400Y008008D02*
X007382Y008008D01*
X007480Y008106D02*
X006494Y008106D01*
X006535Y008205D02*
X007579Y008205D01*
X007677Y008303D02*
X006570Y008303D01*
X006570Y008402D02*
X007776Y008402D01*
X007874Y008500D02*
X006569Y008500D01*
X006896Y008894D02*
X006204Y008894D01*
X006385Y008993D02*
X006715Y008993D01*
X006617Y009091D02*
X006483Y009091D01*
X006529Y009190D02*
X006571Y009190D01*
X007204Y008894D02*
X007896Y008894D01*
X007715Y008993D02*
X007385Y008993D01*
X007483Y009091D02*
X007617Y009091D01*
X007571Y009190D02*
X007529Y009190D01*
X008550Y008893D02*
X020550Y008893D01*
X021050Y009393D01*
X021529Y009190D02*
X021571Y009190D01*
X021550Y009242D02*
X021609Y009099D01*
X021755Y008952D01*
X021850Y008913D01*
X021850Y007976D01*
X021717Y007843D01*
X021343Y007843D01*
X021385Y007901D01*
X021422Y007974D01*
X021447Y008052D01*
X021459Y008123D01*
X020990Y008123D01*
X020990Y008223D01*
X021459Y008223D01*
X021447Y008295D01*
X021422Y008373D01*
X021385Y008446D01*
X021337Y008512D01*
X021279Y008570D01*
X021213Y008618D01*
X021140Y008655D01*
X021062Y008681D01*
X020990Y008692D01*
X020990Y008223D01*
X020890Y008223D01*
X020890Y008123D01*
X020421Y008123D01*
X020433Y008052D01*
X020458Y007974D01*
X020495Y007901D01*
X020537Y007843D01*
X019565Y007843D01*
X019601Y007879D01*
X019680Y008070D01*
X019680Y008277D01*
X019601Y008468D01*
X019455Y008614D01*
X019263Y008693D01*
X019057Y008693D01*
X018865Y008614D01*
X018719Y008468D01*
X018640Y008277D01*
X018640Y008070D01*
X018719Y007879D01*
X018755Y007843D01*
X015133Y007843D01*
X014883Y008093D01*
X014485Y008093D01*
X014491Y008099D01*
X014530Y008193D01*
X015217Y008193D01*
X015265Y008145D01*
X015265Y008025D01*
X015432Y007858D01*
X015668Y007858D01*
X015835Y008025D01*
X015835Y008261D01*
X015668Y008428D01*
X015548Y008428D01*
X015383Y008593D01*
X014530Y008593D01*
X014491Y008688D01*
X014485Y008693D01*
X020633Y008693D01*
X020852Y008912D01*
X020947Y008873D01*
X021153Y008873D01*
X021345Y008952D01*
X021491Y009099D01*
X021550Y009242D01*
X021483Y009091D02*
X021617Y009091D01*
X021715Y008993D02*
X021385Y008993D01*
X021204Y008894D02*
X021850Y008894D01*
X021850Y008796D02*
X020735Y008796D01*
X020637Y008697D02*
X021850Y008697D01*
X021850Y008599D02*
X021239Y008599D01*
X021345Y008500D02*
X021850Y008500D01*
X021850Y008402D02*
X021407Y008402D01*
X021445Y008303D02*
X021850Y008303D01*
X021850Y008205D02*
X020990Y008205D01*
X020990Y008303D02*
X020890Y008303D01*
X020890Y008223D02*
X020890Y008692D01*
X020818Y008681D01*
X020740Y008655D01*
X020667Y008618D01*
X020601Y008570D01*
X020543Y008512D01*
X020495Y008446D01*
X020458Y008373D01*
X020433Y008295D01*
X020421Y008223D01*
X020890Y008223D01*
X020890Y008205D02*
X019680Y008205D01*
X019680Y008106D02*
X020424Y008106D01*
X020447Y008008D02*
X019654Y008008D01*
X019613Y007909D02*
X020491Y007909D01*
X020435Y008303D02*
X019669Y008303D01*
X019628Y008402D02*
X020473Y008402D01*
X020535Y008500D02*
X019568Y008500D01*
X019470Y008599D02*
X020641Y008599D01*
X020890Y008599D02*
X020990Y008599D01*
X020990Y008500D02*
X020890Y008500D01*
X020890Y008402D02*
X020990Y008402D01*
X021456Y008106D02*
X021850Y008106D01*
X021850Y008008D02*
X021433Y008008D01*
X021389Y007909D02*
X021783Y007909D01*
X022152Y007712D02*
X023336Y007712D01*
X023238Y007614D02*
X022053Y007614D01*
X021955Y007515D02*
X023139Y007515D01*
X023041Y007417D02*
X019809Y007417D01*
X019908Y007318D02*
X022942Y007318D01*
X022844Y007220D02*
X020006Y007220D01*
X020225Y007121D02*
X022745Y007121D01*
X022647Y007023D02*
X020324Y007023D01*
X020335Y006924D02*
X022548Y006924D01*
X022450Y006826D02*
X020335Y006826D01*
X020287Y006727D02*
X022351Y006727D01*
X022253Y006629D02*
X020218Y006629D01*
X020316Y006530D02*
X022154Y006530D01*
X022056Y006432D02*
X020335Y006432D01*
X020335Y006333D02*
X021957Y006333D01*
X021859Y006235D02*
X020295Y006235D01*
X020196Y006136D02*
X021760Y006136D01*
X021662Y006038D02*
X021240Y006038D01*
X021213Y006058D02*
X021140Y006095D01*
X021062Y006121D01*
X020990Y006132D01*
X020990Y005663D01*
X021459Y005663D01*
X021447Y005735D01*
X021422Y005813D01*
X021385Y005886D01*
X021337Y005952D01*
X021279Y006010D01*
X021213Y006058D01*
X021346Y005939D02*
X021600Y005939D01*
X021600Y005841D02*
X021408Y005841D01*
X021445Y005742D02*
X021600Y005742D01*
X021600Y005644D02*
X020990Y005644D01*
X020990Y005663D02*
X020990Y005563D01*
X020990Y005095D01*
X021062Y005106D01*
X021140Y005131D01*
X021213Y005169D01*
X021279Y005217D01*
X021337Y005275D01*
X021385Y005341D01*
X021422Y005414D01*
X021447Y005492D01*
X021459Y005563D01*
X020990Y005563D01*
X020890Y005563D01*
X020890Y005095D01*
X020818Y005106D01*
X020740Y005131D01*
X020667Y005169D01*
X020601Y005217D01*
X020543Y005275D01*
X020495Y005341D01*
X020458Y005414D01*
X020433Y005492D01*
X020421Y005563D01*
X020890Y005563D01*
X020890Y005663D01*
X020421Y005663D01*
X020433Y005735D01*
X020458Y005813D01*
X020495Y005886D01*
X020543Y005952D01*
X020601Y006010D01*
X020667Y006058D01*
X020740Y006095D01*
X020818Y006121D01*
X020890Y006132D01*
X020890Y005663D01*
X020990Y005663D01*
X020990Y005742D02*
X020890Y005742D01*
X020890Y005644D02*
X019680Y005644D01*
X019680Y005717D02*
X019680Y005510D01*
X019601Y005319D01*
X019455Y005172D01*
X019263Y005093D01*
X019057Y005093D01*
X018865Y005172D01*
X018719Y005319D01*
X018640Y005510D01*
X018640Y005717D01*
X018719Y005908D01*
X018865Y006054D01*
X019057Y006133D01*
X019263Y006133D01*
X019455Y006054D01*
X019601Y005908D01*
X019680Y005717D01*
X019669Y005742D02*
X020435Y005742D01*
X020472Y005841D02*
X019629Y005841D01*
X019569Y005939D02*
X020534Y005939D01*
X020640Y006038D02*
X019471Y006038D01*
X019805Y006235D02*
X016500Y006235D01*
X016500Y006333D02*
X019765Y006333D01*
X019729Y006432D02*
X016500Y006432D01*
X016500Y006440D02*
X016585Y006525D01*
X016585Y006761D01*
X016418Y006928D01*
X016182Y006928D01*
X016015Y006761D01*
X016015Y006525D01*
X016100Y006440D01*
X016100Y005596D01*
X016015Y005511D01*
X016015Y005275D01*
X016182Y005108D01*
X016418Y005108D01*
X016585Y005275D01*
X016585Y005511D01*
X016500Y005596D01*
X016500Y006440D01*
X016585Y006530D02*
X019630Y006530D01*
X019532Y006629D02*
X016585Y006629D01*
X016585Y006727D02*
X019433Y006727D01*
X019335Y006826D02*
X016521Y006826D01*
X016422Y006924D02*
X019236Y006924D01*
X019300Y007143D02*
X020050Y006393D01*
X019904Y006136D02*
X016500Y006136D01*
X016500Y006038D02*
X018849Y006038D01*
X018751Y005939D02*
X016500Y005939D01*
X016500Y005841D02*
X018691Y005841D01*
X018651Y005742D02*
X016500Y005742D01*
X016500Y005644D02*
X018640Y005644D01*
X018640Y005545D02*
X016551Y005545D01*
X016585Y005447D02*
X018666Y005447D01*
X018707Y005348D02*
X016585Y005348D01*
X016560Y005250D02*
X018788Y005250D01*
X018917Y005151D02*
X016461Y005151D01*
X016139Y005151D02*
X015250Y005151D01*
X015250Y005250D02*
X016040Y005250D01*
X016015Y005348D02*
X015250Y005348D01*
X015250Y005447D02*
X016015Y005447D01*
X016049Y005545D02*
X015250Y005545D01*
X015250Y005644D02*
X016100Y005644D01*
X016100Y005742D02*
X015250Y005742D01*
X015250Y005841D02*
X016100Y005841D01*
X016100Y005939D02*
X015250Y005939D01*
X015250Y006038D02*
X016100Y006038D01*
X016100Y006136D02*
X015250Y006136D01*
X015250Y006235D02*
X016100Y006235D01*
X016100Y006333D02*
X015250Y006333D01*
X015250Y006432D02*
X016100Y006432D01*
X016015Y006530D02*
X015335Y006530D01*
X015335Y006629D02*
X016015Y006629D01*
X016015Y006727D02*
X015335Y006727D01*
X015271Y006826D02*
X016079Y006826D01*
X016178Y006924D02*
X015172Y006924D01*
X015050Y007143D02*
X019300Y007143D01*
X019550Y007393D02*
X014050Y007393D01*
X013550Y006893D02*
X014800Y006893D01*
X015050Y007143D01*
X015050Y006643D02*
X015050Y004893D01*
X014550Y004893D02*
X015050Y004393D01*
X016050Y004393D01*
X015847Y004193D02*
X015932Y004108D01*
X016168Y004108D01*
X016335Y004275D01*
X016335Y004511D01*
X016168Y004678D01*
X015932Y004678D01*
X015847Y004593D01*
X015133Y004593D01*
X015118Y004608D01*
X015168Y004608D01*
X015253Y004693D01*
X021633Y004693D01*
X021750Y004810D01*
X022000Y005060D01*
X022000Y005810D01*
X024908Y008718D01*
X026237Y008718D01*
X026300Y008781D01*
X026300Y007323D01*
X025600Y007323D01*
X025600Y006443D01*
X025500Y006443D01*
X025500Y006343D01*
X025600Y006343D01*
X025600Y005463D01*
X026300Y005463D01*
X026300Y004005D01*
X026237Y004068D01*
X024863Y004068D01*
X024775Y003980D01*
X024775Y002643D01*
X021583Y002643D01*
X021852Y002912D01*
X021947Y002873D01*
X022153Y002873D01*
X022345Y002952D01*
X022491Y003099D01*
X022550Y003242D01*
X022609Y003099D01*
X022755Y002952D01*
X022947Y002873D01*
X023153Y002873D01*
X023345Y002952D01*
X023491Y003099D01*
X023550Y003242D01*
X023609Y003099D01*
X023755Y002952D01*
X023947Y002873D01*
X024153Y002873D01*
X024345Y002952D01*
X024491Y003099D01*
X024570Y003290D01*
X024570Y003497D01*
X024491Y003688D01*
X024345Y003834D01*
X024153Y003913D01*
X023947Y003913D01*
X023755Y003834D01*
X023609Y003688D01*
X023550Y003545D01*
X023491Y003688D01*
X023345Y003834D01*
X023153Y003913D01*
X022947Y003913D01*
X022755Y003834D01*
X022609Y003688D01*
X022550Y003545D01*
X022491Y003688D01*
X022345Y003834D01*
X022153Y003913D01*
X021947Y003913D01*
X021755Y003834D01*
X021609Y003688D01*
X021550Y003545D01*
X021491Y003688D01*
X021345Y003834D01*
X021153Y003913D01*
X020947Y003913D01*
X020755Y003834D01*
X020609Y003688D01*
X020550Y003545D01*
X020491Y003688D01*
X020345Y003834D01*
X020153Y003913D01*
X019947Y003913D01*
X019755Y003834D01*
X019609Y003688D01*
X019550Y003545D01*
X019491Y003688D01*
X019345Y003834D01*
X019153Y003913D01*
X018947Y003913D01*
X018755Y003834D01*
X018609Y003688D01*
X018550Y003545D01*
X018491Y003688D01*
X018345Y003834D01*
X018153Y003913D01*
X017947Y003913D01*
X017852Y003874D01*
X017633Y004093D01*
X015753Y004093D01*
X015668Y004178D01*
X015432Y004178D01*
X015265Y004011D01*
X015265Y003867D01*
X015153Y003913D01*
X014947Y003913D01*
X014852Y003874D01*
X014750Y003976D01*
X014750Y003976D01*
X014633Y004093D01*
X014485Y004093D01*
X014491Y004099D01*
X014570Y004290D01*
X014570Y004497D01*
X014504Y004657D01*
X014850Y004310D01*
X014967Y004193D01*
X015847Y004193D01*
X015874Y004166D02*
X015680Y004166D01*
X015420Y004166D02*
X014519Y004166D01*
X014560Y004265D02*
X014896Y004265D01*
X014797Y004363D02*
X014570Y004363D01*
X014570Y004462D02*
X014699Y004462D01*
X014600Y004560D02*
X014544Y004560D01*
X014550Y004893D02*
X012050Y004893D01*
X011765Y004856D02*
X011750Y004856D01*
X011750Y004954D02*
X011765Y004954D01*
X011750Y005053D02*
X011806Y005053D01*
X011750Y005151D02*
X011889Y005151D01*
X011790Y005250D02*
X011750Y005250D01*
X011750Y005348D02*
X011765Y005348D01*
X011765Y005447D02*
X011750Y005447D01*
X011750Y005545D02*
X011799Y005545D01*
X011750Y005644D02*
X011897Y005644D01*
X011750Y005742D02*
X013664Y005742D01*
X013591Y005644D02*
X013203Y005644D01*
X013301Y005545D02*
X013550Y005545D01*
X013530Y005447D02*
X013335Y005447D01*
X013335Y005348D02*
X013530Y005348D01*
X013547Y005250D02*
X013310Y005250D01*
X013211Y005151D02*
X013587Y005151D01*
X013050Y005393D02*
X012050Y005393D01*
X012203Y005644D02*
X012897Y005644D01*
X012787Y005939D02*
X012313Y005939D01*
X012430Y006038D02*
X012670Y006038D01*
X012594Y006136D02*
X012506Y006136D01*
X012547Y006235D02*
X012553Y006235D01*
X011350Y005742D02*
X010750Y005742D01*
X010750Y005644D02*
X011350Y005644D01*
X011350Y005545D02*
X010750Y005545D01*
X010750Y005447D02*
X011350Y005447D01*
X011350Y005348D02*
X010750Y005348D01*
X010750Y005250D02*
X011350Y005250D01*
X011350Y005151D02*
X010750Y005151D01*
X010750Y005053D02*
X011350Y005053D01*
X011350Y004954D02*
X010750Y004954D01*
X010750Y004856D02*
X011350Y004856D01*
X011350Y004757D02*
X010750Y004757D01*
X010750Y004659D02*
X011350Y004659D01*
X011350Y004560D02*
X010750Y004560D01*
X010750Y004462D02*
X011350Y004462D01*
X011350Y004363D02*
X010750Y004363D01*
X010750Y004265D02*
X011350Y004265D01*
X011350Y004166D02*
X010750Y004166D01*
X010750Y004068D02*
X011350Y004068D01*
X011350Y003969D02*
X010750Y003969D01*
X010750Y003871D02*
X010844Y003871D01*
X011256Y003871D02*
X011350Y003871D01*
X011750Y003871D02*
X011844Y003871D01*
X011821Y003969D02*
X011750Y003969D01*
X011750Y004068D02*
X011765Y004068D01*
X011765Y004166D02*
X011750Y004166D01*
X011750Y004265D02*
X011768Y004265D01*
X011750Y004363D02*
X011867Y004363D01*
X011750Y004462D02*
X013530Y004462D01*
X013530Y004363D02*
X012233Y004363D01*
X012332Y004265D02*
X013540Y004265D01*
X013581Y004166D02*
X012335Y004166D01*
X012300Y003893D02*
X012050Y004143D01*
X012300Y003893D02*
X014550Y003893D01*
X015050Y003393D01*
X015256Y003871D02*
X015265Y003871D01*
X015265Y003969D02*
X014757Y003969D01*
X014658Y004068D02*
X015321Y004068D01*
X015550Y003893D02*
X017550Y003893D01*
X018050Y003393D01*
X018537Y003575D02*
X018563Y003575D01*
X018603Y003674D02*
X018497Y003674D01*
X018406Y003772D02*
X018694Y003772D01*
X018844Y003871D02*
X018256Y003871D01*
X017757Y003969D02*
X024775Y003969D01*
X024775Y003871D02*
X024256Y003871D01*
X024406Y003772D02*
X024775Y003772D01*
X024775Y003674D02*
X024497Y003674D01*
X024537Y003575D02*
X024775Y003575D01*
X024775Y003477D02*
X024570Y003477D01*
X024570Y003378D02*
X024775Y003378D01*
X024775Y003280D02*
X024566Y003280D01*
X024525Y003181D02*
X024775Y003181D01*
X024775Y003083D02*
X024475Y003083D01*
X024376Y002984D02*
X024775Y002984D01*
X024775Y002886D02*
X024184Y002886D01*
X023916Y002886D02*
X023184Y002886D01*
X023376Y002984D02*
X023724Y002984D01*
X023625Y003083D02*
X023475Y003083D01*
X023525Y003181D02*
X023575Y003181D01*
X022916Y002886D02*
X022184Y002886D01*
X022376Y002984D02*
X022724Y002984D01*
X022625Y003083D02*
X022475Y003083D01*
X022525Y003181D02*
X022575Y003181D01*
X022050Y003393D02*
X021300Y002643D01*
X010800Y002643D01*
X010550Y002893D01*
X010550Y006893D01*
X011050Y007393D01*
X011550Y006893D02*
X012050Y007393D01*
X011550Y006893D02*
X011550Y003143D01*
X011800Y002893D01*
X020550Y002893D01*
X021050Y003393D01*
X020563Y003575D02*
X020537Y003575D01*
X020497Y003674D02*
X020603Y003674D01*
X020694Y003772D02*
X020406Y003772D01*
X020256Y003871D02*
X020844Y003871D01*
X021256Y003871D02*
X021844Y003871D01*
X021694Y003772D02*
X021406Y003772D01*
X021497Y003674D02*
X021603Y003674D01*
X021563Y003575D02*
X021537Y003575D01*
X022256Y003871D02*
X022844Y003871D01*
X022694Y003772D02*
X022406Y003772D01*
X022497Y003674D02*
X022603Y003674D01*
X022563Y003575D02*
X022537Y003575D01*
X023256Y003871D02*
X023844Y003871D01*
X023694Y003772D02*
X023406Y003772D01*
X023497Y003674D02*
X023603Y003674D01*
X023563Y003575D02*
X023537Y003575D01*
X024862Y004068D02*
X017658Y004068D01*
X017668Y004108D02*
X017753Y004193D01*
X018847Y004193D01*
X018932Y004108D01*
X019168Y004108D01*
X019335Y004275D01*
X019335Y004511D01*
X019168Y004678D01*
X018932Y004678D01*
X018847Y004593D01*
X017753Y004593D01*
X017668Y004678D01*
X017432Y004678D01*
X017265Y004511D01*
X017265Y004275D01*
X017432Y004108D01*
X017668Y004108D01*
X017726Y004166D02*
X018874Y004166D01*
X019226Y004166D02*
X026300Y004166D01*
X026300Y004068D02*
X026238Y004068D01*
X026300Y004265D02*
X019325Y004265D01*
X019335Y004363D02*
X026300Y004363D01*
X026300Y004462D02*
X019335Y004462D01*
X019286Y004560D02*
X026300Y004560D01*
X026300Y004659D02*
X019188Y004659D01*
X018912Y004659D02*
X017688Y004659D01*
X017412Y004659D02*
X016188Y004659D01*
X016286Y004560D02*
X017314Y004560D01*
X017265Y004462D02*
X016335Y004462D01*
X016335Y004363D02*
X017265Y004363D01*
X017275Y004265D02*
X016325Y004265D01*
X016226Y004166D02*
X017374Y004166D01*
X017550Y004393D02*
X019050Y004393D01*
X019256Y003871D02*
X019844Y003871D01*
X019694Y003772D02*
X019406Y003772D01*
X019497Y003674D02*
X019603Y003674D01*
X019563Y003575D02*
X019537Y003575D01*
X021628Y002689D02*
X024775Y002689D01*
X024775Y002787D02*
X021727Y002787D01*
X021825Y002886D02*
X021916Y002886D01*
X021697Y004757D02*
X026300Y004757D01*
X026300Y004856D02*
X021795Y004856D01*
X021894Y004954D02*
X026300Y004954D01*
X026300Y005053D02*
X021992Y005053D01*
X022000Y005151D02*
X026300Y005151D01*
X026300Y005250D02*
X022000Y005250D01*
X022000Y005348D02*
X026300Y005348D01*
X026300Y005447D02*
X022000Y005447D01*
X022000Y005545D02*
X024636Y005545D01*
X024630Y005555D02*
X024650Y005521D01*
X024678Y005493D01*
X024712Y005474D01*
X024750Y005463D01*
X025500Y005463D01*
X025500Y006343D01*
X024620Y006343D01*
X024620Y005594D01*
X024630Y005555D01*
X024620Y005644D02*
X022000Y005644D01*
X022000Y005742D02*
X024620Y005742D01*
X024620Y005841D02*
X022030Y005841D01*
X022129Y005939D02*
X024620Y005939D01*
X024620Y006038D02*
X022227Y006038D01*
X022326Y006136D02*
X024620Y006136D01*
X024620Y006235D02*
X022424Y006235D01*
X022523Y006333D02*
X024620Y006333D01*
X024620Y006443D02*
X025500Y006443D01*
X025500Y007323D01*
X024750Y007323D01*
X024712Y007313D01*
X024678Y007293D01*
X024650Y007265D01*
X024630Y007231D01*
X024620Y007193D01*
X024620Y006443D01*
X024620Y006530D02*
X022720Y006530D01*
X022621Y006432D02*
X025500Y006432D01*
X025500Y006530D02*
X025600Y006530D01*
X025600Y006629D02*
X025500Y006629D01*
X025500Y006727D02*
X025600Y006727D01*
X025600Y006826D02*
X025500Y006826D01*
X025500Y006924D02*
X025600Y006924D01*
X025600Y007023D02*
X025500Y007023D01*
X025500Y007121D02*
X025600Y007121D01*
X025600Y007220D02*
X025500Y007220D01*
X025500Y007318D02*
X025600Y007318D01*
X026300Y007417D02*
X023606Y007417D01*
X023508Y007318D02*
X024732Y007318D01*
X024627Y007220D02*
X023409Y007220D01*
X023311Y007121D02*
X024620Y007121D01*
X024620Y007023D02*
X023212Y007023D01*
X023114Y006924D02*
X024620Y006924D01*
X024620Y006826D02*
X023015Y006826D01*
X022917Y006727D02*
X024620Y006727D01*
X024620Y006629D02*
X022818Y006629D01*
X023705Y007515D02*
X026300Y007515D01*
X026300Y007614D02*
X023803Y007614D01*
X023902Y007712D02*
X026300Y007712D01*
X026300Y007811D02*
X024000Y007811D01*
X024099Y007909D02*
X026300Y007909D01*
X026300Y008008D02*
X024197Y008008D01*
X024296Y008106D02*
X026300Y008106D01*
X026300Y008205D02*
X024394Y008205D01*
X024493Y008303D02*
X026300Y008303D01*
X026300Y008402D02*
X024591Y008402D01*
X024690Y008500D02*
X026300Y008500D01*
X026300Y008599D02*
X024788Y008599D01*
X024887Y008697D02*
X026300Y008697D01*
X024321Y008697D02*
X022250Y008697D01*
X022250Y008599D02*
X024223Y008599D01*
X024124Y008500D02*
X022250Y008500D01*
X022250Y008402D02*
X024026Y008402D01*
X023927Y008303D02*
X022250Y008303D01*
X022250Y008205D02*
X023829Y008205D01*
X023730Y008106D02*
X022250Y008106D01*
X022250Y008008D02*
X023632Y008008D01*
X023533Y007909D02*
X022250Y007909D01*
X022250Y007811D02*
X023435Y007811D01*
X020896Y008894D02*
X020834Y008894D01*
X018850Y008599D02*
X014528Y008599D01*
X014050Y008393D02*
X015300Y008393D01*
X015550Y008143D01*
X015835Y008106D02*
X018640Y008106D01*
X018640Y008205D02*
X015835Y008205D01*
X015793Y008303D02*
X018651Y008303D01*
X018692Y008402D02*
X015695Y008402D01*
X015476Y008500D02*
X018752Y008500D01*
X018666Y008008D02*
X015818Y008008D01*
X015719Y007909D02*
X018707Y007909D01*
X019550Y007393D02*
X020050Y006893D01*
X020890Y006038D02*
X020990Y006038D01*
X020990Y005939D02*
X020890Y005939D01*
X020890Y005841D02*
X020990Y005841D01*
X020990Y005545D02*
X020890Y005545D01*
X020890Y005447D02*
X020990Y005447D01*
X020990Y005348D02*
X020890Y005348D01*
X020890Y005250D02*
X020990Y005250D01*
X020990Y005151D02*
X020890Y005151D01*
X020701Y005151D02*
X019403Y005151D01*
X019532Y005250D02*
X020568Y005250D01*
X020491Y005348D02*
X019613Y005348D01*
X019654Y005447D02*
X020447Y005447D01*
X020424Y005545D02*
X019680Y005545D01*
X021179Y005151D02*
X021525Y005151D01*
X021600Y005250D02*
X021312Y005250D01*
X021389Y005348D02*
X021600Y005348D01*
X021600Y005447D02*
X021433Y005447D01*
X021456Y005545D02*
X021600Y005545D01*
X025500Y005545D02*
X025600Y005545D01*
X025600Y005644D02*
X025500Y005644D01*
X025500Y005742D02*
X025600Y005742D01*
X025600Y005841D02*
X025500Y005841D01*
X025500Y005939D02*
X025600Y005939D01*
X025600Y006038D02*
X025500Y006038D01*
X025500Y006136D02*
X025600Y006136D01*
X025600Y006235D02*
X025500Y006235D01*
X025500Y006333D02*
X025600Y006333D01*
X016300Y006643D02*
X016300Y005393D01*
X015912Y004659D02*
X015219Y004659D01*
X013597Y004659D02*
X012219Y004659D01*
X011881Y004659D02*
X011750Y004659D01*
X011750Y004757D02*
X011783Y004757D01*
X011750Y004560D02*
X013556Y004560D01*
X012889Y005151D02*
X012211Y005151D01*
X010350Y004560D02*
X005835Y004560D01*
X005772Y004462D02*
X010350Y004462D01*
X010350Y004363D02*
X010233Y004363D01*
X010332Y004265D02*
X010350Y004265D01*
X010350Y004166D02*
X010335Y004166D01*
X010335Y004068D02*
X010350Y004068D01*
X010350Y003969D02*
X010279Y003969D01*
X010256Y003871D02*
X010350Y003871D01*
X010050Y004143D02*
X009050Y004143D01*
X009233Y004363D02*
X009867Y004363D01*
X008867Y004363D02*
X005673Y004363D01*
X004844Y003871D02*
X004256Y003871D01*
X004406Y003772D02*
X004694Y003772D01*
X004603Y003674D02*
X004497Y003674D01*
X004537Y003575D02*
X004563Y003575D01*
X003844Y003871D02*
X003256Y003871D01*
X003406Y003772D02*
X003694Y003772D01*
X003603Y003674D02*
X003497Y003674D01*
X003537Y003575D02*
X003563Y003575D01*
X002844Y003871D02*
X002256Y003871D01*
X002406Y003772D02*
X002694Y003772D01*
X002603Y003674D02*
X002497Y003674D01*
X002537Y003575D02*
X002563Y003575D01*
X001844Y003871D02*
X001258Y003871D01*
X001100Y003871D02*
X001000Y003871D01*
X001000Y003772D02*
X001100Y003772D01*
X001100Y003674D02*
X001000Y003674D01*
X001000Y003575D02*
X001100Y003575D01*
X001100Y003477D02*
X001000Y003477D01*
X001000Y003280D02*
X001100Y003280D01*
X001100Y003181D02*
X001000Y003181D01*
X001000Y003083D02*
X001100Y003083D01*
X001100Y002984D02*
X001000Y002984D01*
X001000Y002886D02*
X001100Y002886D01*
X001170Y002886D02*
X001916Y002886D01*
X001724Y002984D02*
X001372Y002984D01*
X001467Y003083D02*
X001625Y003083D01*
X001575Y003181D02*
X001526Y003181D01*
X000930Y002886D02*
X000550Y002886D01*
X000550Y002984D02*
X000728Y002984D01*
X000633Y003083D02*
X000550Y003083D01*
X000550Y003181D02*
X000574Y003181D01*
X000550Y003575D02*
X000562Y003575D01*
X000550Y003674D02*
X000611Y003674D01*
X000550Y003772D02*
X000694Y003772D01*
X000550Y003871D02*
X000842Y003871D01*
X001406Y003772D02*
X001694Y003772D01*
X001603Y003674D02*
X001489Y003674D01*
X001538Y003575D02*
X001563Y003575D01*
X002525Y003181D02*
X002575Y003181D01*
X002625Y003083D02*
X002475Y003083D01*
X002376Y002984D02*
X002724Y002984D01*
X002916Y002886D02*
X002184Y002886D01*
X003184Y002886D02*
X003916Y002886D01*
X003724Y002984D02*
X003376Y002984D01*
X003475Y003083D02*
X003625Y003083D01*
X003575Y003181D02*
X003525Y003181D01*
X006184Y002886D02*
X006916Y002886D01*
X007313Y005939D02*
X007796Y005939D01*
X007670Y006038D02*
X007430Y006038D01*
X007506Y006136D02*
X007597Y006136D01*
X007555Y006235D02*
X007547Y006235D01*
X008000Y006235D02*
X008100Y006235D01*
X008100Y006333D02*
X008000Y006333D01*
X008000Y006136D02*
X008100Y006136D01*
X008100Y006038D02*
X008000Y006038D01*
X008000Y005939D02*
X008100Y005939D01*
X008304Y005939D02*
X008787Y005939D01*
X008670Y006038D02*
X008430Y006038D01*
X008503Y006136D02*
X008594Y006136D01*
X008553Y006235D02*
X008545Y006235D01*
X009313Y005939D02*
X009787Y005939D01*
X009670Y006038D02*
X009430Y006038D01*
X009506Y006136D02*
X009594Y006136D01*
X009553Y006235D02*
X009547Y006235D01*
X008401Y007777D02*
X008345Y007834D01*
X008153Y007913D01*
X007947Y007913D01*
X007787Y007847D01*
X008633Y008693D01*
X013615Y008693D01*
X013609Y008688D01*
X013530Y008497D01*
X013530Y008290D01*
X013609Y008099D01*
X013615Y008093D01*
X008717Y008093D01*
X008600Y007976D01*
X008467Y007843D01*
X008401Y007777D01*
X008368Y007811D02*
X008435Y007811D01*
X008467Y007843D02*
X008467Y007843D01*
X008533Y007909D02*
X008163Y007909D01*
X007937Y007909D02*
X007849Y007909D01*
X007947Y008008D02*
X008632Y008008D01*
X008600Y007976D02*
X008600Y007976D01*
X008144Y008205D02*
X013565Y008205D01*
X013530Y008303D02*
X008243Y008303D01*
X008341Y008402D02*
X013530Y008402D01*
X013531Y008500D02*
X008440Y008500D01*
X008538Y008599D02*
X013572Y008599D01*
X013606Y008106D02*
X008046Y008106D01*
X007283Y007909D02*
X007163Y007909D01*
X004300Y007893D02*
X003800Y007893D01*
X003550Y008143D01*
X003550Y008893D01*
X003050Y009393D01*
X013050Y007393D02*
X013550Y006893D01*
X014514Y006629D02*
X014765Y006629D01*
X014765Y006530D02*
X014552Y006530D01*
X015067Y007909D02*
X015381Y007909D01*
X015282Y008008D02*
X014968Y008008D01*
X015265Y008106D02*
X014494Y008106D01*
D15*
X014050Y006393D02*
X014040Y006393D01*
X013450Y005803D01*
M02*
