G75*
%MOIN*%
%OFA0B0*%
%FSLAX24Y24*%
%IPPOS*%
%LPD*%
%AMOC8*
5,1,8,0,0,1.08239X$1,22.5*
%
%ADD10C,0.0000*%
%ADD11C,0.1300*%
%ADD12C,0.0780*%
%ADD13R,0.0631X0.0552*%
%ADD14R,0.0540X0.0290*%
D10*
X001423Y003543D02*
X001423Y005293D01*
X005423Y005293D01*
X005423Y008793D01*
X002423Y008793D01*
X002423Y009793D01*
X001423Y009793D01*
X001423Y011539D01*
X001423Y011543D01*
X001423Y011539D02*
X029082Y011539D01*
X029082Y003543D01*
X001423Y003543D01*
X022543Y007543D02*
X022545Y007593D01*
X022551Y007643D01*
X022561Y007692D01*
X022575Y007740D01*
X022592Y007787D01*
X022613Y007832D01*
X022638Y007876D01*
X022666Y007917D01*
X022698Y007956D01*
X022732Y007993D01*
X022769Y008027D01*
X022809Y008057D01*
X022851Y008084D01*
X022895Y008108D01*
X022941Y008129D01*
X022988Y008145D01*
X023036Y008158D01*
X023086Y008167D01*
X023135Y008172D01*
X023186Y008173D01*
X023236Y008170D01*
X023285Y008163D01*
X023334Y008152D01*
X023382Y008137D01*
X023428Y008119D01*
X023473Y008097D01*
X023516Y008071D01*
X023557Y008042D01*
X023596Y008010D01*
X023632Y007975D01*
X023664Y007937D01*
X023694Y007897D01*
X023721Y007854D01*
X023744Y007810D01*
X023763Y007764D01*
X023779Y007716D01*
X023791Y007667D01*
X023799Y007618D01*
X023803Y007568D01*
X023803Y007518D01*
X023799Y007468D01*
X023791Y007419D01*
X023779Y007370D01*
X023763Y007322D01*
X023744Y007276D01*
X023721Y007232D01*
X023694Y007189D01*
X023664Y007149D01*
X023632Y007111D01*
X023596Y007076D01*
X023557Y007044D01*
X023516Y007015D01*
X023473Y006989D01*
X023428Y006967D01*
X023382Y006949D01*
X023334Y006934D01*
X023285Y006923D01*
X023236Y006916D01*
X023186Y006913D01*
X023135Y006914D01*
X023086Y006919D01*
X023036Y006928D01*
X022988Y006941D01*
X022941Y006957D01*
X022895Y006978D01*
X022851Y007002D01*
X022809Y007029D01*
X022769Y007059D01*
X022732Y007093D01*
X022698Y007130D01*
X022666Y007169D01*
X022638Y007210D01*
X022613Y007254D01*
X022592Y007299D01*
X022575Y007346D01*
X022561Y007394D01*
X022551Y007443D01*
X022545Y007493D01*
X022543Y007543D01*
D11*
X023173Y007543D03*
D12*
X023173Y004543D03*
X024173Y004543D03*
X025173Y004543D03*
X022173Y004543D03*
X021173Y004543D03*
X020173Y004543D03*
X019173Y004543D03*
X018173Y004543D03*
X017173Y004543D03*
X016173Y004543D03*
X015173Y004543D03*
X014173Y004543D03*
X013173Y004543D03*
X012173Y004543D03*
X011173Y004543D03*
X010173Y004543D03*
X009173Y004543D03*
X008173Y004543D03*
X007173Y004543D03*
X006173Y004543D03*
X005173Y004543D03*
X004173Y004543D03*
X003173Y004543D03*
X002173Y004543D03*
X008173Y007543D03*
X009173Y007543D03*
X010173Y007543D03*
X011173Y007543D03*
X012173Y007543D03*
X013173Y007543D03*
X014173Y007543D03*
X015173Y007543D03*
X015173Y006543D03*
X015173Y005543D03*
X015173Y008543D03*
X014173Y008543D03*
X013173Y008543D03*
X012173Y008543D03*
X011173Y008543D03*
X010173Y008543D03*
X009173Y008543D03*
X008173Y008543D03*
X007173Y009543D03*
X006173Y009543D03*
X005173Y009543D03*
X004173Y009543D03*
X003173Y009543D03*
X003173Y010543D03*
X004173Y010543D03*
X005173Y010543D03*
X006173Y010543D03*
X007173Y010543D03*
X008173Y010543D03*
X009173Y010543D03*
X010173Y010543D03*
X011173Y010543D03*
X012173Y010543D03*
X013173Y010543D03*
X014173Y010543D03*
X015173Y010543D03*
X016173Y010543D03*
X017173Y010543D03*
X018173Y010543D03*
X019173Y010543D03*
X020173Y010543D03*
X021173Y010543D03*
X022173Y010543D03*
X023173Y010543D03*
X024173Y010543D03*
X025173Y010543D03*
X015173Y009543D03*
X002173Y010543D03*
D13*
X006173Y008128D03*
X007173Y008128D03*
X007173Y007459D03*
X006173Y007459D03*
D14*
X006173Y006720D03*
X006173Y006366D03*
X007173Y006366D03*
X007173Y006720D03*
M02*
