%
M48
M72
T01C0.0130
T02C0.0400
T03C0.1260
%
T01
X18673Y5543
X20173Y5543
X16173Y7793
X16173Y6043
X19173Y9543
X7673Y5293
X11073Y5743
X7673Y4043
X8173Y9293
X11423Y9543
X17673Y5543
X20673Y5343
X19673Y7543
X14453Y9513
X12173Y5693
X12973Y5693
X18173Y6543
X25443Y5643
X25453Y8713
X5773Y8723
X14163Y5543
X14443Y6813
X12953Y6853
X9143Y6053
X24173Y9293
X24493Y6793
X22373Y5443
X20953Y9193
X17413Y9173
X22273Y6843
X22273Y9443
X10173Y5293
X11173Y5293
X13173Y5293
X13173Y6043
X17173Y5543
X13173Y6543
X14173Y6543
X16673Y5043
X21673Y7543
X21673Y8043
X6673Y5793
T02
X8173Y8543
X9173Y8543
X10173Y8543
X11173Y8543
X12173Y8543
X13173Y8543
X14173Y8543
X8173Y7543
X9173Y7543
X10173Y7543
X11173Y7543
X12173Y7543
X13173Y7543
X14173Y7543
X15173Y5543
X15173Y6543
X15173Y7543
X15173Y8543
X15173Y9543
X15173Y10543
X14173Y10543
X13173Y10543
X12173Y10543
X11173Y10543
X10173Y10543
X9173Y10543
X8173Y10543
X7173Y10543
X6173Y10543
X5173Y10543
X4173Y10543
X3173Y10543
X2173Y10543
X25173Y4543
X24173Y4543
X23173Y4543
X22173Y4543
X21173Y4543
X20173Y4543
X19173Y4543
X18173Y4543
X17173Y4543
X16173Y4543
X25173Y10543
X24173Y10543
X23173Y10543
X22173Y10543
X21173Y10543
X20173Y10543
X19173Y10543
X18173Y10543
X17173Y10543
X16173Y10543
X15173Y4543
X14173Y4543
X13173Y4543
X12173Y4543
X11173Y4543
X10173Y4543
X9173Y4543
X8173Y4543
X7173Y4543
X6173Y4543
X5173Y4543
X4173Y4543
X3173Y4543
X2173Y4543
X3173Y9543
X4173Y9543
X5173Y9543
X6173Y9543
X7173Y9543
T03
X23173Y7543
M30
