G75*
%MOIN*%
%OFA0B0*%
%FSLAX24Y24*%
%IPPOS*%
%LPD*%
%AMOC8*
5,1,8,0,0,1.08239X$1,22.5*
%
%ADD10C,0.1300*%
%ADD11C,0.0780*%
%ADD12R,0.0631X0.0552*%
%ADD13R,0.0540X0.0290*%
D10*
X023173Y007543D03*
D11*
X002173Y004543D03*
X003173Y004543D03*
X004173Y004543D03*
X005173Y004543D03*
X006173Y004543D03*
X007173Y004543D03*
X008173Y004543D03*
X009173Y004543D03*
X010173Y004543D03*
X011173Y004543D03*
X012173Y004543D03*
X013173Y004543D03*
X014173Y004543D03*
X015173Y004543D03*
X016173Y004543D03*
X017173Y004543D03*
X018173Y004543D03*
X019173Y004543D03*
X020173Y004543D03*
X021173Y004543D03*
X022173Y004543D03*
X023173Y004543D03*
X024173Y004543D03*
X025173Y004543D03*
X015173Y005543D03*
X015173Y006543D03*
X015173Y007543D03*
X014173Y007543D03*
X013173Y007543D03*
X012173Y007543D03*
X011173Y007543D03*
X010173Y007543D03*
X009173Y007543D03*
X008173Y007543D03*
X008173Y008543D03*
X009173Y008543D03*
X010173Y008543D03*
X011173Y008543D03*
X012173Y008543D03*
X013173Y008543D03*
X014173Y008543D03*
X015173Y008543D03*
X015173Y009543D03*
X015173Y010543D03*
X016173Y010543D03*
X017173Y010543D03*
X018173Y010543D03*
X019173Y010543D03*
X020173Y010543D03*
X021173Y010543D03*
X022173Y010543D03*
X023173Y010543D03*
X024173Y010543D03*
X025173Y010543D03*
X014173Y010543D03*
X013173Y010543D03*
X012173Y010543D03*
X011173Y010543D03*
X010173Y010543D03*
X009173Y010543D03*
X008173Y010543D03*
X007173Y010543D03*
X006173Y010543D03*
X005173Y010543D03*
X004173Y010543D03*
X003173Y010543D03*
X002173Y010543D03*
X003173Y009543D03*
X004173Y009543D03*
X005173Y009543D03*
X006173Y009543D03*
X007173Y009543D03*
D12*
X007173Y008128D03*
X006173Y008128D03*
X006173Y007459D03*
X007173Y007459D03*
D13*
X007173Y006720D03*
X007173Y006366D03*
X006173Y006366D03*
X006173Y006720D03*
M02*
