G75*
%MOIN*%
%OFA0B0*%
%FSLAX24Y24*%
%IPPOS*%
%LPD*%
%AMOC8*
5,1,8,0,0,1.08239X$1,22.5*
%
%ADD10C,0.0740*%
%ADD11R,0.1560X0.1560*%
%ADD12R,0.1250X0.1250*%
%ADD13OC8,0.0270*%
%ADD14C,0.0100*%
%ADD15OC8,0.0250*%
%ADD16C,0.0200*%
D10*
X002173Y004543D03*
X003173Y004543D03*
X004173Y004543D03*
X005173Y004543D03*
X006173Y004543D03*
X007173Y004543D03*
X008173Y004543D03*
X009173Y004543D03*
X010173Y004543D03*
X011173Y004543D03*
X012173Y004543D03*
X013173Y004543D03*
X014173Y004543D03*
X015173Y004543D03*
X016173Y004543D03*
X017173Y004543D03*
X018173Y004543D03*
X019173Y004543D03*
X020173Y004543D03*
X021173Y004543D03*
X022173Y004543D03*
X023173Y004543D03*
X024173Y004543D03*
X025173Y004543D03*
X015173Y005543D03*
X015173Y006543D03*
X015173Y007543D03*
X014173Y007543D03*
X013173Y007543D03*
X012173Y007543D03*
X011173Y007543D03*
X010173Y007543D03*
X009173Y007543D03*
X008173Y007543D03*
X008173Y008543D03*
X009173Y008543D03*
X010173Y008543D03*
X011173Y008543D03*
X012173Y008543D03*
X013173Y008543D03*
X014173Y008543D03*
X015173Y008543D03*
X015173Y009543D03*
X015173Y010543D03*
X016173Y010543D03*
X017173Y010543D03*
X018173Y010543D03*
X019173Y010543D03*
X020173Y010543D03*
X021173Y010543D03*
X022173Y010543D03*
X023173Y010543D03*
X024173Y010543D03*
X025173Y010543D03*
X014173Y010543D03*
X013173Y010543D03*
X012173Y010543D03*
X011173Y010543D03*
X010173Y010543D03*
X009173Y010543D03*
X008173Y010543D03*
X007173Y010543D03*
X006173Y010543D03*
X005173Y010543D03*
X004173Y010543D03*
X003173Y010543D03*
X002173Y010543D03*
X003173Y009543D03*
X004173Y009543D03*
X005173Y009543D03*
X006173Y009543D03*
X007173Y009543D03*
D11*
X026773Y007543D03*
D12*
X026773Y004443D03*
X026773Y010643D03*
D13*
X024173Y009293D03*
X025453Y008713D03*
X022273Y009443D03*
X020953Y009193D03*
X017413Y009173D03*
X014453Y009513D03*
X011423Y009543D03*
X008173Y009293D03*
X005773Y008723D03*
X009143Y006053D03*
X010173Y005293D03*
X011173Y005293D03*
X011073Y005743D03*
X012173Y005693D03*
X012973Y005693D03*
X013173Y006043D03*
X013173Y006543D03*
X012953Y006853D03*
X014173Y006543D03*
X014443Y006813D03*
X016173Y006043D03*
X017173Y005543D03*
X017673Y005543D03*
X018673Y005543D03*
X020173Y005543D03*
X020673Y005343D03*
X022373Y005443D03*
X025443Y005643D03*
X024493Y006793D03*
X022273Y006843D03*
X021673Y007543D03*
X019673Y007543D03*
X018173Y006543D03*
X016173Y007793D03*
X014163Y005543D03*
X013173Y005293D03*
X016673Y005043D03*
X007673Y005293D03*
X006673Y005793D03*
X007673Y004043D03*
D14*
X011640Y003793D02*
X001673Y003793D01*
X001673Y004399D01*
X001691Y004344D01*
X001728Y004271D01*
X001776Y004205D01*
X001834Y004147D01*
X001900Y004099D01*
X001973Y004061D01*
X002051Y004036D01*
X002123Y004025D01*
X002123Y004493D01*
X002223Y004493D01*
X002223Y004025D01*
X002295Y004036D01*
X002372Y004061D01*
X002445Y004099D01*
X002512Y004147D01*
X002569Y004205D01*
X002618Y004271D01*
X002655Y004344D01*
X002671Y004395D01*
X002732Y004249D01*
X002878Y004102D01*
X003069Y004023D01*
X003276Y004023D01*
X003467Y004102D01*
X003614Y004249D01*
X003673Y004392D01*
X003732Y004249D01*
X003878Y004102D01*
X004069Y004023D01*
X004276Y004023D01*
X004467Y004102D01*
X004614Y004249D01*
X004673Y004392D01*
X004732Y004249D01*
X004878Y004102D01*
X005069Y004023D01*
X005276Y004023D01*
X005467Y004102D01*
X005614Y004249D01*
X005673Y004392D01*
X005732Y004249D01*
X005878Y004102D01*
X006069Y004023D01*
X006276Y004023D01*
X006467Y004102D01*
X006614Y004249D01*
X006673Y004392D01*
X006732Y004249D01*
X006878Y004102D01*
X007069Y004023D01*
X007276Y004023D01*
X007467Y004102D01*
X007614Y004249D01*
X007673Y004392D01*
X007732Y004249D01*
X007878Y004102D01*
X008069Y004023D01*
X008276Y004023D01*
X008467Y004102D01*
X008614Y004249D01*
X008673Y004392D01*
X008732Y004249D01*
X008878Y004102D01*
X009069Y004023D01*
X009276Y004023D01*
X009467Y004102D01*
X009614Y004249D01*
X009673Y004392D01*
X009732Y004249D01*
X009878Y004102D01*
X010069Y004023D01*
X010276Y004023D01*
X010467Y004102D01*
X010614Y004249D01*
X010673Y004392D01*
X010732Y004249D01*
X010878Y004102D01*
X011069Y004023D01*
X011276Y004023D01*
X011467Y004102D01*
X011473Y004108D01*
X011473Y003960D01*
X011590Y003843D01*
X011640Y003793D01*
X011594Y003839D02*
X001673Y003839D01*
X001673Y003937D02*
X011496Y003937D01*
X011473Y004036D02*
X011306Y004036D01*
X011039Y004036D02*
X010306Y004036D01*
X010499Y004134D02*
X010846Y004134D01*
X010748Y004233D02*
X010598Y004233D01*
X010648Y004331D02*
X010698Y004331D01*
X010039Y004036D02*
X009306Y004036D01*
X009499Y004134D02*
X009846Y004134D01*
X009748Y004233D02*
X009598Y004233D01*
X009648Y004331D02*
X009698Y004331D01*
X009039Y004036D02*
X008306Y004036D01*
X008499Y004134D02*
X008846Y004134D01*
X008748Y004233D02*
X008598Y004233D01*
X008648Y004331D02*
X008698Y004331D01*
X008673Y004043D02*
X008673Y005043D01*
X008816Y004922D02*
X008529Y004922D01*
X008467Y004984D02*
X008276Y005063D01*
X008069Y005063D01*
X007878Y004984D01*
X007732Y004838D01*
X007673Y004695D01*
X007614Y004838D01*
X007467Y004984D01*
X007276Y005063D01*
X007069Y005063D01*
X006878Y004984D01*
X006732Y004838D01*
X006673Y004695D01*
X006614Y004838D01*
X006467Y004984D01*
X006276Y005063D01*
X006069Y005063D01*
X005878Y004984D01*
X005732Y004838D01*
X005673Y004695D01*
X005614Y004838D01*
X005467Y004984D01*
X005276Y005063D01*
X005069Y005063D01*
X004878Y004984D01*
X004732Y004838D01*
X004673Y004695D01*
X004614Y004838D01*
X004467Y004984D01*
X004276Y005063D01*
X004069Y005063D01*
X003878Y004984D01*
X003732Y004838D01*
X003673Y004695D01*
X003614Y004838D01*
X003467Y004984D01*
X003276Y005063D01*
X003069Y005063D01*
X002878Y004984D01*
X002732Y004838D01*
X002671Y004692D01*
X002655Y004743D01*
X002618Y004816D01*
X002569Y004882D01*
X002512Y004940D01*
X002445Y004988D01*
X002372Y005025D01*
X002295Y005051D01*
X002223Y005062D01*
X002223Y004593D01*
X002123Y004593D01*
X002123Y005062D01*
X002051Y005051D01*
X001973Y005025D01*
X001900Y004988D01*
X001834Y004940D01*
X001776Y004882D01*
X001728Y004816D01*
X001691Y004743D01*
X001673Y004687D01*
X001673Y005143D01*
X005485Y005143D01*
X005573Y005231D01*
X005573Y008843D01*
X006340Y008843D01*
X006473Y008710D01*
X006473Y005996D01*
X006388Y005911D01*
X006388Y005675D01*
X006555Y005508D01*
X006791Y005508D01*
X006958Y005675D01*
X006958Y005911D01*
X006873Y005996D01*
X006873Y008876D01*
X006756Y008993D01*
X006557Y009192D01*
X006614Y009249D01*
X006673Y009392D01*
X006732Y009249D01*
X006878Y009102D01*
X007069Y009023D01*
X007276Y009023D01*
X007467Y009102D01*
X007614Y009249D01*
X007693Y009440D01*
X007693Y009647D01*
X007614Y009838D01*
X007467Y009984D01*
X007325Y010043D01*
X007467Y010102D01*
X007614Y010249D01*
X007673Y010392D01*
X007732Y010249D01*
X007878Y010102D01*
X008069Y010023D01*
X008276Y010023D01*
X008467Y010102D01*
X008614Y010249D01*
X008673Y010392D01*
X008732Y010249D01*
X008878Y010102D01*
X009069Y010023D01*
X009276Y010023D01*
X009436Y010090D01*
X008371Y009024D01*
X008276Y009063D01*
X008069Y009063D01*
X007878Y008984D01*
X007732Y008838D01*
X007653Y008647D01*
X007653Y008440D01*
X007732Y008249D01*
X007878Y008102D01*
X008021Y008043D01*
X007878Y007984D01*
X007732Y007838D01*
X007653Y007647D01*
X007653Y007440D01*
X007732Y007249D01*
X007878Y007102D01*
X008069Y007023D01*
X008276Y007023D01*
X008467Y007102D01*
X008614Y007249D01*
X008674Y007395D01*
X008691Y007344D01*
X008728Y007271D01*
X008776Y007205D01*
X008834Y007147D01*
X008900Y007099D01*
X008973Y007061D01*
X009051Y007036D01*
X009123Y007025D01*
X009123Y007493D01*
X009223Y007493D01*
X009223Y007025D01*
X009295Y007036D01*
X009372Y007061D01*
X009445Y007099D01*
X009512Y007147D01*
X009569Y007205D01*
X009618Y007271D01*
X009655Y007344D01*
X009671Y007395D01*
X009732Y007249D01*
X009878Y007102D01*
X010069Y007023D01*
X010276Y007023D01*
X010467Y007102D01*
X010614Y007249D01*
X010673Y007392D01*
X010732Y007249D01*
X010878Y007102D01*
X011069Y007023D01*
X011276Y007023D01*
X011467Y007102D01*
X011473Y007108D01*
X011473Y004979D01*
X011467Y004984D01*
X011325Y005043D01*
X011458Y005175D01*
X011458Y005411D01*
X011291Y005578D01*
X011055Y005578D01*
X010970Y005493D01*
X010376Y005493D01*
X010291Y005578D01*
X010055Y005578D01*
X009888Y005411D01*
X009888Y005175D01*
X010020Y005043D01*
X009878Y004984D01*
X009732Y004838D01*
X009673Y004695D01*
X009614Y004838D01*
X009467Y004984D01*
X009276Y005063D01*
X009069Y005063D01*
X008878Y004984D01*
X008732Y004838D01*
X008673Y004695D01*
X008614Y004838D01*
X008467Y004984D01*
X008379Y005021D02*
X008967Y005021D01*
X008726Y004824D02*
X008619Y004824D01*
X008660Y004725D02*
X008685Y004725D01*
X009379Y005021D02*
X009967Y005021D01*
X009944Y005119D02*
X001673Y005119D01*
X001673Y005021D02*
X001965Y005021D01*
X002123Y005021D02*
X002223Y005021D01*
X002223Y004922D02*
X002123Y004922D01*
X002123Y004824D02*
X002223Y004824D01*
X002223Y004725D02*
X002123Y004725D01*
X002123Y004627D02*
X002223Y004627D01*
X002223Y004430D02*
X002123Y004430D01*
X002123Y004331D02*
X002223Y004331D01*
X002223Y004233D02*
X002123Y004233D01*
X002123Y004134D02*
X002223Y004134D01*
X002223Y004036D02*
X002123Y004036D01*
X002053Y004036D02*
X001673Y004036D01*
X001673Y004134D02*
X001851Y004134D01*
X001756Y004233D02*
X001673Y004233D01*
X001673Y004331D02*
X001697Y004331D01*
X002293Y004036D02*
X003039Y004036D01*
X002846Y004134D02*
X002495Y004134D01*
X002590Y004233D02*
X002748Y004233D01*
X002698Y004331D02*
X002648Y004331D01*
X003306Y004036D02*
X004039Y004036D01*
X003846Y004134D02*
X003499Y004134D01*
X003598Y004233D02*
X003748Y004233D01*
X003698Y004331D02*
X003648Y004331D01*
X004306Y004036D02*
X005039Y004036D01*
X004846Y004134D02*
X004499Y004134D01*
X004598Y004233D02*
X004748Y004233D01*
X004698Y004331D02*
X004648Y004331D01*
X005306Y004036D02*
X006039Y004036D01*
X005846Y004134D02*
X005499Y004134D01*
X005598Y004233D02*
X005748Y004233D01*
X005698Y004331D02*
X005648Y004331D01*
X005673Y004043D02*
X005673Y005043D01*
X005816Y004922D02*
X005529Y004922D01*
X005619Y004824D02*
X005726Y004824D01*
X005685Y004725D02*
X005660Y004725D01*
X005379Y005021D02*
X005967Y005021D01*
X006379Y005021D02*
X006967Y005021D01*
X006816Y004922D02*
X006529Y004922D01*
X006619Y004824D02*
X006726Y004824D01*
X006685Y004725D02*
X006660Y004725D01*
X006673Y005043D02*
X006673Y004043D01*
X006846Y004134D02*
X006499Y004134D01*
X006598Y004233D02*
X006748Y004233D01*
X006698Y004331D02*
X006648Y004331D01*
X006306Y004036D02*
X007039Y004036D01*
X007306Y004036D02*
X008039Y004036D01*
X007846Y004134D02*
X007499Y004134D01*
X007598Y004233D02*
X007748Y004233D01*
X007698Y004331D02*
X007648Y004331D01*
X007673Y004043D02*
X007673Y005293D01*
X007529Y004922D02*
X007816Y004922D01*
X007726Y004824D02*
X007619Y004824D01*
X007660Y004725D02*
X007685Y004725D01*
X007967Y005021D02*
X007379Y005021D01*
X006796Y005513D02*
X009990Y005513D01*
X009891Y005415D02*
X005573Y005415D01*
X005573Y005513D02*
X006550Y005513D01*
X006451Y005612D02*
X005573Y005612D01*
X005573Y005710D02*
X006388Y005710D01*
X006388Y005809D02*
X005573Y005809D01*
X005573Y005907D02*
X006388Y005907D01*
X006473Y006006D02*
X005573Y006006D01*
X005573Y006104D02*
X006473Y006104D01*
X006473Y006203D02*
X005573Y006203D01*
X005573Y006301D02*
X006473Y006301D01*
X006473Y006400D02*
X005573Y006400D01*
X005573Y006498D02*
X006473Y006498D01*
X006473Y006597D02*
X005573Y006597D01*
X005573Y006695D02*
X006473Y006695D01*
X006473Y006794D02*
X005573Y006794D01*
X005573Y006892D02*
X006473Y006892D01*
X006473Y006991D02*
X005573Y006991D01*
X005573Y007089D02*
X006473Y007089D01*
X006473Y007188D02*
X005573Y007188D01*
X005573Y007286D02*
X006473Y007286D01*
X006473Y007385D02*
X005573Y007385D01*
X005573Y007483D02*
X006473Y007483D01*
X006473Y007582D02*
X005573Y007582D01*
X005573Y007680D02*
X006473Y007680D01*
X006473Y007779D02*
X005573Y007779D01*
X005573Y007877D02*
X006473Y007877D01*
X006473Y007976D02*
X005573Y007976D01*
X005573Y008074D02*
X006473Y008074D01*
X006473Y008173D02*
X005573Y008173D01*
X005573Y008271D02*
X006473Y008271D01*
X006473Y008370D02*
X005573Y008370D01*
X005573Y008468D02*
X006473Y008468D01*
X006473Y008567D02*
X005573Y008567D01*
X005573Y008665D02*
X006473Y008665D01*
X006419Y008764D02*
X005573Y008764D01*
X005423Y009043D02*
X004923Y009043D01*
X004673Y009293D01*
X004673Y010043D01*
X004173Y010543D01*
X005673Y010793D02*
X005673Y010043D01*
X006173Y009543D01*
X006658Y009355D02*
X006688Y009355D01*
X006729Y009256D02*
X006617Y009256D01*
X006591Y009158D02*
X006823Y009158D01*
X006690Y009059D02*
X006982Y009059D01*
X006788Y008961D02*
X007855Y008961D01*
X007756Y008862D02*
X006873Y008862D01*
X006873Y008764D02*
X007701Y008764D01*
X007661Y008665D02*
X006873Y008665D01*
X006873Y008567D02*
X007653Y008567D01*
X007653Y008468D02*
X006873Y008468D01*
X006873Y008370D02*
X007682Y008370D01*
X007723Y008271D02*
X006873Y008271D01*
X006873Y008173D02*
X007808Y008173D01*
X007946Y008074D02*
X006873Y008074D01*
X006873Y007976D02*
X007870Y007976D01*
X007771Y007877D02*
X006873Y007877D01*
X006873Y007779D02*
X007708Y007779D01*
X007667Y007680D02*
X006873Y007680D01*
X006873Y007582D02*
X007653Y007582D01*
X007653Y007483D02*
X006873Y007483D01*
X006873Y007385D02*
X007676Y007385D01*
X007716Y007286D02*
X006873Y007286D01*
X006873Y007188D02*
X007793Y007188D01*
X007910Y007089D02*
X006873Y007089D01*
X006873Y006991D02*
X011473Y006991D01*
X011473Y007089D02*
X011436Y007089D01*
X011473Y006892D02*
X006873Y006892D01*
X006873Y006794D02*
X011473Y006794D01*
X011473Y006695D02*
X006873Y006695D01*
X006873Y006597D02*
X011473Y006597D01*
X011473Y006498D02*
X006873Y006498D01*
X006873Y006400D02*
X011473Y006400D01*
X011473Y006301D02*
X006873Y006301D01*
X006873Y006203D02*
X011473Y006203D01*
X011473Y006104D02*
X006873Y006104D01*
X006873Y006006D02*
X011473Y006006D01*
X011473Y005907D02*
X006958Y005907D01*
X006958Y005809D02*
X011473Y005809D01*
X011473Y005710D02*
X006958Y005710D01*
X006894Y005612D02*
X011473Y005612D01*
X011473Y005513D02*
X011356Y005513D01*
X011454Y005415D02*
X011473Y005415D01*
X011473Y005316D02*
X011458Y005316D01*
X011458Y005218D02*
X011473Y005218D01*
X011473Y005119D02*
X011402Y005119D01*
X011379Y005021D02*
X011473Y005021D01*
X011873Y005021D02*
X011967Y005021D01*
X011878Y004984D02*
X011873Y004979D01*
X011873Y007108D01*
X011878Y007102D01*
X012069Y007023D01*
X012276Y007023D01*
X012467Y007102D01*
X012473Y007108D01*
X012473Y004979D01*
X012467Y004984D01*
X012276Y005063D01*
X012069Y005063D01*
X011878Y004984D01*
X011873Y005119D02*
X012473Y005119D01*
X012473Y005021D02*
X012379Y005021D01*
X012873Y005021D02*
X012967Y005021D01*
X013020Y005043D02*
X012878Y004984D01*
X012873Y004979D01*
X012873Y007108D01*
X012878Y007102D01*
X013069Y007023D01*
X013276Y007023D01*
X013467Y007102D01*
X013614Y007249D01*
X013673Y007392D01*
X013732Y007249D01*
X013878Y007102D01*
X014069Y007023D01*
X014276Y007023D01*
X014467Y007102D01*
X014614Y007249D01*
X014674Y007395D01*
X014691Y007344D01*
X014728Y007271D01*
X014776Y007205D01*
X014834Y007147D01*
X014900Y007099D01*
X014973Y007061D01*
X015025Y007045D01*
X014878Y006984D01*
X014732Y006838D01*
X014653Y006647D01*
X014653Y006440D01*
X014732Y006249D01*
X014737Y006243D01*
X013376Y006243D01*
X013326Y006293D01*
X013376Y006343D01*
X013970Y006343D01*
X014055Y006258D01*
X014291Y006258D01*
X014458Y006425D01*
X014458Y006661D01*
X014291Y006828D01*
X014055Y006828D01*
X013970Y006743D01*
X013376Y006743D01*
X013291Y006828D01*
X013055Y006828D01*
X012888Y006661D01*
X012888Y006425D01*
X013020Y006293D01*
X012888Y006161D01*
X012888Y005925D01*
X013055Y005758D01*
X013291Y005758D01*
X013376Y005843D01*
X014737Y005843D01*
X014732Y005838D01*
X014653Y005647D01*
X014653Y005440D01*
X014732Y005249D01*
X014737Y005243D01*
X013506Y005243D01*
X013458Y005291D01*
X013458Y005411D01*
X013291Y005578D01*
X013055Y005578D01*
X012888Y005411D01*
X012888Y005175D01*
X013020Y005043D01*
X012944Y005119D02*
X012873Y005119D01*
X012873Y005218D02*
X012888Y005218D01*
X012888Y005316D02*
X012873Y005316D01*
X012873Y005415D02*
X012891Y005415D01*
X012873Y005513D02*
X012990Y005513D01*
X012873Y005612D02*
X014653Y005612D01*
X014653Y005513D02*
X013356Y005513D01*
X013454Y005415D02*
X014663Y005415D01*
X014704Y005316D02*
X013458Y005316D01*
X013423Y005043D02*
X013173Y005293D01*
X013423Y005043D02*
X015673Y005043D01*
X016173Y004543D01*
X016379Y005021D02*
X016388Y005021D01*
X016388Y005017D02*
X016276Y005063D01*
X016069Y005063D01*
X015975Y005024D01*
X015873Y005126D01*
X015756Y005243D01*
X015608Y005243D01*
X015614Y005249D01*
X015693Y005440D01*
X015693Y005647D01*
X015627Y005807D01*
X015973Y005460D01*
X016090Y005343D01*
X016970Y005343D01*
X017055Y005258D01*
X017291Y005258D01*
X017458Y005425D01*
X017458Y005661D01*
X017291Y005828D01*
X017055Y005828D01*
X016970Y005743D01*
X016256Y005743D01*
X016241Y005758D01*
X016291Y005758D01*
X016376Y005843D01*
X024706Y005843D01*
X025106Y006243D01*
X025223Y006360D01*
X025223Y008810D01*
X026281Y009868D01*
X027460Y009868D01*
X027548Y009956D01*
X027548Y011330D01*
X027537Y011341D01*
X028823Y011343D01*
X028823Y003793D01*
X027548Y003793D01*
X027548Y005130D01*
X027460Y005218D01*
X026086Y005218D01*
X025998Y005130D01*
X025998Y003793D01*
X022706Y003793D01*
X022975Y004062D01*
X023069Y004023D01*
X023276Y004023D01*
X023467Y004102D01*
X023614Y004249D01*
X023673Y004392D01*
X023732Y004249D01*
X023878Y004102D01*
X024069Y004023D01*
X024276Y004023D01*
X024467Y004102D01*
X024614Y004249D01*
X024673Y004392D01*
X024732Y004249D01*
X024878Y004102D01*
X025069Y004023D01*
X025276Y004023D01*
X025467Y004102D01*
X025614Y004249D01*
X025693Y004440D01*
X025693Y004647D01*
X025614Y004838D01*
X025467Y004984D01*
X025276Y005063D01*
X025069Y005063D01*
X024878Y004984D01*
X024732Y004838D01*
X024673Y004695D01*
X024614Y004838D01*
X024467Y004984D01*
X024276Y005063D01*
X024069Y005063D01*
X023878Y004984D01*
X023732Y004838D01*
X023673Y004695D01*
X023614Y004838D01*
X023467Y004984D01*
X023276Y005063D01*
X023069Y005063D01*
X022878Y004984D01*
X022732Y004838D01*
X022673Y004695D01*
X022614Y004838D01*
X022467Y004984D01*
X022276Y005063D01*
X022069Y005063D01*
X021878Y004984D01*
X021732Y004838D01*
X021673Y004695D01*
X021614Y004838D01*
X021467Y004984D01*
X021276Y005063D01*
X021069Y005063D01*
X020878Y004984D01*
X020732Y004838D01*
X020673Y004695D01*
X020614Y004838D01*
X020467Y004984D01*
X020276Y005063D01*
X020069Y005063D01*
X019878Y004984D01*
X019732Y004838D01*
X019673Y004695D01*
X019614Y004838D01*
X019467Y004984D01*
X019276Y005063D01*
X019069Y005063D01*
X018975Y005024D01*
X018756Y005243D01*
X016876Y005243D01*
X016791Y005328D01*
X016555Y005328D01*
X016388Y005161D01*
X016388Y005017D01*
X016388Y005119D02*
X015880Y005119D01*
X015781Y005218D02*
X016444Y005218D01*
X016543Y005316D02*
X015642Y005316D01*
X015682Y005415D02*
X016018Y005415D01*
X015973Y005460D02*
X015973Y005460D01*
X015920Y005513D02*
X015693Y005513D01*
X015693Y005612D02*
X015821Y005612D01*
X015723Y005710D02*
X015667Y005710D01*
X015673Y006043D02*
X016173Y005543D01*
X017173Y005543D01*
X017458Y005513D02*
X018388Y005513D01*
X018388Y005425D02*
X018555Y005258D01*
X018791Y005258D01*
X018876Y005343D01*
X019970Y005343D01*
X020055Y005258D01*
X020291Y005258D01*
X020458Y005425D01*
X020458Y005661D01*
X020291Y005828D01*
X020055Y005828D01*
X019970Y005743D01*
X018876Y005743D01*
X018791Y005828D01*
X018555Y005828D01*
X018388Y005661D01*
X018388Y005425D01*
X018398Y005415D02*
X017447Y005415D01*
X017349Y005316D02*
X018497Y005316D01*
X018673Y005543D02*
X020173Y005543D01*
X020458Y005513D02*
X028823Y005513D01*
X028823Y005415D02*
X020447Y005415D01*
X020349Y005316D02*
X028823Y005316D01*
X028823Y005218D02*
X027460Y005218D01*
X027548Y005119D02*
X028823Y005119D01*
X028823Y005021D02*
X027548Y005021D01*
X027548Y004922D02*
X028823Y004922D01*
X028823Y004824D02*
X027548Y004824D01*
X027548Y004725D02*
X028823Y004725D01*
X028823Y004627D02*
X027548Y004627D01*
X027548Y004528D02*
X028823Y004528D01*
X028823Y004430D02*
X027548Y004430D01*
X027548Y004331D02*
X028823Y004331D01*
X028823Y004233D02*
X027548Y004233D01*
X027548Y004134D02*
X028823Y004134D01*
X028823Y004036D02*
X027548Y004036D01*
X027548Y003937D02*
X028823Y003937D01*
X028823Y003839D02*
X027548Y003839D01*
X025998Y003839D02*
X022751Y003839D01*
X022850Y003937D02*
X025998Y003937D01*
X025998Y004036D02*
X025306Y004036D01*
X025499Y004134D02*
X025998Y004134D01*
X025998Y004233D02*
X025598Y004233D01*
X025648Y004331D02*
X025998Y004331D01*
X025998Y004430D02*
X025689Y004430D01*
X025693Y004528D02*
X025998Y004528D01*
X025998Y004627D02*
X025693Y004627D01*
X025660Y004725D02*
X025998Y004725D01*
X025998Y004824D02*
X025619Y004824D01*
X025529Y004922D02*
X025998Y004922D01*
X025998Y005021D02*
X025379Y005021D01*
X024967Y005021D02*
X024379Y005021D01*
X024529Y004922D02*
X024816Y004922D01*
X024726Y004824D02*
X024619Y004824D01*
X024660Y004725D02*
X024685Y004725D01*
X023967Y005021D02*
X023379Y005021D01*
X023529Y004922D02*
X023816Y004922D01*
X023726Y004824D02*
X023619Y004824D01*
X023660Y004725D02*
X023685Y004725D01*
X023173Y004543D02*
X022423Y003793D01*
X011923Y003793D01*
X011673Y004043D01*
X011673Y008043D01*
X012173Y008543D01*
X012673Y008043D02*
X013173Y008543D01*
X014173Y008543D02*
X014673Y008043D01*
X015923Y008043D01*
X016173Y008293D01*
X020923Y008293D01*
X021673Y007543D01*
X021388Y007545D02*
X021388Y007425D01*
X021555Y007258D01*
X021791Y007258D01*
X021958Y007425D01*
X021958Y007661D01*
X021819Y007800D01*
X021948Y007929D01*
X021948Y008157D01*
X021787Y008318D01*
X021681Y008318D01*
X021406Y008593D01*
X023006Y008593D01*
X023123Y008710D01*
X023123Y008710D01*
X023373Y008960D01*
X023373Y010063D01*
X023467Y010102D01*
X023614Y010249D01*
X023673Y010392D01*
X023732Y010249D01*
X023878Y010102D01*
X024069Y010023D01*
X024276Y010023D01*
X024467Y010102D01*
X024614Y010249D01*
X024673Y010392D01*
X024732Y010249D01*
X024878Y010102D01*
X025069Y010023D01*
X025276Y010023D01*
X025467Y010102D01*
X025614Y010249D01*
X025693Y010440D01*
X025693Y010647D01*
X025614Y010838D01*
X025467Y010984D01*
X025276Y011063D01*
X025069Y011063D01*
X024975Y011024D01*
X024663Y011336D01*
X026006Y011338D01*
X025998Y011330D01*
X025998Y010151D01*
X024823Y008976D01*
X024823Y006526D01*
X024540Y006243D01*
X016376Y006243D01*
X016373Y006246D01*
X016373Y007590D01*
X016458Y007675D01*
X016458Y007911D01*
X016291Y008078D01*
X016241Y008078D01*
X016256Y008093D01*
X020840Y008093D01*
X021388Y007545D01*
X021351Y007582D02*
X016373Y007582D01*
X016373Y007483D02*
X021388Y007483D01*
X021428Y007385D02*
X016373Y007385D01*
X016373Y007286D02*
X021527Y007286D01*
X021819Y007286D02*
X022435Y007286D01*
X022476Y007188D02*
X016373Y007188D01*
X016373Y007089D02*
X022524Y007089D01*
X022512Y007102D02*
X022731Y006882D01*
X023018Y006763D01*
X023328Y006763D01*
X023615Y006882D01*
X023834Y007102D01*
X023953Y007388D01*
X023953Y007698D01*
X023834Y007985D01*
X023615Y008204D01*
X023328Y008323D01*
X023018Y008323D01*
X022731Y008204D01*
X022512Y007985D01*
X022393Y007698D01*
X022393Y007388D01*
X022512Y007102D01*
X022622Y006991D02*
X016373Y006991D01*
X016373Y006892D02*
X022721Y006892D01*
X022944Y006794D02*
X016373Y006794D01*
X016373Y006695D02*
X024823Y006695D01*
X024823Y006597D02*
X016373Y006597D01*
X016373Y006498D02*
X024795Y006498D01*
X024696Y006400D02*
X016373Y006400D01*
X016373Y006301D02*
X024598Y006301D01*
X024623Y006043D02*
X025023Y006443D01*
X025023Y008893D01*
X026773Y010643D01*
X026523Y010643D01*
X025998Y010635D02*
X025693Y010635D01*
X025693Y010537D02*
X025998Y010537D01*
X025998Y010438D02*
X025692Y010438D01*
X025651Y010340D02*
X025998Y010340D01*
X025998Y010241D02*
X025606Y010241D01*
X025508Y010143D02*
X025990Y010143D01*
X025891Y010044D02*
X025327Y010044D01*
X025019Y010044D02*
X024327Y010044D01*
X024508Y010143D02*
X024838Y010143D01*
X024739Y010241D02*
X024606Y010241D01*
X024651Y010340D02*
X024694Y010340D01*
X025173Y010543D02*
X024423Y011293D01*
X006173Y011293D01*
X005673Y010793D01*
X006673Y010793D02*
X006673Y010043D01*
X007173Y009543D01*
X007658Y009355D02*
X008702Y009355D01*
X008800Y009453D02*
X007693Y009453D01*
X007693Y009552D02*
X008899Y009552D01*
X008997Y009650D02*
X007691Y009650D01*
X007651Y009749D02*
X009096Y009749D01*
X009194Y009847D02*
X007604Y009847D01*
X007506Y009946D02*
X009293Y009946D01*
X009327Y010044D02*
X009391Y010044D01*
X009673Y010043D02*
X008173Y008543D01*
X008909Y008997D02*
X009756Y009843D01*
X014737Y009843D01*
X014732Y009838D01*
X014653Y009647D01*
X014653Y009440D01*
X014732Y009249D01*
X014737Y009243D01*
X009840Y009243D01*
X009524Y008927D01*
X009467Y008984D01*
X009276Y009063D01*
X009069Y009063D01*
X008909Y008997D01*
X008972Y009059D02*
X009060Y009059D01*
X009070Y009158D02*
X009755Y009158D01*
X009656Y009059D02*
X009286Y009059D01*
X009491Y008961D02*
X009558Y008961D01*
X009673Y008793D02*
X009923Y009043D01*
X015923Y009043D01*
X016173Y008793D01*
X020923Y008793D01*
X021173Y008793D01*
X022923Y008793D01*
X023173Y009043D01*
X023173Y010543D01*
X023651Y010340D02*
X023694Y010340D01*
X023739Y010241D02*
X023606Y010241D01*
X023508Y010143D02*
X023838Y010143D01*
X024019Y010044D02*
X023373Y010044D01*
X023373Y009946D02*
X025793Y009946D01*
X025694Y009847D02*
X023373Y009847D01*
X023373Y009749D02*
X025596Y009749D01*
X025497Y009650D02*
X023373Y009650D01*
X023373Y009552D02*
X025399Y009552D01*
X025300Y009453D02*
X023373Y009453D01*
X023373Y009355D02*
X025202Y009355D01*
X025103Y009256D02*
X023373Y009256D01*
X023373Y009158D02*
X025005Y009158D01*
X024906Y009059D02*
X023373Y009059D01*
X023373Y008961D02*
X024823Y008961D01*
X024823Y008862D02*
X023275Y008862D01*
X023176Y008764D02*
X024823Y008764D01*
X024823Y008665D02*
X023078Y008665D01*
X022840Y008993D02*
X016256Y008993D01*
X016006Y009243D01*
X015608Y009243D01*
X015614Y009249D01*
X015653Y009343D01*
X018984Y009343D01*
X019059Y009268D01*
X019287Y009268D01*
X019448Y009429D01*
X019448Y009657D01*
X019287Y009818D01*
X019059Y009818D01*
X018984Y009743D01*
X015653Y009743D01*
X015614Y009838D01*
X015608Y009843D01*
X021756Y009843D01*
X021975Y010062D01*
X022069Y010023D01*
X022276Y010023D01*
X022467Y010102D01*
X022614Y010249D01*
X022673Y010392D01*
X022732Y010249D01*
X022878Y010102D01*
X022973Y010063D01*
X022973Y009126D01*
X022840Y008993D01*
X022906Y009059D02*
X016190Y009059D01*
X016091Y009158D02*
X022973Y009158D01*
X022973Y009256D02*
X015617Y009256D01*
X015173Y009543D02*
X019173Y009543D01*
X019373Y009355D02*
X022973Y009355D01*
X022973Y009453D02*
X019448Y009453D01*
X019448Y009552D02*
X022973Y009552D01*
X022973Y009650D02*
X019448Y009650D01*
X019356Y009749D02*
X022973Y009749D01*
X022973Y009847D02*
X021760Y009847D01*
X021858Y009946D02*
X022973Y009946D01*
X022973Y010044D02*
X022327Y010044D01*
X022508Y010143D02*
X022838Y010143D01*
X022739Y010241D02*
X022606Y010241D01*
X022651Y010340D02*
X022694Y010340D01*
X022173Y010543D02*
X021673Y010043D01*
X009673Y010043D01*
X009661Y009749D02*
X014695Y009749D01*
X014654Y009650D02*
X009563Y009650D01*
X009464Y009552D02*
X014653Y009552D01*
X014653Y009453D02*
X009366Y009453D01*
X009267Y009355D02*
X014688Y009355D01*
X014729Y009256D02*
X009169Y009256D01*
X008603Y009256D02*
X007617Y009256D01*
X007523Y009158D02*
X008505Y009158D01*
X008406Y009059D02*
X008286Y009059D01*
X008060Y009059D02*
X007363Y009059D01*
X006673Y008793D02*
X006673Y005793D01*
X005573Y005316D02*
X009888Y005316D01*
X009888Y005218D02*
X005559Y005218D01*
X004967Y005021D02*
X004379Y005021D01*
X004529Y004922D02*
X004816Y004922D01*
X004726Y004824D02*
X004619Y004824D01*
X004660Y004725D02*
X004685Y004725D01*
X003967Y005021D02*
X003379Y005021D01*
X003529Y004922D02*
X003816Y004922D01*
X003726Y004824D02*
X003619Y004824D01*
X003660Y004725D02*
X003685Y004725D01*
X002967Y005021D02*
X002381Y005021D01*
X002529Y004922D02*
X002816Y004922D01*
X002726Y004824D02*
X002612Y004824D01*
X002660Y004725D02*
X002685Y004725D01*
X001816Y004922D02*
X001673Y004922D01*
X001673Y004824D02*
X001734Y004824D01*
X001685Y004725D02*
X001673Y004725D01*
X008436Y007089D02*
X008918Y007089D01*
X008793Y007188D02*
X008553Y007188D01*
X008629Y007286D02*
X008720Y007286D01*
X008678Y007385D02*
X008670Y007385D01*
X009123Y007385D02*
X009223Y007385D01*
X009223Y007483D02*
X009123Y007483D01*
X009123Y007286D02*
X009223Y007286D01*
X009223Y007188D02*
X009123Y007188D01*
X009123Y007089D02*
X009223Y007089D01*
X009427Y007089D02*
X009910Y007089D01*
X009793Y007188D02*
X009553Y007188D01*
X009625Y007286D02*
X009716Y007286D01*
X009676Y007385D02*
X009668Y007385D01*
X010553Y007188D02*
X010793Y007188D01*
X010716Y007286D02*
X010629Y007286D01*
X010670Y007385D02*
X010676Y007385D01*
X010910Y007089D02*
X010436Y007089D01*
X011873Y007089D02*
X011910Y007089D01*
X011873Y006991D02*
X012473Y006991D01*
X012473Y007089D02*
X012436Y007089D01*
X012473Y006892D02*
X011873Y006892D01*
X011873Y006794D02*
X012473Y006794D01*
X012473Y006695D02*
X011873Y006695D01*
X011873Y006597D02*
X012473Y006597D01*
X012473Y006498D02*
X011873Y006498D01*
X011873Y006400D02*
X012473Y006400D01*
X012473Y006301D02*
X011873Y006301D01*
X011873Y006203D02*
X012473Y006203D01*
X012473Y006104D02*
X011873Y006104D01*
X011873Y006006D02*
X012473Y006006D01*
X012473Y005907D02*
X011873Y005907D01*
X011873Y005809D02*
X012473Y005809D01*
X012473Y005710D02*
X011873Y005710D01*
X011873Y005612D02*
X012473Y005612D01*
X012473Y005513D02*
X011873Y005513D01*
X011873Y005415D02*
X012473Y005415D01*
X012473Y005316D02*
X011873Y005316D01*
X011873Y005218D02*
X012473Y005218D01*
X012873Y005710D02*
X014679Y005710D01*
X014720Y005809D02*
X013341Y005809D01*
X013004Y005809D02*
X012873Y005809D01*
X012873Y005907D02*
X012906Y005907D01*
X012888Y006006D02*
X012873Y006006D01*
X012873Y006104D02*
X012888Y006104D01*
X012873Y006203D02*
X012929Y006203D01*
X012873Y006301D02*
X013012Y006301D01*
X012913Y006400D02*
X012873Y006400D01*
X012873Y006498D02*
X012888Y006498D01*
X012888Y006597D02*
X012873Y006597D01*
X012873Y006695D02*
X012922Y006695D01*
X012873Y006794D02*
X013020Y006794D01*
X012873Y006892D02*
X014786Y006892D01*
X014714Y006794D02*
X014325Y006794D01*
X014424Y006695D02*
X014673Y006695D01*
X014653Y006597D02*
X014458Y006597D01*
X014458Y006498D02*
X014653Y006498D01*
X014669Y006400D02*
X014432Y006400D01*
X014334Y006301D02*
X014710Y006301D01*
X014173Y006543D02*
X013173Y006543D01*
X013334Y006301D02*
X014012Y006301D01*
X013173Y006043D02*
X015673Y006043D01*
X015796Y006203D02*
X015929Y006203D01*
X015888Y006161D02*
X015888Y006111D01*
X015873Y006126D01*
X015873Y006126D01*
X015756Y006243D01*
X015608Y006243D01*
X015614Y006249D01*
X015693Y006440D01*
X015693Y006647D01*
X015614Y006838D01*
X015467Y006984D01*
X015321Y007045D01*
X015372Y007061D01*
X015445Y007099D01*
X015512Y007147D01*
X015569Y007205D01*
X015618Y007271D01*
X015655Y007344D01*
X015680Y007422D01*
X015691Y007493D01*
X015223Y007493D01*
X015223Y007593D01*
X015691Y007593D01*
X015680Y007665D01*
X015655Y007743D01*
X015618Y007816D01*
X015598Y007843D01*
X015888Y007843D01*
X015888Y007675D01*
X015973Y007590D01*
X015973Y006246D01*
X015888Y006161D01*
X015973Y006301D02*
X015635Y006301D01*
X015676Y006400D02*
X015973Y006400D01*
X015973Y006498D02*
X015693Y006498D01*
X015693Y006597D02*
X015973Y006597D01*
X015973Y006695D02*
X015673Y006695D01*
X015632Y006794D02*
X015973Y006794D01*
X015973Y006892D02*
X015559Y006892D01*
X015451Y006991D02*
X015973Y006991D01*
X015973Y007089D02*
X015427Y007089D01*
X015553Y007188D02*
X015973Y007188D01*
X015973Y007286D02*
X015625Y007286D01*
X015668Y007385D02*
X015973Y007385D01*
X015973Y007483D02*
X015690Y007483D01*
X015973Y007582D02*
X015223Y007582D01*
X015675Y007680D02*
X015888Y007680D01*
X015888Y007779D02*
X015636Y007779D01*
X016173Y007793D02*
X016173Y006043D01*
X024373Y006043D01*
X024623Y006043D01*
X024770Y005907D02*
X028823Y005907D01*
X028823Y005809D02*
X020310Y005809D01*
X020409Y005710D02*
X028823Y005710D01*
X028823Y005612D02*
X020458Y005612D01*
X020035Y005809D02*
X018810Y005809D01*
X018535Y005809D02*
X017310Y005809D01*
X017409Y005710D02*
X018437Y005710D01*
X018388Y005612D02*
X017458Y005612D01*
X017035Y005809D02*
X016341Y005809D01*
X016803Y005316D02*
X016997Y005316D01*
X016673Y005043D02*
X018673Y005043D01*
X019173Y004543D01*
X019660Y004725D02*
X019685Y004725D01*
X019726Y004824D02*
X019619Y004824D01*
X019529Y004922D02*
X019816Y004922D01*
X019967Y005021D02*
X019379Y005021D01*
X018880Y005119D02*
X025998Y005119D01*
X026085Y005218D02*
X018781Y005218D01*
X018849Y005316D02*
X019997Y005316D01*
X020379Y005021D02*
X020967Y005021D01*
X020816Y004922D02*
X020529Y004922D01*
X020619Y004824D02*
X020726Y004824D01*
X020685Y004725D02*
X020660Y004725D01*
X021379Y005021D02*
X021967Y005021D01*
X021816Y004922D02*
X021529Y004922D01*
X021619Y004824D02*
X021726Y004824D01*
X021685Y004725D02*
X021660Y004725D01*
X022173Y004543D02*
X021673Y004043D01*
X012923Y004043D01*
X012673Y004293D01*
X012673Y008043D01*
X013670Y007385D02*
X013676Y007385D01*
X013716Y007286D02*
X013629Y007286D01*
X013553Y007188D02*
X013793Y007188D01*
X013910Y007089D02*
X013436Y007089D01*
X013325Y006794D02*
X014020Y006794D01*
X014436Y007089D02*
X014918Y007089D01*
X014894Y006991D02*
X012873Y006991D01*
X012873Y007089D02*
X012910Y007089D01*
X014553Y007188D02*
X014793Y007188D01*
X014720Y007286D02*
X014629Y007286D01*
X014670Y007385D02*
X014678Y007385D01*
X016295Y008074D02*
X020859Y008074D01*
X020957Y007976D02*
X016393Y007976D01*
X016458Y007877D02*
X021056Y007877D01*
X021154Y007779D02*
X016458Y007779D01*
X016458Y007680D02*
X021253Y007680D01*
X021840Y007779D02*
X022426Y007779D01*
X022393Y007680D02*
X021939Y007680D01*
X021958Y007582D02*
X022393Y007582D01*
X022393Y007483D02*
X021958Y007483D01*
X021917Y007385D02*
X022394Y007385D01*
X022467Y007877D02*
X021896Y007877D01*
X021948Y007976D02*
X022508Y007976D01*
X022601Y008074D02*
X021948Y008074D01*
X021932Y008173D02*
X022699Y008173D01*
X022892Y008271D02*
X021834Y008271D01*
X021629Y008370D02*
X024823Y008370D01*
X024823Y008468D02*
X021531Y008468D01*
X021432Y008567D02*
X024823Y008567D01*
X025223Y008567D02*
X028823Y008567D01*
X028823Y008665D02*
X025223Y008665D01*
X025223Y008764D02*
X028823Y008764D01*
X028823Y008862D02*
X025275Y008862D01*
X025373Y008961D02*
X028823Y008961D01*
X028823Y009059D02*
X025472Y009059D01*
X025570Y009158D02*
X028823Y009158D01*
X028823Y009256D02*
X025669Y009256D01*
X025767Y009355D02*
X028823Y009355D01*
X028823Y009453D02*
X025866Y009453D01*
X025964Y009552D02*
X028823Y009552D01*
X028823Y009650D02*
X026063Y009650D01*
X026161Y009749D02*
X028823Y009749D01*
X028823Y009847D02*
X026260Y009847D01*
X027537Y009946D02*
X028823Y009946D01*
X028823Y010044D02*
X027548Y010044D01*
X027548Y010143D02*
X028823Y010143D01*
X028823Y010241D02*
X027548Y010241D01*
X027548Y010340D02*
X028823Y010340D01*
X028823Y010438D02*
X027548Y010438D01*
X027548Y010537D02*
X028823Y010537D01*
X028823Y010635D02*
X027548Y010635D01*
X027548Y010734D02*
X028823Y010734D01*
X028823Y010832D02*
X027548Y010832D01*
X027548Y010931D02*
X028823Y010931D01*
X028823Y011029D02*
X027548Y011029D01*
X027548Y011128D02*
X028823Y011128D01*
X028823Y011226D02*
X027548Y011226D01*
X027548Y011325D02*
X028823Y011325D01*
X025998Y011325D02*
X024674Y011325D01*
X024773Y011226D02*
X025998Y011226D01*
X025998Y011128D02*
X024871Y011128D01*
X024970Y011029D02*
X024987Y011029D01*
X025358Y011029D02*
X025998Y011029D01*
X025998Y010931D02*
X025521Y010931D01*
X025616Y010832D02*
X025998Y010832D01*
X025998Y010734D02*
X025657Y010734D01*
X024173Y010543D02*
X023673Y011043D01*
X006923Y011043D01*
X006673Y010793D01*
X007651Y010340D02*
X007694Y010340D01*
X007739Y010241D02*
X007606Y010241D01*
X007508Y010143D02*
X007838Y010143D01*
X008019Y010044D02*
X007327Y010044D01*
X008327Y010044D02*
X009019Y010044D01*
X008838Y010143D02*
X008508Y010143D01*
X008606Y010241D02*
X008739Y010241D01*
X008694Y010340D02*
X008651Y010340D01*
X006673Y008793D02*
X006423Y009043D01*
X005423Y009043D01*
X008173Y007543D02*
X008673Y008043D01*
X009423Y008043D01*
X009673Y008293D01*
X009673Y008793D01*
X015173Y008543D02*
X021173Y008543D01*
X021673Y008043D01*
X023453Y008271D02*
X024823Y008271D01*
X024823Y008173D02*
X023646Y008173D01*
X023745Y008074D02*
X024823Y008074D01*
X024823Y007976D02*
X023838Y007976D01*
X023879Y007877D02*
X024823Y007877D01*
X024823Y007779D02*
X023919Y007779D01*
X023953Y007680D02*
X024823Y007680D01*
X024823Y007582D02*
X023953Y007582D01*
X023953Y007483D02*
X024823Y007483D01*
X024823Y007385D02*
X023951Y007385D01*
X023911Y007286D02*
X024823Y007286D01*
X024823Y007188D02*
X023870Y007188D01*
X023822Y007089D02*
X024823Y007089D01*
X024823Y006991D02*
X023723Y006991D01*
X023625Y006892D02*
X024823Y006892D01*
X024823Y006794D02*
X023401Y006794D01*
X024967Y006104D02*
X028823Y006104D01*
X028823Y006006D02*
X024868Y006006D01*
X025065Y006203D02*
X028823Y006203D01*
X028823Y006301D02*
X025164Y006301D01*
X025223Y006400D02*
X028823Y006400D01*
X028823Y006498D02*
X025223Y006498D01*
X025223Y006597D02*
X028823Y006597D01*
X028823Y006695D02*
X027687Y006695D01*
X027693Y006705D02*
X027703Y006744D01*
X027703Y007493D01*
X026823Y007493D01*
X026823Y006613D01*
X027573Y006613D01*
X027611Y006624D01*
X027645Y006643D01*
X027673Y006671D01*
X027693Y006705D01*
X027703Y006794D02*
X028823Y006794D01*
X028823Y006892D02*
X027703Y006892D01*
X027703Y006991D02*
X028823Y006991D01*
X028823Y007089D02*
X027703Y007089D01*
X027703Y007188D02*
X028823Y007188D01*
X028823Y007286D02*
X027703Y007286D01*
X027703Y007385D02*
X028823Y007385D01*
X028823Y007483D02*
X027703Y007483D01*
X027703Y007593D02*
X027703Y008343D01*
X027693Y008381D01*
X027673Y008415D01*
X027645Y008443D01*
X027611Y008463D01*
X027573Y008473D01*
X026823Y008473D01*
X026823Y007593D01*
X027703Y007593D01*
X027703Y007680D02*
X028823Y007680D01*
X028823Y007582D02*
X026823Y007582D01*
X026823Y007593D02*
X026823Y007493D01*
X026723Y007493D01*
X026723Y006613D01*
X025973Y006613D01*
X025935Y006624D01*
X025901Y006643D01*
X025873Y006671D01*
X025853Y006705D01*
X025843Y006744D01*
X025843Y007493D01*
X026723Y007493D01*
X026723Y007593D01*
X025843Y007593D01*
X025843Y008343D01*
X025853Y008381D01*
X025873Y008415D01*
X025901Y008443D01*
X025935Y008463D01*
X025973Y008473D01*
X026723Y008473D01*
X026723Y007593D01*
X026823Y007593D01*
X026823Y007680D02*
X026723Y007680D01*
X026723Y007582D02*
X025223Y007582D01*
X025223Y007680D02*
X025843Y007680D01*
X025843Y007779D02*
X025223Y007779D01*
X025223Y007877D02*
X025843Y007877D01*
X025843Y007976D02*
X025223Y007976D01*
X025223Y008074D02*
X025843Y008074D01*
X025843Y008173D02*
X025223Y008173D01*
X025223Y008271D02*
X025843Y008271D01*
X025850Y008370D02*
X025223Y008370D01*
X025223Y008468D02*
X025954Y008468D01*
X026723Y008468D02*
X026823Y008468D01*
X026823Y008370D02*
X026723Y008370D01*
X026723Y008271D02*
X026823Y008271D01*
X026823Y008173D02*
X026723Y008173D01*
X026723Y008074D02*
X026823Y008074D01*
X026823Y007976D02*
X026723Y007976D01*
X026723Y007877D02*
X026823Y007877D01*
X026823Y007779D02*
X026723Y007779D01*
X026723Y007483D02*
X026823Y007483D01*
X026823Y007385D02*
X026723Y007385D01*
X026723Y007286D02*
X026823Y007286D01*
X026823Y007188D02*
X026723Y007188D01*
X026723Y007089D02*
X026823Y007089D01*
X026823Y006991D02*
X026723Y006991D01*
X026723Y006892D02*
X026823Y006892D01*
X026823Y006794D02*
X026723Y006794D01*
X026723Y006695D02*
X026823Y006695D01*
X025859Y006695D02*
X025223Y006695D01*
X025223Y006794D02*
X025843Y006794D01*
X025843Y006892D02*
X025223Y006892D01*
X025223Y006991D02*
X025843Y006991D01*
X025843Y007089D02*
X025223Y007089D01*
X025223Y007188D02*
X025843Y007188D01*
X025843Y007286D02*
X025223Y007286D01*
X025223Y007385D02*
X025843Y007385D01*
X025843Y007483D02*
X025223Y007483D01*
X027703Y007779D02*
X028823Y007779D01*
X028823Y007877D02*
X027703Y007877D01*
X027703Y007976D02*
X028823Y007976D01*
X028823Y008074D02*
X027703Y008074D01*
X027703Y008173D02*
X028823Y008173D01*
X028823Y008271D02*
X027703Y008271D01*
X027696Y008370D02*
X028823Y008370D01*
X028823Y008468D02*
X027591Y008468D01*
X022019Y010044D02*
X021957Y010044D01*
X018989Y009749D02*
X015651Y009749D01*
X010990Y005513D02*
X010356Y005513D01*
X010173Y005293D02*
X011173Y005293D01*
X009816Y004922D02*
X009529Y004922D01*
X009619Y004824D02*
X009726Y004824D01*
X009685Y004725D02*
X009660Y004725D01*
X022379Y005021D02*
X022967Y005021D01*
X022816Y004922D02*
X022529Y004922D01*
X022619Y004824D02*
X022726Y004824D01*
X022685Y004725D02*
X022660Y004725D01*
X023648Y004331D02*
X023698Y004331D01*
X023748Y004233D02*
X023598Y004233D01*
X023499Y004134D02*
X023846Y004134D01*
X024039Y004036D02*
X023306Y004036D01*
X023039Y004036D02*
X022948Y004036D01*
X024306Y004036D02*
X025039Y004036D01*
X024846Y004134D02*
X024499Y004134D01*
X024598Y004233D02*
X024748Y004233D01*
X024698Y004331D02*
X024648Y004331D01*
D15*
X021673Y008043D03*
X019173Y009543D03*
D16*
X015173Y007543D02*
X015163Y007543D01*
X014573Y006953D01*
M02*
