G75*
%MOIN*%
%OFA0B0*%
%FSLAX24Y24*%
%IPPOS*%
%LPD*%
%AMOC8*
5,1,8,0,0,1.08239X$1,22.5*
%
%ADD10C,0.0000*%
%ADD11C,0.0030*%
%ADD12C,0.0040*%
%ADD13C,0.0080*%
D10*
X001423Y003543D02*
X001423Y005293D01*
X005423Y005293D01*
X005423Y008793D01*
X002423Y008793D01*
X002423Y009793D01*
X001423Y009793D01*
X001423Y011539D01*
X001423Y011543D01*
X001423Y011539D02*
X029082Y011539D01*
X029082Y003543D01*
X001423Y003543D01*
X022543Y007543D02*
X022545Y007593D01*
X022551Y007643D01*
X022561Y007692D01*
X022575Y007740D01*
X022592Y007787D01*
X022613Y007832D01*
X022638Y007876D01*
X022666Y007917D01*
X022698Y007956D01*
X022732Y007993D01*
X022769Y008027D01*
X022809Y008057D01*
X022851Y008084D01*
X022895Y008108D01*
X022941Y008129D01*
X022988Y008145D01*
X023036Y008158D01*
X023086Y008167D01*
X023135Y008172D01*
X023186Y008173D01*
X023236Y008170D01*
X023285Y008163D01*
X023334Y008152D01*
X023382Y008137D01*
X023428Y008119D01*
X023473Y008097D01*
X023516Y008071D01*
X023557Y008042D01*
X023596Y008010D01*
X023632Y007975D01*
X023664Y007937D01*
X023694Y007897D01*
X023721Y007854D01*
X023744Y007810D01*
X023763Y007764D01*
X023779Y007716D01*
X023791Y007667D01*
X023799Y007618D01*
X023803Y007568D01*
X023803Y007518D01*
X023799Y007468D01*
X023791Y007419D01*
X023779Y007370D01*
X023763Y007322D01*
X023744Y007276D01*
X023721Y007232D01*
X023694Y007189D01*
X023664Y007149D01*
X023632Y007111D01*
X023596Y007076D01*
X023557Y007044D01*
X023516Y007015D01*
X023473Y006989D01*
X023428Y006967D01*
X023382Y006949D01*
X023334Y006934D01*
X023285Y006923D01*
X023236Y006916D01*
X023186Y006913D01*
X023135Y006914D01*
X023086Y006919D01*
X023036Y006928D01*
X022988Y006941D01*
X022941Y006957D01*
X022895Y006978D01*
X022851Y007002D01*
X022809Y007029D01*
X022769Y007059D01*
X022732Y007093D01*
X022698Y007130D01*
X022666Y007169D01*
X022638Y007210D01*
X022613Y007254D01*
X022592Y007299D01*
X022575Y007346D01*
X022561Y007394D01*
X022551Y007443D01*
X022545Y007493D01*
X022543Y007543D01*
D11*
X022611Y011138D02*
X022514Y011235D01*
X022514Y011428D01*
X022413Y011428D02*
X022220Y011428D01*
X022316Y011428D02*
X022316Y011138D01*
X022413Y011235D01*
X022514Y011283D02*
X022708Y011283D01*
X022708Y011235D02*
X022611Y011138D01*
X022708Y011235D02*
X022708Y011428D01*
X022925Y011428D02*
X023119Y011428D01*
X022925Y011235D01*
X022925Y011186D01*
X022973Y011138D01*
X023070Y011138D01*
X023119Y011186D01*
X023316Y011138D02*
X023316Y011428D01*
X023220Y011428D02*
X023413Y011428D01*
X023514Y011428D02*
X023514Y011235D01*
X023611Y011138D01*
X023708Y011235D01*
X023708Y011428D01*
X023708Y011283D02*
X023514Y011283D01*
X023413Y011235D02*
X023316Y011138D01*
X023925Y011428D02*
X024119Y011428D01*
X024022Y011428D02*
X024022Y011138D01*
X024119Y011235D01*
X024316Y011138D02*
X024316Y011428D01*
X024220Y011428D02*
X024413Y011428D01*
X024514Y011428D02*
X024514Y011235D01*
X024611Y011138D01*
X024708Y011235D01*
X024708Y011428D01*
X024708Y011283D02*
X024514Y011283D01*
X024413Y011235D02*
X024316Y011138D01*
X024925Y011186D02*
X025119Y011380D01*
X025070Y011428D01*
X024973Y011428D01*
X024925Y011380D01*
X024925Y011186D01*
X024973Y011138D01*
X025070Y011138D01*
X025119Y011186D01*
X025119Y011380D01*
X025220Y011428D02*
X025413Y011428D01*
X025316Y011428D02*
X025316Y011138D01*
X025413Y011235D01*
X025514Y011235D02*
X025514Y011428D01*
X025514Y011283D02*
X025708Y011283D01*
X025708Y011235D02*
X025611Y011138D01*
X025514Y011235D01*
X025708Y011235D02*
X025708Y011428D01*
X022119Y011380D02*
X022070Y011428D01*
X021973Y011428D01*
X021925Y011380D01*
X021925Y011332D01*
X021973Y011283D01*
X022022Y011283D01*
X021973Y011283D02*
X021925Y011235D01*
X021925Y011186D01*
X021973Y011138D01*
X022070Y011138D01*
X022119Y011186D01*
X021708Y011138D02*
X021563Y011138D01*
X021514Y011186D01*
X021514Y011283D01*
X021563Y011332D01*
X021708Y011332D01*
X021708Y011428D02*
X021708Y011138D01*
X021413Y011138D02*
X021268Y011138D01*
X021220Y011186D01*
X021220Y011283D01*
X021268Y011332D01*
X021413Y011332D01*
X021413Y011428D02*
X021413Y011138D01*
X021316Y011332D02*
X021220Y011428D01*
X021119Y011380D02*
X021070Y011428D01*
X020973Y011428D01*
X020925Y011380D01*
X020925Y011283D01*
X021022Y011283D01*
X021119Y011186D02*
X021119Y011380D01*
X021119Y011186D02*
X021070Y011138D01*
X020973Y011138D01*
X020925Y011186D01*
X020808Y011235D02*
X020711Y011138D01*
X020614Y011235D01*
X020614Y011428D01*
X020513Y011428D02*
X020513Y011138D01*
X020368Y011138D01*
X020320Y011186D01*
X020320Y011283D01*
X020368Y011332D01*
X020513Y011332D01*
X020416Y011332D02*
X020320Y011428D01*
X020219Y011428D02*
X020025Y011428D01*
X019924Y011428D02*
X019924Y011138D01*
X019730Y011138D01*
X019608Y011235D02*
X019511Y011138D01*
X019414Y011235D01*
X019414Y011428D01*
X019313Y011428D02*
X019120Y011428D01*
X019216Y011428D02*
X019216Y011138D01*
X019313Y011235D01*
X019414Y011283D02*
X019608Y011283D01*
X019608Y011235D02*
X019608Y011428D01*
X019827Y011283D02*
X019924Y011283D01*
X020025Y011138D02*
X020219Y011138D01*
X020219Y011428D01*
X020219Y011283D02*
X020122Y011283D01*
X020614Y011283D02*
X020808Y011283D01*
X020808Y011235D02*
X020808Y011428D01*
X019019Y011283D02*
X018825Y011283D01*
X018708Y011332D02*
X018611Y011428D01*
X018514Y011332D01*
X018514Y011138D01*
X018413Y011138D02*
X018413Y011380D01*
X018365Y011428D01*
X018268Y011428D01*
X018220Y011380D01*
X018220Y011138D01*
X018119Y011186D02*
X018119Y011235D01*
X018070Y011283D01*
X017973Y011283D01*
X017925Y011332D01*
X017925Y011380D01*
X017973Y011428D01*
X018070Y011428D01*
X018119Y011380D01*
X018119Y011186D02*
X018070Y011138D01*
X017973Y011138D01*
X017925Y011186D01*
X017824Y011138D02*
X017679Y011138D01*
X017630Y011186D01*
X017630Y011235D01*
X017679Y011283D01*
X017824Y011283D01*
X017824Y011428D02*
X017824Y011138D01*
X017679Y011283D02*
X017630Y011332D01*
X017630Y011380D01*
X017679Y011428D01*
X017824Y011428D01*
X017408Y011380D02*
X017359Y011428D01*
X017263Y011428D01*
X017214Y011380D01*
X017214Y011283D01*
X017311Y011283D01*
X017214Y011186D02*
X017263Y011138D01*
X017359Y011138D01*
X017408Y011186D01*
X017408Y011380D01*
X017113Y011428D02*
X017113Y011138D01*
X016920Y011428D01*
X016920Y011138D01*
X016819Y011138D02*
X016673Y011138D01*
X016625Y011186D01*
X016625Y011380D01*
X016673Y011428D01*
X016819Y011428D01*
X016819Y011138D01*
X016508Y011138D02*
X016508Y011332D01*
X016411Y011428D01*
X016314Y011332D01*
X016314Y011138D01*
X016213Y011138D02*
X016068Y011138D01*
X016020Y011186D01*
X016020Y011235D01*
X016068Y011283D01*
X016213Y011283D01*
X016213Y011428D02*
X016213Y011138D01*
X016068Y011283D02*
X016020Y011332D01*
X016020Y011380D01*
X016068Y011428D01*
X016213Y011428D01*
X015919Y011428D02*
X015919Y011235D01*
X015822Y011138D01*
X015725Y011235D01*
X015725Y011428D01*
X015725Y011283D02*
X015919Y011283D01*
X015624Y011138D02*
X015430Y011138D01*
X015527Y011138D02*
X015527Y011428D01*
X015308Y011428D02*
X015114Y011428D01*
X015211Y011428D02*
X015211Y011138D01*
X015308Y011235D01*
X015013Y011186D02*
X014965Y011138D01*
X014868Y011138D01*
X014820Y011186D01*
X014820Y011235D01*
X014868Y011283D01*
X014820Y011332D01*
X014820Y011380D01*
X014868Y011428D01*
X014965Y011428D01*
X015013Y011380D01*
X014916Y011283D02*
X014868Y011283D01*
X014308Y011283D02*
X014114Y011283D01*
X014114Y011235D02*
X014114Y011428D01*
X014013Y011380D02*
X013820Y011186D01*
X013820Y011380D01*
X013868Y011428D01*
X013965Y011428D01*
X014013Y011380D01*
X014013Y011186D01*
X013965Y011138D01*
X013868Y011138D01*
X013820Y011186D01*
X014114Y011235D02*
X014211Y011138D01*
X014308Y011235D01*
X014308Y011428D01*
X013308Y011428D02*
X013308Y011235D01*
X013211Y011138D01*
X013114Y011235D01*
X013114Y011428D01*
X013013Y011428D02*
X012820Y011428D01*
X012916Y011428D02*
X012916Y011138D01*
X013013Y011235D01*
X013114Y011283D02*
X013308Y011283D01*
X012308Y011283D02*
X012114Y011283D01*
X012114Y011235D02*
X012114Y011428D01*
X012013Y011428D02*
X011820Y011235D01*
X011820Y011186D01*
X011868Y011138D01*
X011965Y011138D01*
X012013Y011186D01*
X012114Y011235D02*
X012211Y011138D01*
X012308Y011235D01*
X012308Y011428D01*
X012013Y011428D02*
X011820Y011428D01*
X011308Y011428D02*
X011308Y011235D01*
X011211Y011138D01*
X011114Y011235D01*
X011114Y011428D01*
X011013Y011380D02*
X010965Y011428D01*
X010868Y011428D01*
X010820Y011380D01*
X010820Y011332D01*
X010868Y011283D01*
X010916Y011283D01*
X010868Y011283D02*
X010820Y011235D01*
X010820Y011186D01*
X010868Y011138D01*
X010965Y011138D01*
X011013Y011186D01*
X011114Y011283D02*
X011308Y011283D01*
X010308Y011283D02*
X010114Y011283D01*
X010114Y011235D02*
X010114Y011428D01*
X010013Y011283D02*
X009820Y011283D01*
X009868Y011138D02*
X010013Y011283D01*
X010114Y011235D02*
X010211Y011138D01*
X010308Y011235D01*
X010308Y011428D01*
X009868Y011428D02*
X009868Y011138D01*
X009308Y011235D02*
X009211Y011138D01*
X009114Y011235D01*
X009114Y011428D01*
X009013Y011380D02*
X008965Y011428D01*
X008868Y011428D01*
X008820Y011380D01*
X008820Y011283D01*
X008868Y011235D01*
X008916Y011235D01*
X009013Y011283D01*
X009013Y011138D01*
X008820Y011138D01*
X009114Y011283D02*
X009308Y011283D01*
X009308Y011235D02*
X009308Y011428D01*
X008308Y011428D02*
X008308Y011235D01*
X008211Y011138D01*
X008114Y011235D01*
X008114Y011428D01*
X008013Y011380D02*
X007965Y011428D01*
X007868Y011428D01*
X007820Y011380D01*
X007820Y011332D01*
X007868Y011283D01*
X008013Y011283D01*
X008013Y011380D01*
X008013Y011283D02*
X007916Y011186D01*
X007820Y011138D01*
X008114Y011283D02*
X008308Y011283D01*
X007408Y011283D02*
X007214Y011283D01*
X007214Y011235D02*
X007214Y011428D01*
X007113Y011428D02*
X007113Y011380D01*
X006920Y011186D01*
X006920Y011138D01*
X007113Y011138D01*
X007214Y011235D02*
X007311Y011138D01*
X007408Y011235D01*
X007408Y011428D01*
X006408Y011428D02*
X006408Y011235D01*
X006311Y011138D01*
X006214Y011235D01*
X006214Y011428D01*
X006113Y011380D02*
X006113Y011332D01*
X006065Y011283D01*
X005968Y011283D01*
X005920Y011332D01*
X005920Y011380D01*
X005968Y011428D01*
X006065Y011428D01*
X006113Y011380D01*
X006065Y011283D02*
X006113Y011235D01*
X006113Y011186D01*
X006065Y011138D01*
X005968Y011138D01*
X005920Y011186D01*
X005920Y011235D01*
X005968Y011283D01*
X006214Y011283D02*
X006408Y011283D01*
X005408Y011283D02*
X005214Y011283D01*
X005214Y011235D02*
X005214Y011428D01*
X005113Y011380D02*
X005065Y011428D01*
X004968Y011428D01*
X004920Y011380D01*
X004920Y011186D01*
X004968Y011138D01*
X005065Y011138D01*
X005113Y011186D01*
X005113Y011235D01*
X005065Y011283D01*
X004920Y011283D01*
X004708Y011186D02*
X004659Y011138D01*
X004563Y011138D01*
X004514Y011186D01*
X004514Y011235D01*
X004563Y011283D01*
X004514Y011332D01*
X004514Y011380D01*
X004563Y011428D01*
X004659Y011428D01*
X004708Y011380D01*
X004611Y011283D02*
X004563Y011283D01*
X004413Y011332D02*
X004413Y011138D01*
X004220Y011138D02*
X004220Y011332D01*
X004316Y011428D01*
X004413Y011332D01*
X004119Y011380D02*
X004070Y011428D01*
X003973Y011428D01*
X003925Y011380D01*
X003925Y011332D01*
X003973Y011283D01*
X004022Y011283D01*
X003973Y011283D02*
X003925Y011235D01*
X003925Y011186D01*
X003973Y011138D01*
X004070Y011138D01*
X004119Y011186D01*
X003708Y011235D02*
X003611Y011138D01*
X003514Y011235D01*
X003514Y011428D01*
X003413Y011380D02*
X003365Y011428D01*
X003268Y011428D01*
X003220Y011380D01*
X003220Y011283D01*
X003316Y011283D01*
X003220Y011186D02*
X003268Y011138D01*
X003365Y011138D01*
X003413Y011186D01*
X003413Y011380D01*
X003514Y011283D02*
X003708Y011283D01*
X003708Y011235D02*
X003708Y011428D01*
X003119Y011428D02*
X003119Y011138D01*
X002925Y011428D01*
X002925Y011138D01*
X002824Y011138D02*
X002679Y011138D01*
X002630Y011186D01*
X002630Y011380D01*
X002679Y011428D01*
X002824Y011428D01*
X002824Y011138D01*
X002408Y011138D02*
X002408Y011332D01*
X002311Y011428D01*
X002214Y011332D01*
X002214Y011138D01*
X002113Y011138D02*
X002016Y011138D01*
X002065Y011138D02*
X002065Y011428D01*
X002113Y011428D02*
X002016Y011428D01*
X001917Y011428D02*
X001917Y011138D01*
X001723Y011428D01*
X001723Y011138D01*
X005214Y011235D02*
X005311Y011138D01*
X005408Y011235D01*
X005408Y011428D01*
X018708Y011332D02*
X018708Y011138D01*
X018873Y011138D02*
X019019Y011283D01*
X018873Y011428D02*
X018873Y011138D01*
X018936Y003949D02*
X018888Y003900D01*
X018936Y003949D02*
X019033Y003949D01*
X019081Y003900D01*
X019081Y003852D01*
X018888Y003658D01*
X019081Y003658D01*
X019182Y003658D02*
X019182Y003707D01*
X019376Y003900D01*
X019376Y003949D01*
X019182Y003949D01*
X019888Y003900D02*
X019936Y003949D01*
X020033Y003949D01*
X020081Y003900D01*
X020081Y003852D01*
X019888Y003658D01*
X020081Y003658D01*
X020182Y003707D02*
X020182Y003755D01*
X020231Y003803D01*
X020328Y003803D01*
X020376Y003755D01*
X020376Y003707D01*
X020328Y003658D01*
X020231Y003658D01*
X020182Y003707D01*
X020231Y003803D02*
X020182Y003852D01*
X020182Y003900D01*
X020231Y003949D01*
X020328Y003949D01*
X020376Y003900D01*
X020376Y003852D01*
X020328Y003803D01*
X020888Y003900D02*
X020936Y003949D01*
X021033Y003949D01*
X021081Y003900D01*
X021081Y003852D01*
X020888Y003658D01*
X021081Y003658D01*
X021182Y003707D02*
X021231Y003658D01*
X021328Y003658D01*
X021376Y003707D01*
X021376Y003900D01*
X021328Y003949D01*
X021231Y003949D01*
X021182Y003900D01*
X021182Y003852D01*
X021231Y003803D01*
X021376Y003803D01*
X021888Y003707D02*
X021936Y003658D01*
X022033Y003658D01*
X022081Y003707D01*
X022081Y003755D01*
X022033Y003803D01*
X021985Y003803D01*
X022033Y003803D02*
X022081Y003852D01*
X022081Y003900D01*
X022033Y003949D01*
X021936Y003949D01*
X021888Y003900D01*
X022182Y003900D02*
X022231Y003949D01*
X022328Y003949D01*
X022376Y003900D01*
X022182Y003707D01*
X022231Y003658D01*
X022328Y003658D01*
X022376Y003707D01*
X022376Y003900D01*
X022182Y003900D02*
X022182Y003707D01*
X022888Y003707D02*
X022936Y003658D01*
X023033Y003658D01*
X023081Y003707D01*
X023081Y003755D01*
X023033Y003803D01*
X022985Y003803D01*
X023033Y003803D02*
X023081Y003852D01*
X023081Y003900D01*
X023033Y003949D01*
X022936Y003949D01*
X022888Y003900D01*
X023182Y003852D02*
X023279Y003949D01*
X023279Y003658D01*
X023182Y003658D02*
X023376Y003658D01*
X023888Y003707D02*
X023936Y003658D01*
X024033Y003658D01*
X024081Y003707D01*
X024081Y003755D01*
X024033Y003803D01*
X023985Y003803D01*
X024033Y003803D02*
X024081Y003852D01*
X024081Y003900D01*
X024033Y003949D01*
X023936Y003949D01*
X023888Y003900D01*
X024182Y003900D02*
X024231Y003949D01*
X024328Y003949D01*
X024376Y003900D01*
X024376Y003852D01*
X024182Y003658D01*
X024376Y003658D01*
X024988Y003707D02*
X025036Y003658D01*
X025133Y003658D01*
X025181Y003707D01*
X025181Y003755D01*
X025133Y003803D01*
X025085Y003803D01*
X025133Y003803D02*
X025181Y003852D01*
X025181Y003900D01*
X025133Y003949D01*
X025036Y003949D01*
X024988Y003900D01*
X025282Y003900D02*
X025331Y003949D01*
X025428Y003949D01*
X025476Y003900D01*
X025476Y003852D01*
X025428Y003803D01*
X025476Y003755D01*
X025476Y003707D01*
X025428Y003658D01*
X025331Y003658D01*
X025282Y003707D01*
X025379Y003803D02*
X025428Y003803D01*
X018376Y003707D02*
X018376Y003755D01*
X018328Y003803D01*
X018182Y003803D01*
X018182Y003707D01*
X018231Y003658D01*
X018328Y003658D01*
X018376Y003707D01*
X018279Y003900D02*
X018182Y003803D01*
X018081Y003852D02*
X018081Y003900D01*
X018033Y003949D01*
X017936Y003949D01*
X017888Y003900D01*
X018081Y003852D02*
X017888Y003658D01*
X018081Y003658D01*
X018279Y003900D02*
X018376Y003949D01*
X017376Y003949D02*
X017182Y003949D01*
X017182Y003803D01*
X017279Y003852D01*
X017328Y003852D01*
X017376Y003803D01*
X017376Y003707D01*
X017328Y003658D01*
X017231Y003658D01*
X017182Y003707D01*
X017081Y003658D02*
X016888Y003658D01*
X017081Y003852D01*
X017081Y003900D01*
X017033Y003949D01*
X016936Y003949D01*
X016888Y003900D01*
X016376Y003803D02*
X016182Y003803D01*
X016328Y003949D01*
X016328Y003658D01*
X016081Y003658D02*
X015888Y003658D01*
X016081Y003852D01*
X016081Y003900D01*
X016033Y003949D01*
X015936Y003949D01*
X015888Y003900D01*
X015376Y003900D02*
X015376Y003852D01*
X015182Y003658D01*
X015376Y003658D01*
X015081Y003658D02*
X014888Y003658D01*
X014985Y003658D02*
X014985Y003949D01*
X014888Y003852D01*
X015182Y003900D02*
X015231Y003949D01*
X015328Y003949D01*
X015376Y003900D01*
X014376Y003658D02*
X014182Y003658D01*
X014279Y003658D02*
X014279Y003949D01*
X014182Y003852D01*
X014081Y003658D02*
X013888Y003658D01*
X013985Y003658D02*
X013985Y003949D01*
X013888Y003852D01*
X013376Y003900D02*
X013182Y003707D01*
X013231Y003658D01*
X013328Y003658D01*
X013376Y003707D01*
X013376Y003900D01*
X013328Y003949D01*
X013231Y003949D01*
X013182Y003900D01*
X013182Y003707D01*
X013081Y003658D02*
X012888Y003658D01*
X012985Y003658D02*
X012985Y003949D01*
X012888Y003852D01*
X012281Y003900D02*
X012281Y003707D01*
X012233Y003658D01*
X012136Y003658D01*
X012088Y003707D01*
X012136Y003803D02*
X012281Y003803D01*
X012281Y003900D02*
X012233Y003949D01*
X012136Y003949D01*
X012088Y003900D01*
X012088Y003852D01*
X012136Y003803D01*
X011281Y003755D02*
X011281Y003707D01*
X011233Y003658D01*
X011136Y003658D01*
X011088Y003707D01*
X011088Y003755D01*
X011136Y003803D01*
X011233Y003803D01*
X011281Y003755D01*
X011233Y003803D02*
X011281Y003852D01*
X011281Y003900D01*
X011233Y003949D01*
X011136Y003949D01*
X011088Y003900D01*
X011088Y003852D01*
X011136Y003803D01*
X010281Y003900D02*
X010088Y003707D01*
X010088Y003658D01*
X010088Y003949D02*
X010281Y003949D01*
X010281Y003900D01*
X009281Y003949D02*
X009185Y003900D01*
X009088Y003803D01*
X009233Y003803D01*
X009281Y003755D01*
X009281Y003707D01*
X009233Y003658D01*
X009136Y003658D01*
X009088Y003707D01*
X009088Y003803D01*
X008281Y003803D02*
X008281Y003707D01*
X008233Y003658D01*
X008136Y003658D01*
X008088Y003707D01*
X008088Y003803D02*
X008185Y003852D01*
X008233Y003852D01*
X008281Y003803D01*
X008281Y003949D02*
X008088Y003949D01*
X008088Y003803D01*
X007281Y003803D02*
X007088Y003803D01*
X007233Y003949D01*
X007233Y003658D01*
X006281Y003707D02*
X006233Y003658D01*
X006136Y003658D01*
X006088Y003707D01*
X006185Y003803D02*
X006233Y003803D01*
X006281Y003755D01*
X006281Y003707D01*
X006233Y003803D02*
X006281Y003852D01*
X006281Y003900D01*
X006233Y003949D01*
X006136Y003949D01*
X006088Y003900D01*
X005281Y003900D02*
X005281Y003852D01*
X005088Y003658D01*
X005281Y003658D01*
X005281Y003900D02*
X005233Y003949D01*
X005136Y003949D01*
X005088Y003900D01*
X004281Y003658D02*
X004088Y003658D01*
X004185Y003658D02*
X004185Y003949D01*
X004088Y003852D01*
X003281Y003900D02*
X003281Y003707D01*
X003233Y003658D01*
X003136Y003658D01*
X003088Y003707D01*
X003281Y003900D01*
X003233Y003949D01*
X003136Y003949D01*
X003088Y003900D01*
X003088Y003707D01*
X002521Y003707D02*
X002521Y003900D01*
X002472Y003949D01*
X002327Y003949D01*
X002327Y003658D01*
X002472Y003658D01*
X002521Y003707D01*
X002226Y003658D02*
X002226Y003949D01*
X002032Y003949D02*
X002226Y003658D01*
X002032Y003658D02*
X002032Y003949D01*
X001931Y003900D02*
X001883Y003949D01*
X001786Y003949D01*
X001738Y003900D01*
X001738Y003707D01*
X001786Y003658D01*
X001883Y003658D01*
X001931Y003707D01*
X001931Y003803D01*
X001835Y003803D01*
D12*
X016296Y008563D02*
X016296Y008874D01*
X016193Y008874D02*
X016400Y008874D01*
X016515Y008874D02*
X016515Y008563D01*
X016722Y008563D01*
X016837Y008563D02*
X017044Y008563D01*
X017160Y008563D02*
X017160Y008874D01*
X017367Y008563D01*
X017367Y008874D01*
X017482Y008822D02*
X017482Y008770D01*
X017534Y008718D01*
X017637Y008718D01*
X017689Y008667D01*
X017689Y008615D01*
X017637Y008563D01*
X017534Y008563D01*
X017482Y008615D01*
X016941Y008718D02*
X016837Y008718D01*
X016837Y008563D02*
X016837Y008874D01*
X017044Y008874D01*
X016722Y008874D02*
X016515Y008874D01*
X016515Y008718D02*
X016619Y008718D01*
X017482Y008822D02*
X017534Y008874D01*
X017637Y008874D01*
X017689Y008822D01*
X017804Y008822D02*
X017908Y008718D01*
X017908Y008563D01*
X017908Y008718D02*
X018011Y008822D01*
X018011Y008874D01*
X017804Y008874D02*
X017804Y008822D01*
X018449Y008822D02*
X018500Y008874D01*
X018604Y008874D01*
X018656Y008822D01*
X018656Y008770D01*
X018604Y008718D01*
X018656Y008667D01*
X018656Y008615D01*
X018604Y008563D01*
X018500Y008563D01*
X018449Y008615D01*
X018552Y008718D02*
X018604Y008718D01*
X018771Y008615D02*
X018823Y008615D01*
X018823Y008563D01*
X018771Y008563D01*
X018771Y008615D01*
X018932Y008563D02*
X019139Y008563D01*
X019036Y008563D02*
X019036Y008874D01*
X018932Y008770D01*
X019577Y008874D02*
X019784Y008874D01*
X019680Y008874D02*
X019680Y008563D01*
X019899Y008615D02*
X019951Y008563D01*
X020054Y008563D01*
X020106Y008615D01*
X020106Y008822D01*
X020054Y008874D01*
X019951Y008874D01*
X019899Y008822D01*
X019899Y008615D01*
X020544Y008563D02*
X020544Y008874D01*
X020699Y008874D01*
X020750Y008822D01*
X020750Y008770D01*
X020699Y008718D01*
X020544Y008718D01*
X020699Y008718D02*
X020750Y008667D01*
X020750Y008615D01*
X020699Y008563D01*
X020544Y008563D01*
X020866Y008563D02*
X020866Y008874D01*
X021021Y008874D01*
X021073Y008822D01*
X021073Y008718D01*
X021021Y008667D01*
X020866Y008667D01*
X020969Y008667D02*
X021073Y008563D01*
X021188Y008563D02*
X021395Y008563D01*
X021510Y008563D02*
X021510Y008770D01*
X021614Y008874D01*
X021717Y008770D01*
X021717Y008563D01*
X021833Y008563D02*
X021988Y008563D01*
X022039Y008615D01*
X022039Y008822D01*
X021988Y008874D01*
X021833Y008874D01*
X021833Y008563D01*
X021717Y008718D02*
X021510Y008718D01*
X021395Y008874D02*
X021188Y008874D01*
X021188Y008563D01*
X021188Y008718D02*
X021292Y008718D01*
X022155Y008718D02*
X022310Y008718D01*
X022362Y008667D01*
X022362Y008615D01*
X022310Y008563D01*
X022155Y008563D01*
X022155Y008874D01*
X022310Y008874D01*
X022362Y008822D01*
X022362Y008770D01*
X022310Y008718D01*
X022477Y008615D02*
X022529Y008563D01*
X022632Y008563D01*
X022684Y008615D01*
X022684Y008822D01*
X022632Y008874D01*
X022529Y008874D01*
X022477Y008822D01*
X022477Y008615D01*
X022799Y008563D02*
X022799Y008770D01*
X022903Y008874D01*
X023006Y008770D01*
X023006Y008563D01*
X023122Y008563D02*
X023122Y008874D01*
X023277Y008874D01*
X023329Y008822D01*
X023329Y008718D01*
X023277Y008667D01*
X023122Y008667D01*
X023225Y008667D02*
X023329Y008563D01*
X023444Y008563D02*
X023599Y008563D01*
X023651Y008615D01*
X023651Y008822D01*
X023599Y008874D01*
X023444Y008874D01*
X023444Y008563D01*
X023006Y008718D02*
X022799Y008718D01*
X028593Y008363D02*
X028593Y008260D01*
X028644Y008208D01*
X028851Y008208D01*
X028644Y008415D01*
X028851Y008415D01*
X028903Y008363D01*
X028903Y008260D01*
X028851Y008208D01*
X028903Y008092D02*
X028903Y007886D01*
X028696Y008092D01*
X028644Y008092D01*
X028593Y008041D01*
X028593Y007937D01*
X028644Y007886D01*
X028644Y007770D02*
X028593Y007718D01*
X028593Y007615D01*
X028644Y007563D01*
X028696Y007770D02*
X028903Y007563D01*
X028903Y007770D01*
X028696Y007770D02*
X028644Y007770D01*
X028903Y007448D02*
X028903Y007241D01*
X028903Y007344D02*
X028593Y007344D01*
X028696Y007241D01*
X028748Y007126D02*
X028799Y007074D01*
X028799Y006919D01*
X028799Y007022D02*
X028903Y007126D01*
X028748Y007126D02*
X028644Y007126D01*
X028593Y007074D01*
X028593Y006919D01*
X028903Y006919D01*
X028851Y006803D02*
X028903Y006752D01*
X028903Y006648D01*
X028851Y006596D01*
X028644Y006596D01*
X028593Y006648D01*
X028593Y006752D01*
X028644Y006803D01*
X028593Y008363D02*
X028644Y008415D01*
D13*
X028873Y009043D02*
X028889Y009092D01*
X028903Y009143D01*
X028912Y009194D01*
X028917Y009246D01*
X028919Y009298D01*
X028917Y009350D01*
X028911Y009401D01*
X028900Y009453D01*
X028887Y009503D01*
X028869Y009552D01*
X028848Y009599D01*
X028823Y009645D01*
X028795Y009689D01*
X028764Y009731D01*
X028730Y009770D01*
X028693Y009806D01*
X028653Y009840D01*
X028611Y009871D01*
X028567Y009898D01*
X028521Y009922D01*
X028473Y009943D01*
X025473Y009943D01*
X024273Y008743D01*
X024273Y006343D01*
X025473Y005143D01*
X028473Y005143D01*
X028521Y005164D01*
X028567Y005188D01*
X028611Y005215D01*
X028653Y005246D01*
X028693Y005280D01*
X028730Y005316D01*
X028764Y005355D01*
X028795Y005397D01*
X028823Y005441D01*
X028848Y005487D01*
X028869Y005534D01*
X028887Y005583D01*
X028900Y005633D01*
X028911Y005685D01*
X028917Y005736D01*
X028919Y005788D01*
X028917Y005840D01*
X028912Y005892D01*
X028903Y005943D01*
X028889Y005994D01*
X028873Y006043D01*
X025673Y004793D02*
X025423Y005043D01*
X024923Y005043D01*
X024673Y004793D01*
X024423Y005043D01*
X023923Y005043D01*
X023673Y004793D01*
X023423Y005043D01*
X022923Y005043D01*
X022673Y004793D01*
X022423Y005043D01*
X021923Y005043D01*
X021673Y004793D01*
X021423Y005043D01*
X020923Y005043D01*
X020673Y004793D01*
X020423Y005043D01*
X019923Y005043D01*
X019673Y004793D01*
X019423Y005043D01*
X018923Y005043D01*
X018673Y004793D01*
X018423Y005043D01*
X017923Y005043D01*
X017673Y004793D01*
X017423Y005043D01*
X016923Y005043D01*
X016673Y004793D01*
X016423Y005043D01*
X015923Y005043D01*
X015673Y004793D01*
X015423Y005043D01*
X014923Y005043D01*
X014673Y004793D01*
X014423Y005043D01*
X013923Y005043D01*
X013673Y004793D01*
X013423Y005043D01*
X012923Y005043D01*
X012673Y004793D01*
X012423Y005043D01*
X011923Y005043D01*
X011673Y004793D01*
X011423Y005043D01*
X010923Y005043D01*
X010673Y004793D01*
X010423Y005043D01*
X009923Y005043D01*
X009673Y004793D01*
X009423Y005043D01*
X008923Y005043D01*
X008673Y004793D01*
X008423Y005043D01*
X007923Y005043D01*
X007673Y004793D01*
X007423Y005043D01*
X006923Y005043D01*
X006673Y004793D01*
X006423Y005043D01*
X005923Y005043D01*
X005673Y004793D01*
X005423Y005043D01*
X004923Y005043D01*
X004673Y004793D01*
X004423Y005043D01*
X003923Y005043D01*
X003673Y004793D01*
X003423Y005043D01*
X002923Y005043D01*
X002673Y004793D01*
X002423Y005043D01*
X001923Y005043D01*
X001673Y004793D01*
X001673Y004293D01*
X001923Y004043D01*
X002423Y004043D01*
X002673Y004293D01*
X002923Y004043D01*
X003423Y004043D01*
X003673Y004293D01*
X003923Y004043D01*
X004423Y004043D01*
X004673Y004293D01*
X004923Y004043D01*
X005423Y004043D01*
X005673Y004293D01*
X005923Y004043D01*
X006423Y004043D01*
X006673Y004293D01*
X006923Y004043D01*
X007423Y004043D01*
X007673Y004293D01*
X007923Y004043D01*
X008423Y004043D01*
X008673Y004293D01*
X008923Y004043D01*
X009423Y004043D01*
X009673Y004293D01*
X009923Y004043D01*
X010423Y004043D01*
X010673Y004293D01*
X010923Y004043D01*
X011423Y004043D01*
X011673Y004293D01*
X011923Y004043D01*
X012423Y004043D01*
X012673Y004293D01*
X012923Y004043D01*
X013423Y004043D01*
X013673Y004293D01*
X013923Y004043D01*
X014423Y004043D01*
X014673Y004293D01*
X014923Y004043D01*
X015423Y004043D01*
X015673Y004293D01*
X015673Y004793D01*
X015673Y004293D01*
X015923Y004043D01*
X016423Y004043D01*
X016673Y004293D01*
X016923Y004043D01*
X017423Y004043D01*
X017673Y004293D01*
X017923Y004043D01*
X018423Y004043D01*
X018673Y004293D01*
X018923Y004043D01*
X019423Y004043D01*
X019673Y004293D01*
X019923Y004043D01*
X020423Y004043D01*
X020673Y004293D01*
X020923Y004043D01*
X021423Y004043D01*
X021673Y004293D01*
X021923Y004043D01*
X022423Y004043D01*
X022673Y004293D01*
X022923Y004043D01*
X023423Y004043D01*
X023673Y004293D01*
X023923Y004043D01*
X024423Y004043D01*
X024673Y004293D01*
X024923Y004043D01*
X025423Y004043D01*
X025673Y004293D01*
X025673Y004793D01*
X028873Y006043D02*
X028811Y006108D01*
X028751Y006176D01*
X028695Y006246D01*
X028641Y006318D01*
X028591Y006393D01*
X028544Y006470D01*
X028500Y006548D01*
X028459Y006629D01*
X028422Y006711D01*
X028389Y006794D01*
X028359Y006879D01*
X028332Y006965D01*
X028310Y007052D01*
X028291Y007140D01*
X028275Y007229D01*
X028264Y007318D01*
X028256Y007408D01*
X028252Y007498D01*
X028252Y007588D01*
X028256Y007678D01*
X028264Y007768D01*
X028275Y007857D01*
X028291Y007946D01*
X028310Y008034D01*
X028332Y008121D01*
X028359Y008207D01*
X028389Y008292D01*
X028422Y008375D01*
X028459Y008457D01*
X028500Y008538D01*
X028544Y008616D01*
X028591Y008693D01*
X028641Y008768D01*
X028695Y008840D01*
X028751Y008910D01*
X028811Y008978D01*
X028873Y009043D01*
X025673Y010293D02*
X025423Y010043D01*
X024923Y010043D01*
X024673Y010293D01*
X024423Y010043D01*
X023923Y010043D01*
X023673Y010293D01*
X023423Y010043D01*
X022923Y010043D01*
X022673Y010293D01*
X022423Y010043D01*
X021923Y010043D01*
X021673Y010293D01*
X021423Y010043D01*
X020923Y010043D01*
X020673Y010293D01*
X020423Y010043D01*
X019923Y010043D01*
X019673Y010293D01*
X019423Y010043D01*
X018923Y010043D01*
X018673Y010293D01*
X018423Y010043D01*
X017923Y010043D01*
X017673Y010293D01*
X017423Y010043D01*
X016923Y010043D01*
X016673Y010293D01*
X016423Y010043D01*
X015923Y010043D01*
X015673Y010293D01*
X015673Y010793D01*
X015923Y011043D01*
X016423Y011043D01*
X016673Y010793D01*
X016923Y011043D01*
X017423Y011043D01*
X017673Y010793D01*
X017923Y011043D01*
X018423Y011043D01*
X018673Y010793D01*
X018923Y011043D01*
X019423Y011043D01*
X019673Y010793D01*
X019923Y011043D01*
X020423Y011043D01*
X020673Y010793D01*
X020923Y011043D01*
X021423Y011043D01*
X021673Y010793D01*
X021923Y011043D01*
X022423Y011043D01*
X022673Y010793D01*
X022923Y011043D01*
X023423Y011043D01*
X023673Y010793D01*
X023923Y011043D01*
X024423Y011043D01*
X024673Y010793D01*
X024923Y011043D01*
X025423Y011043D01*
X025673Y010793D01*
X025673Y010293D01*
X015673Y010293D02*
X015423Y010043D01*
X014923Y010043D01*
X014673Y010293D01*
X014423Y010043D01*
X013923Y010043D01*
X013673Y010293D01*
X013423Y010043D01*
X012923Y010043D01*
X012673Y010293D01*
X012423Y010043D01*
X011923Y010043D01*
X011673Y010293D01*
X011423Y010043D01*
X010923Y010043D01*
X010673Y010293D01*
X010423Y010043D01*
X009923Y010043D01*
X009673Y010293D01*
X009423Y010043D01*
X008923Y010043D01*
X008673Y010293D01*
X008423Y010043D01*
X007923Y010043D01*
X007673Y010293D01*
X007423Y010043D01*
X007673Y009793D01*
X007673Y009293D01*
X007423Y009043D01*
X006923Y009043D01*
X006673Y009293D01*
X006423Y009043D01*
X005923Y009043D01*
X005673Y009293D01*
X005423Y009043D01*
X004923Y009043D01*
X004673Y009293D01*
X004423Y009043D01*
X003923Y009043D01*
X003673Y009293D01*
X003423Y009043D01*
X002923Y009043D01*
X002673Y009293D01*
X002673Y009793D01*
X002923Y010043D01*
X003423Y010043D01*
X003673Y009793D01*
X003923Y010043D01*
X004423Y010043D01*
X004673Y009793D01*
X004923Y010043D01*
X005423Y010043D01*
X005673Y009793D01*
X005923Y010043D01*
X006423Y010043D01*
X006673Y009793D01*
X006923Y010043D01*
X007423Y010043D01*
X006923Y010043D01*
X006673Y010293D01*
X006423Y010043D01*
X005923Y010043D01*
X005673Y010293D01*
X005423Y010043D01*
X004923Y010043D01*
X004673Y010293D01*
X004423Y010043D01*
X003923Y010043D01*
X003673Y010293D01*
X003423Y010043D01*
X002923Y010043D01*
X002673Y010293D01*
X002423Y010043D01*
X001923Y010043D01*
X001673Y010293D01*
X001673Y010793D01*
X001923Y011043D01*
X002423Y011043D01*
X002673Y010793D01*
X002923Y011043D01*
X003423Y011043D01*
X003673Y010793D01*
X003923Y011043D01*
X004423Y011043D01*
X004673Y010793D01*
X004923Y011043D01*
X005423Y011043D01*
X005673Y010793D01*
X005923Y011043D01*
X006423Y011043D01*
X006673Y010793D01*
X006923Y011043D01*
X007423Y011043D01*
X007673Y010793D01*
X007923Y011043D01*
X008423Y011043D01*
X008673Y010793D01*
X008923Y011043D01*
X009423Y011043D01*
X009673Y010793D01*
X009923Y011043D01*
X010423Y011043D01*
X010673Y010793D01*
X010923Y011043D01*
X011423Y011043D01*
X011673Y010793D01*
X011923Y011043D01*
X012423Y011043D01*
X012673Y010793D01*
X012923Y011043D01*
X013423Y011043D01*
X013673Y010793D01*
X013923Y011043D01*
X014423Y011043D01*
X014673Y010793D01*
X014923Y011043D01*
X015423Y011043D01*
X015673Y010793D01*
X015673Y010293D01*
X015423Y010043D02*
X014923Y010043D01*
X014673Y009793D01*
X014673Y009293D01*
X014923Y009043D01*
X014673Y008793D01*
X014673Y008293D01*
X014923Y008043D01*
X014673Y007793D01*
X014673Y007293D01*
X014923Y007043D01*
X014673Y006793D01*
X014673Y006293D01*
X014923Y006043D01*
X014673Y005793D01*
X014673Y005293D01*
X014923Y005043D01*
X015423Y005043D01*
X015673Y005293D01*
X015673Y005793D01*
X015423Y006043D01*
X015673Y006293D01*
X015673Y006793D01*
X015423Y007043D01*
X015673Y007293D01*
X015673Y007793D01*
X015423Y008043D01*
X015673Y008293D01*
X015673Y008793D01*
X015423Y009043D01*
X015673Y009293D01*
X015673Y009793D01*
X015423Y010043D01*
X014423Y009043D02*
X013923Y009043D01*
X013673Y008793D01*
X013423Y009043D01*
X012923Y009043D01*
X012673Y008793D01*
X012423Y009043D01*
X011923Y009043D01*
X011673Y008793D01*
X011423Y009043D01*
X010923Y009043D01*
X010673Y008793D01*
X010423Y009043D01*
X009923Y009043D01*
X009673Y008793D01*
X009423Y009043D01*
X008923Y009043D01*
X008673Y008793D01*
X008423Y009043D01*
X007923Y009043D01*
X007673Y008793D01*
X007673Y008293D01*
X007923Y008043D01*
X007673Y007793D01*
X007673Y007293D01*
X007923Y007043D01*
X008423Y007043D01*
X008673Y007293D01*
X008923Y007043D01*
X009423Y007043D01*
X009673Y007293D01*
X009923Y007043D01*
X010423Y007043D01*
X010673Y007293D01*
X010923Y007043D01*
X011423Y007043D01*
X011673Y007293D01*
X011923Y007043D01*
X012423Y007043D01*
X012673Y007293D01*
X012923Y007043D01*
X013423Y007043D01*
X013673Y007293D01*
X013923Y007043D01*
X014423Y007043D01*
X014673Y007293D01*
X014673Y007793D01*
X014423Y008043D01*
X013923Y008043D01*
X013673Y007793D01*
X013423Y008043D01*
X012923Y008043D01*
X012673Y007793D01*
X012423Y008043D01*
X011923Y008043D01*
X011673Y007793D01*
X011423Y008043D01*
X010923Y008043D01*
X010673Y007793D01*
X010423Y008043D01*
X009923Y008043D01*
X009673Y007793D01*
X009423Y008043D01*
X008923Y008043D01*
X008673Y007793D01*
X008423Y008043D01*
X007923Y008043D01*
X008423Y008043D01*
X008673Y008293D01*
X008923Y008043D01*
X009423Y008043D01*
X009673Y008293D01*
X009923Y008043D01*
X010423Y008043D01*
X010673Y008293D01*
X010923Y008043D01*
X011423Y008043D01*
X011673Y008293D01*
X011923Y008043D01*
X012423Y008043D01*
X012673Y008293D01*
X012923Y008043D01*
X013423Y008043D01*
X013673Y008293D01*
X013923Y008043D01*
X014423Y008043D01*
X014673Y008293D01*
X014673Y008793D01*
X014423Y009043D01*
M02*
