G75*
G70*
%OFA0B0*%
%FSLAX24Y24*%
%IPPOS*%
%LPD*%
%AMOC8*
5,1,8,0,0,1.08239X$1,22.5*
%
%ADD10C,0.0000*%
%ADD11C,0.0030*%
%ADD12C,0.0020*%
%ADD13C,0.0010*%
%ADD14C,0.0080*%
D10*
X000300Y002893D02*
X000300Y004643D01*
X004050Y004643D01*
X004300Y004643D01*
X004300Y008143D01*
X002050Y008143D01*
X001300Y008143D01*
X001300Y009143D01*
X000300Y009143D01*
X000300Y010889D01*
X000300Y010893D01*
X000300Y010889D02*
X026670Y010889D01*
X026670Y002893D01*
X000300Y002893D01*
D11*
X000615Y003057D02*
X000663Y003008D01*
X000760Y003008D01*
X000808Y003057D01*
X000808Y003153D01*
X000712Y003153D01*
X000615Y003057D02*
X000615Y003250D01*
X000663Y003299D01*
X000760Y003299D01*
X000808Y003250D01*
X000910Y003299D02*
X001103Y003008D01*
X001103Y003299D01*
X001204Y003299D02*
X001349Y003299D01*
X001398Y003250D01*
X001398Y003057D01*
X001349Y003008D01*
X001204Y003008D01*
X001204Y003299D01*
X000910Y003299D02*
X000910Y003008D01*
X001965Y003057D02*
X002158Y003250D01*
X002158Y003057D01*
X002110Y003008D01*
X002013Y003008D01*
X001965Y003057D01*
X001965Y003250D01*
X002013Y003299D01*
X002110Y003299D01*
X002158Y003250D01*
X002965Y003202D02*
X003062Y003299D01*
X003062Y003008D01*
X003158Y003008D02*
X002965Y003008D01*
X003965Y003008D02*
X004158Y003202D01*
X004158Y003250D01*
X004110Y003299D01*
X004013Y003299D01*
X003965Y003250D01*
X003965Y003008D02*
X004158Y003008D01*
X004965Y003057D02*
X005013Y003008D01*
X005110Y003008D01*
X005158Y003057D01*
X005158Y003105D01*
X005110Y003153D01*
X005062Y003153D01*
X005110Y003153D02*
X005158Y003202D01*
X005158Y003250D01*
X005110Y003299D01*
X005013Y003299D01*
X004965Y003250D01*
X005965Y003153D02*
X006158Y003153D01*
X006110Y003008D02*
X006110Y003299D01*
X005965Y003153D01*
X006965Y003153D02*
X007062Y003202D01*
X007110Y003202D01*
X007158Y003153D01*
X007158Y003057D01*
X007110Y003008D01*
X007013Y003008D01*
X006965Y003057D01*
X006965Y003153D02*
X006965Y003299D01*
X007158Y003299D01*
X007965Y003153D02*
X007965Y003057D01*
X008013Y003008D01*
X008110Y003008D01*
X008158Y003057D01*
X008158Y003105D01*
X008110Y003153D01*
X007965Y003153D01*
X008062Y003250D01*
X008158Y003299D01*
X008965Y003299D02*
X009158Y003299D01*
X009158Y003250D01*
X008965Y003057D01*
X008965Y003008D01*
X009965Y003057D02*
X009965Y003105D01*
X010013Y003153D01*
X010110Y003153D01*
X010158Y003105D01*
X010158Y003057D01*
X010110Y003008D01*
X010013Y003008D01*
X009965Y003057D01*
X010013Y003153D02*
X009965Y003202D01*
X009965Y003250D01*
X010013Y003299D01*
X010110Y003299D01*
X010158Y003250D01*
X010158Y003202D01*
X010110Y003153D01*
X010965Y003202D02*
X011013Y003153D01*
X011158Y003153D01*
X011158Y003057D02*
X011158Y003250D01*
X011110Y003299D01*
X011013Y003299D01*
X010965Y003250D01*
X010965Y003202D01*
X010965Y003057D02*
X011013Y003008D01*
X011110Y003008D01*
X011158Y003057D01*
X011765Y003008D02*
X011958Y003008D01*
X011862Y003008D02*
X011862Y003299D01*
X011765Y003202D01*
X012060Y003250D02*
X012060Y003057D01*
X012253Y003250D01*
X012253Y003057D01*
X012205Y003008D01*
X012108Y003008D01*
X012060Y003057D01*
X012060Y003250D02*
X012108Y003299D01*
X012205Y003299D01*
X012253Y003250D01*
X012765Y003202D02*
X012862Y003299D01*
X012862Y003008D01*
X012958Y003008D02*
X012765Y003008D01*
X013060Y003008D02*
X013253Y003008D01*
X013156Y003008D02*
X013156Y003299D01*
X013060Y003202D01*
X013765Y003202D02*
X013862Y003299D01*
X013862Y003008D01*
X013958Y003008D02*
X013765Y003008D01*
X014060Y003008D02*
X014253Y003202D01*
X014253Y003250D01*
X014205Y003299D01*
X014108Y003299D01*
X014060Y003250D01*
X014060Y003008D02*
X014253Y003008D01*
X014765Y003008D02*
X014958Y003202D01*
X014958Y003250D01*
X014910Y003299D01*
X014813Y003299D01*
X014765Y003250D01*
X015060Y003153D02*
X015253Y003153D01*
X015205Y003008D02*
X015205Y003299D01*
X015060Y003153D01*
X014958Y003008D02*
X014765Y003008D01*
X015765Y003008D02*
X015958Y003202D01*
X015958Y003250D01*
X015910Y003299D01*
X015813Y003299D01*
X015765Y003250D01*
X016060Y003299D02*
X016060Y003153D01*
X016156Y003202D01*
X016205Y003202D01*
X016253Y003153D01*
X016253Y003057D01*
X016205Y003008D01*
X016108Y003008D01*
X016060Y003057D01*
X015958Y003008D02*
X015765Y003008D01*
X016060Y003299D02*
X016253Y003299D01*
X016765Y003250D02*
X016813Y003299D01*
X016910Y003299D01*
X016958Y003250D01*
X016958Y003202D01*
X016765Y003008D01*
X016958Y003008D01*
X017060Y003057D02*
X017060Y003153D01*
X017205Y003153D01*
X017253Y003105D01*
X017253Y003057D01*
X017205Y003008D01*
X017108Y003008D01*
X017060Y003057D01*
X017060Y003153D02*
X017156Y003250D01*
X017253Y003299D01*
X017765Y003250D02*
X017813Y003299D01*
X017910Y003299D01*
X017958Y003250D01*
X017958Y003202D01*
X017765Y003008D01*
X017958Y003008D01*
X018060Y003008D02*
X018060Y003057D01*
X018253Y003250D01*
X018253Y003299D01*
X018060Y003299D01*
X018765Y003250D02*
X018813Y003299D01*
X018910Y003299D01*
X018958Y003250D01*
X018958Y003202D01*
X018765Y003008D01*
X018958Y003008D01*
X019060Y003057D02*
X019060Y003105D01*
X019108Y003153D01*
X019205Y003153D01*
X019253Y003105D01*
X019253Y003057D01*
X019205Y003008D01*
X019108Y003008D01*
X019060Y003057D01*
X019108Y003153D02*
X019060Y003202D01*
X019060Y003250D01*
X019108Y003299D01*
X019205Y003299D01*
X019253Y003250D01*
X019253Y003202D01*
X019205Y003153D01*
X019765Y003250D02*
X019813Y003299D01*
X019910Y003299D01*
X019958Y003250D01*
X019958Y003202D01*
X019765Y003008D01*
X019958Y003008D01*
X020060Y003057D02*
X020108Y003008D01*
X020205Y003008D01*
X020253Y003057D01*
X020253Y003250D01*
X020205Y003299D01*
X020108Y003299D01*
X020060Y003250D01*
X020060Y003202D01*
X020108Y003153D01*
X020253Y003153D01*
X020765Y003057D02*
X020813Y003008D01*
X020910Y003008D01*
X020958Y003057D01*
X020958Y003105D01*
X020910Y003153D01*
X020862Y003153D01*
X020910Y003153D02*
X020958Y003202D01*
X020958Y003250D01*
X020910Y003299D01*
X020813Y003299D01*
X020765Y003250D01*
X021060Y003250D02*
X021108Y003299D01*
X021205Y003299D01*
X021253Y003250D01*
X021060Y003057D01*
X021108Y003008D01*
X021205Y003008D01*
X021253Y003057D01*
X021253Y003250D01*
X021060Y003250D02*
X021060Y003057D01*
X021765Y003057D02*
X021813Y003008D01*
X021910Y003008D01*
X021958Y003057D01*
X021958Y003105D01*
X021910Y003153D01*
X021862Y003153D01*
X021910Y003153D02*
X021958Y003202D01*
X021958Y003250D01*
X021910Y003299D01*
X021813Y003299D01*
X021765Y003250D01*
X022060Y003202D02*
X022156Y003299D01*
X022156Y003008D01*
X022060Y003008D02*
X022253Y003008D01*
X022765Y003057D02*
X022813Y003008D01*
X022910Y003008D01*
X022958Y003057D01*
X022958Y003105D01*
X022910Y003153D01*
X022862Y003153D01*
X022910Y003153D02*
X022958Y003202D01*
X022958Y003250D01*
X022910Y003299D01*
X022813Y003299D01*
X022765Y003250D01*
X023060Y003250D02*
X023108Y003299D01*
X023205Y003299D01*
X023253Y003250D01*
X023253Y003202D01*
X023060Y003008D01*
X023253Y003008D01*
X023865Y003057D02*
X023913Y003008D01*
X024010Y003008D01*
X024058Y003057D01*
X024058Y003105D01*
X024010Y003153D01*
X023962Y003153D01*
X024010Y003153D02*
X024058Y003202D01*
X024058Y003250D01*
X024010Y003299D01*
X023913Y003299D01*
X023865Y003250D01*
X024160Y003250D02*
X024208Y003299D01*
X024305Y003299D01*
X024353Y003250D01*
X024353Y003202D01*
X024305Y003153D01*
X024353Y003105D01*
X024353Y003057D01*
X024305Y003008D01*
X024208Y003008D01*
X024160Y003057D01*
X024256Y003153D02*
X024305Y003153D01*
X020835Y004782D02*
X020465Y004782D01*
X020465Y004905D02*
X020465Y004658D01*
X020465Y005027D02*
X020835Y005027D01*
X020650Y005027D02*
X020650Y005273D01*
X020650Y005395D02*
X020650Y005642D01*
X020588Y005642D02*
X020835Y005642D01*
X020835Y005763D02*
X020465Y005763D01*
X020835Y006010D01*
X020465Y006010D01*
X020588Y006132D02*
X020465Y006255D01*
X020588Y006378D01*
X020835Y006378D01*
X020650Y006378D02*
X020650Y006132D01*
X020588Y006132D02*
X020835Y006132D01*
X020465Y006500D02*
X020465Y006747D01*
X020465Y006623D02*
X020835Y006623D01*
X020773Y006868D02*
X020526Y006868D01*
X020465Y006930D01*
X020465Y007053D01*
X020526Y007115D01*
X020773Y007115D01*
X020835Y007053D01*
X020835Y006930D01*
X020773Y006868D01*
X020773Y007237D02*
X020835Y007298D01*
X020835Y007422D01*
X020773Y007483D01*
X020712Y007483D01*
X020650Y007422D01*
X020650Y007298D01*
X020588Y007237D01*
X020526Y007237D01*
X020465Y007298D01*
X020465Y007422D01*
X020526Y007483D01*
X020588Y005642D02*
X020465Y005518D01*
X020588Y005395D01*
X020835Y005395D01*
X020835Y005273D02*
X020465Y005273D01*
X016890Y007758D02*
X016890Y008049D01*
X016794Y008049D02*
X016987Y008049D01*
X016692Y008049D02*
X016499Y008049D01*
X016499Y007758D01*
X016692Y007758D01*
X016596Y007903D02*
X016499Y007903D01*
X016398Y007855D02*
X016398Y007807D01*
X016349Y007758D01*
X016253Y007758D01*
X016204Y007807D01*
X016253Y007903D02*
X016204Y007952D01*
X016204Y008000D01*
X016253Y008049D01*
X016349Y008049D01*
X016398Y008000D01*
X016349Y007903D02*
X016398Y007855D01*
X016349Y007903D02*
X016253Y007903D01*
X016103Y007758D02*
X015910Y007758D01*
X015910Y008049D01*
X016103Y008049D01*
X016006Y007903D02*
X015910Y007903D01*
X015808Y007903D02*
X015760Y007855D01*
X015615Y007855D01*
X015615Y007758D02*
X015615Y008049D01*
X015760Y008049D01*
X015808Y008000D01*
X015808Y007903D01*
X015712Y007855D02*
X015808Y007758D01*
X015797Y010488D02*
X015797Y010778D01*
X015990Y010488D01*
X015990Y010778D01*
X016092Y010730D02*
X016140Y010778D01*
X016237Y010778D01*
X016285Y010730D01*
X016285Y010536D01*
X016237Y010488D01*
X016140Y010488D01*
X016092Y010536D01*
X016092Y010633D02*
X016188Y010633D01*
X016092Y010633D02*
X016092Y010730D01*
X015696Y010778D02*
X015696Y010488D01*
X015551Y010488D01*
X015502Y010536D01*
X015502Y010730D01*
X015551Y010778D01*
X015696Y010778D01*
X015385Y010682D02*
X015288Y010778D01*
X015192Y010682D01*
X015192Y010488D01*
X015090Y010488D02*
X014945Y010488D01*
X014897Y010536D01*
X014897Y010585D01*
X014945Y010633D01*
X015090Y010633D01*
X014945Y010633D02*
X014897Y010682D01*
X014897Y010730D01*
X014945Y010778D01*
X015090Y010778D01*
X015090Y010488D01*
X015385Y010488D02*
X015385Y010682D01*
X014796Y010633D02*
X014602Y010633D01*
X014602Y010585D02*
X014602Y010778D01*
X014796Y010778D02*
X014796Y010585D01*
X014699Y010488D01*
X014602Y010585D01*
X014501Y010488D02*
X014308Y010488D01*
X014404Y010488D02*
X014404Y010778D01*
X014185Y010778D02*
X013992Y010778D01*
X014088Y010778D02*
X014088Y010488D01*
X014185Y010585D01*
X013890Y010536D02*
X013842Y010488D01*
X013745Y010488D01*
X013697Y010536D01*
X013697Y010585D01*
X013745Y010633D01*
X013697Y010682D01*
X013697Y010730D01*
X013745Y010778D01*
X013842Y010778D01*
X013890Y010730D01*
X013794Y010633D02*
X013745Y010633D01*
X013185Y010633D02*
X012992Y010633D01*
X012992Y010585D02*
X012992Y010778D01*
X012890Y010730D02*
X012697Y010536D01*
X012697Y010730D01*
X012745Y010778D01*
X012842Y010778D01*
X012890Y010730D01*
X012890Y010536D01*
X012842Y010488D01*
X012745Y010488D01*
X012697Y010536D01*
X012992Y010585D02*
X013088Y010488D01*
X013185Y010585D01*
X013185Y010778D01*
X012185Y010778D02*
X012185Y010585D01*
X012088Y010488D01*
X011992Y010585D01*
X011992Y010778D01*
X011890Y010778D02*
X011697Y010778D01*
X011794Y010778D02*
X011794Y010488D01*
X011890Y010585D01*
X011992Y010633D02*
X012185Y010633D01*
X011185Y010633D02*
X010992Y010633D01*
X010992Y010585D02*
X010992Y010778D01*
X010890Y010778D02*
X010697Y010585D01*
X010697Y010536D01*
X010745Y010488D01*
X010842Y010488D01*
X010890Y010536D01*
X010992Y010585D02*
X011088Y010488D01*
X011185Y010585D01*
X011185Y010778D01*
X010890Y010778D02*
X010697Y010778D01*
X010185Y010778D02*
X010185Y010585D01*
X010088Y010488D01*
X009992Y010585D01*
X009992Y010778D01*
X009890Y010730D02*
X009842Y010778D01*
X009745Y010778D01*
X009697Y010730D01*
X009697Y010682D01*
X009745Y010633D01*
X009794Y010633D01*
X009745Y010633D02*
X009697Y010585D01*
X009697Y010536D01*
X009745Y010488D01*
X009842Y010488D01*
X009890Y010536D01*
X009992Y010633D02*
X010185Y010633D01*
X009185Y010633D02*
X008992Y010633D01*
X008992Y010585D02*
X008992Y010778D01*
X008890Y010633D02*
X008697Y010633D01*
X008745Y010488D02*
X008890Y010633D01*
X008992Y010585D02*
X009088Y010488D01*
X009185Y010585D01*
X009185Y010778D01*
X008745Y010778D02*
X008745Y010488D01*
X008185Y010585D02*
X008185Y010778D01*
X008185Y010633D02*
X007992Y010633D01*
X007992Y010585D02*
X007992Y010778D01*
X007890Y010730D02*
X007842Y010778D01*
X007745Y010778D01*
X007697Y010730D01*
X007697Y010633D01*
X007745Y010585D01*
X007794Y010585D01*
X007890Y010633D01*
X007890Y010488D01*
X007697Y010488D01*
X007992Y010585D02*
X008088Y010488D01*
X008185Y010585D01*
X007185Y010585D02*
X007088Y010488D01*
X006992Y010585D01*
X006992Y010778D01*
X006890Y010730D02*
X006842Y010778D01*
X006745Y010778D01*
X006697Y010730D01*
X006697Y010682D01*
X006745Y010633D01*
X006890Y010633D01*
X006890Y010730D01*
X006890Y010633D02*
X006794Y010536D01*
X006697Y010488D01*
X006285Y010585D02*
X006188Y010488D01*
X006092Y010585D01*
X006092Y010778D01*
X005990Y010778D02*
X005990Y010730D01*
X005797Y010536D01*
X005797Y010488D01*
X005990Y010488D01*
X006092Y010633D02*
X006285Y010633D01*
X006285Y010585D02*
X006285Y010778D01*
X006992Y010633D02*
X007185Y010633D01*
X007185Y010585D02*
X007185Y010778D01*
X005285Y010778D02*
X005285Y010585D01*
X005188Y010488D01*
X005092Y010585D01*
X005092Y010778D01*
X004990Y010730D02*
X004990Y010682D01*
X004942Y010633D01*
X004845Y010633D01*
X004797Y010682D01*
X004797Y010730D01*
X004845Y010778D01*
X004942Y010778D01*
X004990Y010730D01*
X004942Y010633D02*
X004990Y010585D01*
X004990Y010536D01*
X004942Y010488D01*
X004845Y010488D01*
X004797Y010536D01*
X004797Y010585D01*
X004845Y010633D01*
X005092Y010633D02*
X005285Y010633D01*
X004285Y010633D02*
X004092Y010633D01*
X004092Y010585D02*
X004092Y010778D01*
X003990Y010730D02*
X003942Y010778D01*
X003845Y010778D01*
X003797Y010730D01*
X003797Y010536D01*
X003845Y010488D01*
X003942Y010488D01*
X003990Y010536D01*
X003990Y010585D01*
X003942Y010633D01*
X003797Y010633D01*
X003585Y010536D02*
X003537Y010488D01*
X003440Y010488D01*
X003392Y010536D01*
X003392Y010585D01*
X003440Y010633D01*
X003392Y010682D01*
X003392Y010730D01*
X003440Y010778D01*
X003537Y010778D01*
X003585Y010730D01*
X003488Y010633D02*
X003440Y010633D01*
X003290Y010682D02*
X003290Y010488D01*
X003097Y010488D02*
X003097Y010682D01*
X003194Y010778D01*
X003290Y010682D01*
X002996Y010730D02*
X002947Y010778D01*
X002851Y010778D01*
X002802Y010730D01*
X002802Y010682D01*
X002851Y010633D01*
X002899Y010633D01*
X002851Y010633D02*
X002802Y010585D01*
X002802Y010536D01*
X002851Y010488D01*
X002947Y010488D01*
X002996Y010536D01*
X002585Y010585D02*
X002488Y010488D01*
X002392Y010585D01*
X002392Y010778D01*
X002290Y010730D02*
X002242Y010778D01*
X002145Y010778D01*
X002097Y010730D01*
X002097Y010633D01*
X002194Y010633D01*
X002290Y010536D02*
X002290Y010730D01*
X002392Y010633D02*
X002585Y010633D01*
X002585Y010585D02*
X002585Y010778D01*
X002290Y010536D02*
X002242Y010488D01*
X002145Y010488D01*
X002097Y010536D01*
X001996Y010488D02*
X001802Y010778D01*
X001802Y010488D01*
X001701Y010488D02*
X001556Y010488D01*
X001508Y010536D01*
X001508Y010730D01*
X001556Y010778D01*
X001701Y010778D01*
X001701Y010488D01*
X001996Y010488D02*
X001996Y010778D01*
X001285Y010682D02*
X001285Y010488D01*
X001092Y010488D02*
X001092Y010682D01*
X001188Y010778D01*
X001285Y010682D01*
X000990Y010778D02*
X000894Y010778D01*
X000942Y010778D02*
X000942Y010488D01*
X000990Y010488D02*
X000894Y010488D01*
X000794Y010488D02*
X000600Y010778D01*
X000600Y010488D01*
X000794Y010488D02*
X000794Y010778D01*
X004092Y010585D02*
X004188Y010488D01*
X004285Y010585D01*
X004285Y010778D01*
X016508Y010730D02*
X016556Y010778D01*
X016701Y010778D01*
X016701Y010488D01*
X016556Y010488D01*
X016508Y010536D01*
X016508Y010585D01*
X016556Y010633D01*
X016701Y010633D01*
X016802Y010682D02*
X016802Y010730D01*
X016851Y010778D01*
X016947Y010778D01*
X016996Y010730D01*
X017097Y010730D02*
X017097Y010488D01*
X016996Y010536D02*
X016996Y010585D01*
X016947Y010633D01*
X016851Y010633D01*
X016802Y010682D01*
X016802Y010536D02*
X016851Y010488D01*
X016947Y010488D01*
X016996Y010536D01*
X017097Y010730D02*
X017145Y010778D01*
X017242Y010778D01*
X017290Y010730D01*
X017290Y010488D01*
X017392Y010488D02*
X017392Y010682D01*
X017488Y010778D01*
X017585Y010682D01*
X017585Y010488D01*
X017702Y010488D02*
X017896Y010488D01*
X017799Y010488D02*
X017799Y010778D01*
X017997Y010730D02*
X018045Y010778D01*
X018142Y010778D01*
X018190Y010730D01*
X018142Y010633D02*
X018190Y010585D01*
X018190Y010536D01*
X018142Y010488D01*
X018045Y010488D01*
X017997Y010536D01*
X018045Y010633D02*
X017997Y010682D01*
X017997Y010730D01*
X018045Y010633D02*
X018142Y010633D01*
X018292Y010633D02*
X018292Y010536D01*
X018340Y010488D01*
X018485Y010488D01*
X018485Y010778D01*
X018485Y010682D02*
X018340Y010682D01*
X018292Y010633D01*
X018388Y010682D02*
X018292Y010778D01*
X018704Y010633D02*
X018801Y010633D01*
X018801Y010488D02*
X018608Y010488D01*
X018801Y010488D02*
X018801Y010778D01*
X018902Y010778D02*
X019096Y010778D01*
X019096Y010488D01*
X018902Y010488D01*
X018999Y010633D02*
X019096Y010633D01*
X019197Y010633D02*
X019245Y010682D01*
X019390Y010682D01*
X019390Y010778D02*
X019390Y010488D01*
X019245Y010488D01*
X019197Y010536D01*
X019197Y010633D01*
X019294Y010682D02*
X019197Y010778D01*
X019492Y010778D02*
X019492Y010585D01*
X019588Y010488D01*
X019685Y010585D01*
X019685Y010778D01*
X019802Y010730D02*
X019802Y010633D01*
X019899Y010633D01*
X019996Y010536D02*
X019996Y010730D01*
X019947Y010778D01*
X019851Y010778D01*
X019802Y010730D01*
X019685Y010633D02*
X019492Y010633D01*
X019802Y010536D02*
X019851Y010488D01*
X019947Y010488D01*
X019996Y010536D01*
X020097Y010536D02*
X020097Y010633D01*
X020145Y010682D01*
X020290Y010682D01*
X020290Y010778D02*
X020290Y010488D01*
X020145Y010488D01*
X020097Y010536D01*
X020194Y010682D02*
X020097Y010778D01*
X020392Y010633D02*
X020440Y010682D01*
X020585Y010682D01*
X020585Y010778D02*
X020585Y010488D01*
X020440Y010488D01*
X020392Y010536D01*
X020392Y010633D01*
X020802Y010585D02*
X020851Y010633D01*
X020802Y010682D01*
X020802Y010730D01*
X020851Y010778D01*
X020947Y010778D01*
X020996Y010730D01*
X021097Y010778D02*
X021290Y010778D01*
X021194Y010778D02*
X021194Y010488D01*
X021290Y010585D01*
X021392Y010585D02*
X021392Y010778D01*
X021392Y010633D02*
X021585Y010633D01*
X021585Y010585D02*
X021488Y010488D01*
X021392Y010585D01*
X021585Y010585D02*
X021585Y010778D01*
X021802Y010778D02*
X021996Y010778D01*
X021802Y010585D01*
X021802Y010536D01*
X021851Y010488D01*
X021947Y010488D01*
X021996Y010536D01*
X022194Y010488D02*
X022194Y010778D01*
X022290Y010778D02*
X022097Y010778D01*
X022392Y010778D02*
X022392Y010585D01*
X022488Y010488D01*
X022585Y010585D01*
X022585Y010778D01*
X022585Y010633D02*
X022392Y010633D01*
X022290Y010585D02*
X022194Y010488D01*
X022802Y010778D02*
X022996Y010778D01*
X022899Y010778D02*
X022899Y010488D01*
X022996Y010585D01*
X023194Y010488D02*
X023194Y010778D01*
X023290Y010778D02*
X023097Y010778D01*
X023392Y010778D02*
X023392Y010585D01*
X023488Y010488D01*
X023585Y010585D01*
X023585Y010778D01*
X023585Y010633D02*
X023392Y010633D01*
X023290Y010585D02*
X023194Y010488D01*
X023802Y010536D02*
X023996Y010730D01*
X023947Y010778D01*
X023851Y010778D01*
X023802Y010730D01*
X023802Y010536D01*
X023851Y010488D01*
X023947Y010488D01*
X023996Y010536D01*
X023996Y010730D01*
X024097Y010778D02*
X024290Y010778D01*
X024194Y010778D02*
X024194Y010488D01*
X024290Y010585D01*
X024392Y010585D02*
X024392Y010778D01*
X024392Y010633D02*
X024585Y010633D01*
X024585Y010585D02*
X024488Y010488D01*
X024392Y010585D01*
X024585Y010585D02*
X024585Y010778D01*
X020996Y010536D02*
X020947Y010488D01*
X020851Y010488D01*
X020802Y010536D01*
X020802Y010585D01*
X020851Y010633D02*
X020899Y010633D01*
X016556Y010633D02*
X016508Y010682D01*
X016508Y010730D01*
D12*
X021193Y007120D02*
X021193Y007010D01*
X021230Y006974D01*
X021303Y006974D01*
X021340Y007010D01*
X021340Y007120D01*
X021377Y007120D02*
X021193Y007120D01*
X021377Y007120D02*
X021413Y007084D01*
X021413Y007047D01*
X021340Y006899D02*
X021267Y006826D01*
X021267Y006863D02*
X021267Y006753D01*
X021340Y006753D02*
X021120Y006753D01*
X021120Y006863D01*
X021157Y006899D01*
X021230Y006899D01*
X021267Y006863D01*
X021267Y006678D02*
X021230Y006642D01*
X021230Y006532D01*
X021193Y006458D02*
X021193Y006347D01*
X021230Y006311D01*
X021303Y006311D01*
X021340Y006347D01*
X021340Y006458D01*
X021340Y006532D02*
X021340Y006642D01*
X021303Y006678D01*
X021267Y006678D01*
X021230Y006642D02*
X021193Y006678D01*
X021157Y006678D01*
X021120Y006642D01*
X021120Y006532D01*
X021340Y006532D01*
X021303Y006237D02*
X021340Y006200D01*
X021340Y006126D01*
X021303Y006090D01*
X021267Y006090D01*
X021230Y006126D01*
X021230Y006200D01*
X021267Y006237D01*
X021303Y006237D01*
X021230Y006200D02*
X021193Y006237D01*
X021157Y006237D01*
X021120Y006200D01*
X021120Y006126D01*
X021157Y006090D01*
X021193Y006090D01*
X021230Y006126D01*
X021120Y006016D02*
X021340Y006016D01*
X021193Y005942D02*
X021120Y006016D01*
X021193Y005942D02*
X021120Y005869D01*
X021340Y005869D01*
X021340Y005648D02*
X021120Y005795D01*
X021230Y005574D02*
X021193Y005537D01*
X021193Y005463D01*
X021230Y005427D01*
X021303Y005427D01*
X021340Y005463D01*
X021340Y005537D01*
X021303Y005574D01*
X021230Y005574D01*
X021340Y005353D02*
X021340Y005279D01*
X021340Y005316D02*
X021193Y005316D01*
X021193Y005279D01*
X021120Y005316D02*
X021083Y005316D01*
X021303Y005206D02*
X021340Y005206D01*
X021340Y005169D01*
X021303Y005169D01*
X021303Y005206D01*
X021340Y005095D02*
X021303Y005058D01*
X021157Y005058D01*
X021193Y005022D02*
X021193Y005095D01*
X021193Y004911D02*
X021340Y004911D01*
X021340Y004874D02*
X021340Y004948D01*
X021340Y004800D02*
X021340Y004690D01*
X021303Y004653D01*
X021230Y004653D01*
X021193Y004690D01*
X021193Y004800D01*
X021377Y004800D01*
X021413Y004763D01*
X021413Y004727D01*
X021193Y004874D02*
X021193Y004911D01*
X021120Y004911D02*
X021083Y004911D01*
D13*
X020845Y007898D02*
X020695Y007898D01*
X020695Y007973D01*
X020720Y007998D01*
X020770Y007998D01*
X020795Y007973D01*
X020795Y007898D01*
X020795Y007948D02*
X020845Y007998D01*
X020845Y008046D02*
X020845Y008146D01*
X020795Y008193D02*
X020845Y008243D01*
X020795Y008293D01*
X020695Y008293D01*
X020695Y008193D02*
X020795Y008193D01*
X020770Y008096D02*
X020770Y008046D01*
X020695Y008046D02*
X020845Y008046D01*
X020695Y008046D02*
X020695Y008146D01*
X020820Y008340D02*
X020820Y008365D01*
X020845Y008365D01*
X020845Y008340D01*
X020820Y008340D01*
X020820Y008561D02*
X020720Y008661D01*
X020820Y008661D01*
X020845Y008636D01*
X020845Y008586D01*
X020820Y008561D01*
X020720Y008561D01*
X020695Y008586D01*
X020695Y008636D01*
X020720Y008661D01*
X020720Y008709D02*
X020695Y008734D01*
X020695Y008784D01*
X020720Y008809D01*
X020820Y008709D01*
X020845Y008734D01*
X020845Y008784D01*
X020820Y008809D01*
X020720Y008809D01*
X020720Y008856D02*
X020695Y008881D01*
X020695Y008931D01*
X020720Y008956D01*
X020745Y008956D01*
X020770Y008931D01*
X020795Y008956D01*
X020820Y008956D01*
X020845Y008931D01*
X020845Y008881D01*
X020820Y008856D01*
X020770Y008906D02*
X020770Y008931D01*
X020770Y009003D02*
X020770Y009103D01*
X020820Y009151D02*
X020720Y009251D01*
X020820Y009251D01*
X020845Y009226D01*
X020845Y009176D01*
X020820Y009151D01*
X020720Y009151D01*
X020695Y009176D01*
X020695Y009226D01*
X020720Y009251D01*
X020720Y008709D02*
X020820Y008709D01*
X019402Y008248D02*
X019402Y008098D01*
X019352Y008098D02*
X019452Y008098D01*
X019352Y008198D02*
X019402Y008248D01*
X019305Y008223D02*
X019280Y008248D01*
X019230Y008248D01*
X019205Y008223D01*
X019205Y008198D01*
X019230Y008173D01*
X019280Y008173D01*
X019305Y008148D01*
X019305Y008123D01*
X019280Y008098D01*
X019230Y008098D01*
X019205Y008123D01*
D14*
X019050Y008500D02*
X019050Y007287D01*
X018538Y006893D02*
X017562Y006893D01*
X017050Y007287D02*
X017050Y008500D01*
X017562Y008893D02*
X018550Y008893D01*
X018300Y009393D02*
X017800Y009393D01*
X017550Y009643D01*
X017300Y009393D01*
X016800Y009393D01*
X016550Y009643D01*
X016300Y009393D01*
X015800Y009393D01*
X015550Y009643D01*
X015300Y009393D01*
X014800Y009393D01*
X014550Y009643D01*
X014550Y010143D01*
X014800Y010393D01*
X015300Y010393D01*
X015550Y010143D01*
X015800Y010393D01*
X016300Y010393D01*
X016550Y010143D01*
X016800Y010393D01*
X017300Y010393D01*
X017550Y010143D01*
X017800Y010393D01*
X018300Y010393D01*
X018550Y010143D01*
X018800Y010393D01*
X019300Y010393D01*
X019550Y010143D01*
X019800Y010393D01*
X020300Y010393D01*
X020550Y010143D01*
X020800Y010393D01*
X021300Y010393D01*
X021550Y010143D01*
X021800Y010393D01*
X022300Y010393D01*
X022550Y010143D01*
X022800Y010393D01*
X023300Y010393D01*
X023550Y010143D01*
X023800Y010393D01*
X024300Y010393D01*
X024550Y010143D01*
X024550Y009643D01*
X024300Y009393D01*
X023800Y009393D01*
X023550Y009643D01*
X023300Y009393D01*
X022800Y009393D01*
X022550Y009643D01*
X022300Y009393D01*
X021800Y009393D01*
X021550Y009643D01*
X021300Y009393D01*
X020800Y009393D01*
X020550Y009643D01*
X020300Y009393D01*
X019800Y009393D01*
X019550Y009643D01*
X019300Y009393D01*
X018800Y009393D01*
X018550Y009643D01*
X018300Y009393D01*
X017550Y007893D02*
X017552Y007937D01*
X017558Y007981D01*
X017568Y008024D01*
X017581Y008066D01*
X017598Y008107D01*
X017619Y008146D01*
X017643Y008183D01*
X017670Y008218D01*
X017700Y008250D01*
X017733Y008280D01*
X017769Y008306D01*
X017806Y008330D01*
X017846Y008349D01*
X017887Y008366D01*
X017930Y008378D01*
X017973Y008387D01*
X018017Y008392D01*
X018061Y008393D01*
X018105Y008390D01*
X018149Y008383D01*
X018192Y008372D01*
X018234Y008358D01*
X018274Y008340D01*
X018313Y008318D01*
X018349Y008294D01*
X018383Y008266D01*
X018415Y008235D01*
X018444Y008201D01*
X018470Y008165D01*
X018492Y008127D01*
X018511Y008087D01*
X018526Y008045D01*
X018538Y008003D01*
X018546Y007959D01*
X018550Y007915D01*
X018550Y007871D01*
X018546Y007827D01*
X018538Y007783D01*
X018526Y007741D01*
X018511Y007699D01*
X018492Y007659D01*
X018470Y007621D01*
X018444Y007585D01*
X018415Y007551D01*
X018383Y007520D01*
X018349Y007492D01*
X018313Y007468D01*
X018274Y007446D01*
X018234Y007428D01*
X018192Y007414D01*
X018149Y007403D01*
X018105Y007396D01*
X018061Y007393D01*
X018017Y007394D01*
X017973Y007399D01*
X017930Y007408D01*
X017887Y007420D01*
X017846Y007437D01*
X017806Y007456D01*
X017769Y007480D01*
X017733Y007506D01*
X017700Y007536D01*
X017670Y007568D01*
X017643Y007603D01*
X017619Y007640D01*
X017598Y007679D01*
X017581Y007720D01*
X017568Y007762D01*
X017558Y007805D01*
X017552Y007849D01*
X017550Y007893D01*
X014550Y008143D02*
X014550Y007643D01*
X014300Y007393D01*
X014550Y007143D01*
X014550Y006643D01*
X014300Y006393D01*
X014550Y006143D01*
X014550Y005643D01*
X014300Y005393D01*
X014550Y005143D01*
X014550Y004643D01*
X014300Y004393D01*
X013800Y004393D01*
X013550Y004143D01*
X013300Y004393D01*
X012800Y004393D01*
X012550Y004143D01*
X012300Y004393D01*
X011800Y004393D01*
X011550Y004143D01*
X011300Y004393D01*
X010800Y004393D01*
X010550Y004143D01*
X010300Y004393D01*
X009800Y004393D01*
X009550Y004143D01*
X009300Y004393D01*
X008800Y004393D01*
X008550Y004143D01*
X008300Y004393D01*
X007800Y004393D01*
X007550Y004143D01*
X007300Y004393D01*
X006800Y004393D01*
X006550Y004143D01*
X006300Y004393D01*
X005800Y004393D01*
X005550Y004143D01*
X005300Y004393D01*
X004800Y004393D01*
X004550Y004143D01*
X004300Y004393D01*
X003800Y004393D01*
X003550Y004143D01*
X003300Y004393D01*
X002800Y004393D01*
X002550Y004143D01*
X002300Y004393D01*
X001800Y004393D01*
X001550Y004143D01*
X001300Y004393D01*
X000800Y004393D01*
X000550Y004143D01*
X000550Y003643D01*
X000800Y003393D01*
X001300Y003393D01*
X001550Y003643D01*
X001800Y003393D01*
X002300Y003393D01*
X002550Y003643D01*
X002800Y003393D01*
X003300Y003393D01*
X003550Y003643D01*
X003800Y003393D01*
X004300Y003393D01*
X004550Y003643D01*
X004800Y003393D01*
X005300Y003393D01*
X005550Y003643D01*
X005800Y003393D01*
X006300Y003393D01*
X006550Y003643D01*
X006800Y003393D01*
X007300Y003393D01*
X007550Y003643D01*
X007800Y003393D01*
X008300Y003393D01*
X008550Y003643D01*
X008800Y003393D01*
X009300Y003393D01*
X009550Y003643D01*
X009800Y003393D01*
X010300Y003393D01*
X010550Y003643D01*
X010800Y003393D01*
X011300Y003393D01*
X011550Y003643D01*
X011800Y003393D01*
X012300Y003393D01*
X012550Y003643D01*
X012800Y003393D01*
X013300Y003393D01*
X013550Y003643D01*
X013800Y003393D01*
X014300Y003393D01*
X014550Y003643D01*
X014550Y004143D01*
X014300Y004393D01*
X013800Y004393D01*
X013550Y004643D01*
X013550Y005143D01*
X013800Y005393D01*
X013550Y005643D01*
X013550Y006143D01*
X013800Y006393D01*
X013550Y006643D01*
X013550Y007143D01*
X013800Y007393D01*
X013550Y007643D01*
X013550Y008143D01*
X013800Y008393D01*
X013550Y008643D01*
X013550Y009143D01*
X013800Y009393D01*
X013550Y009643D01*
X013300Y009393D01*
X012800Y009393D01*
X012550Y009643D01*
X012300Y009393D01*
X011800Y009393D01*
X011550Y009643D01*
X011300Y009393D01*
X010800Y009393D01*
X010550Y009643D01*
X010300Y009393D01*
X009800Y009393D01*
X009550Y009643D01*
X009300Y009393D01*
X008800Y009393D01*
X008550Y009643D01*
X008300Y009393D01*
X007800Y009393D01*
X007550Y009643D01*
X007300Y009393D01*
X006800Y009393D01*
X006550Y009643D01*
X006300Y009393D01*
X006550Y009143D01*
X006550Y008643D01*
X006300Y008393D01*
X005800Y008393D01*
X005550Y008643D01*
X005300Y008393D01*
X004800Y008393D01*
X004550Y008643D01*
X004300Y008393D01*
X003800Y008393D01*
X003550Y008643D01*
X003300Y008393D01*
X002800Y008393D01*
X002550Y008643D01*
X002300Y008393D01*
X001800Y008393D01*
X001550Y008643D01*
X001550Y009143D01*
X001800Y009393D01*
X002300Y009393D01*
X002550Y009143D01*
X002800Y009393D01*
X003300Y009393D01*
X003550Y009143D01*
X003800Y009393D01*
X004300Y009393D01*
X004550Y009143D01*
X004800Y009393D01*
X005300Y009393D01*
X005550Y009143D01*
X005800Y009393D01*
X006300Y009393D01*
X005800Y009393D01*
X005550Y009643D01*
X005300Y009393D01*
X004800Y009393D01*
X004550Y009643D01*
X004300Y009393D01*
X003800Y009393D01*
X003550Y009643D01*
X003300Y009393D01*
X002800Y009393D01*
X002550Y009643D01*
X002300Y009393D01*
X001800Y009393D01*
X001550Y009643D01*
X001300Y009393D01*
X000800Y009393D01*
X000550Y009643D01*
X000550Y010143D01*
X000800Y010393D01*
X001300Y010393D01*
X001550Y010143D01*
X001800Y010393D01*
X002300Y010393D01*
X002550Y010143D01*
X002800Y010393D01*
X003300Y010393D01*
X003550Y010143D01*
X003800Y010393D01*
X004300Y010393D01*
X004550Y010143D01*
X004800Y010393D01*
X005300Y010393D01*
X005550Y010143D01*
X005800Y010393D01*
X006300Y010393D01*
X006550Y010143D01*
X006800Y010393D01*
X007300Y010393D01*
X007550Y010143D01*
X007800Y010393D01*
X008300Y010393D01*
X008550Y010143D01*
X008800Y010393D01*
X009300Y010393D01*
X009550Y010143D01*
X009800Y010393D01*
X010300Y010393D01*
X010550Y010143D01*
X010800Y010393D01*
X011300Y010393D01*
X011550Y010143D01*
X011800Y010393D01*
X012300Y010393D01*
X012550Y010143D01*
X012800Y010393D01*
X013300Y010393D01*
X013550Y010143D01*
X013800Y010393D01*
X014300Y010393D01*
X014550Y010143D01*
X014550Y009643D01*
X014300Y009393D01*
X013800Y009393D01*
X014300Y009393D01*
X014550Y009143D01*
X014550Y008643D01*
X014300Y008393D01*
X014550Y008143D01*
X013550Y008143D02*
X013550Y007643D01*
X013300Y007393D01*
X013550Y007143D01*
X013550Y006643D01*
X013300Y006393D01*
X012800Y006393D01*
X012550Y006643D01*
X012300Y006393D01*
X011800Y006393D01*
X011550Y006643D01*
X011300Y006393D01*
X010800Y006393D01*
X010550Y006643D01*
X010300Y006393D01*
X009800Y006393D01*
X009550Y006643D01*
X009300Y006393D01*
X008800Y006393D01*
X008550Y006643D01*
X008300Y006393D01*
X007800Y006393D01*
X007550Y006643D01*
X007300Y006393D01*
X006800Y006393D01*
X006550Y006643D01*
X006550Y007143D01*
X006800Y007393D01*
X007300Y007393D01*
X007550Y007143D01*
X007800Y007393D01*
X008300Y007393D01*
X008550Y007143D01*
X008800Y007393D01*
X009300Y007393D01*
X009550Y007143D01*
X009800Y007393D01*
X010300Y007393D01*
X010550Y007143D01*
X010800Y007393D01*
X011300Y007393D01*
X011550Y007143D01*
X011800Y007393D01*
X012300Y007393D01*
X012550Y007143D01*
X012800Y007393D01*
X013300Y007393D01*
X012800Y007393D01*
X012550Y007643D01*
X012300Y007393D01*
X011800Y007393D01*
X011550Y007643D01*
X011300Y007393D01*
X010800Y007393D01*
X010550Y007643D01*
X010300Y007393D01*
X009800Y007393D01*
X009550Y007643D01*
X009300Y007393D01*
X008800Y007393D01*
X008550Y007643D01*
X008300Y007393D01*
X007800Y007393D01*
X007550Y007643D01*
X007300Y007393D01*
X006800Y007393D01*
X006550Y007643D01*
X006550Y008143D01*
X006800Y008393D01*
X007300Y008393D01*
X007550Y008143D01*
X007800Y008393D01*
X008300Y008393D01*
X008550Y008143D01*
X008800Y008393D01*
X009300Y008393D01*
X009550Y008143D01*
X009800Y008393D01*
X010300Y008393D01*
X010550Y008143D01*
X010800Y008393D01*
X011300Y008393D01*
X011550Y008143D01*
X011800Y008393D01*
X012300Y008393D01*
X012550Y008143D01*
X012800Y008393D01*
X013300Y008393D01*
X013550Y008143D01*
X014800Y004393D02*
X015300Y004393D01*
X015550Y004143D01*
X015800Y004393D01*
X016300Y004393D01*
X016550Y004143D01*
X016800Y004393D01*
X017300Y004393D01*
X017550Y004143D01*
X017800Y004393D01*
X018300Y004393D01*
X018550Y004143D01*
X018800Y004393D01*
X019300Y004393D01*
X019550Y004143D01*
X019800Y004393D01*
X020300Y004393D01*
X020550Y004143D01*
X020800Y004393D01*
X021300Y004393D01*
X021550Y004143D01*
X021800Y004393D01*
X022300Y004393D01*
X022550Y004143D01*
X022800Y004393D01*
X023300Y004393D01*
X023550Y004143D01*
X023800Y004393D01*
X024300Y004393D01*
X024550Y004143D01*
X024550Y003643D01*
X024300Y003393D01*
X023800Y003393D01*
X023550Y003643D01*
X023300Y003393D01*
X022800Y003393D01*
X022550Y003643D01*
X022300Y003393D01*
X021800Y003393D01*
X021550Y003643D01*
X021300Y003393D01*
X020800Y003393D01*
X020550Y003643D01*
X020300Y003393D01*
X019800Y003393D01*
X019550Y003643D01*
X019300Y003393D01*
X018800Y003393D01*
X018550Y003643D01*
X018300Y003393D01*
X017800Y003393D01*
X017550Y003643D01*
X017300Y003393D01*
X016800Y003393D01*
X016550Y003643D01*
X016300Y003393D01*
X015800Y003393D01*
X015550Y003643D01*
X015300Y003393D01*
X014800Y003393D01*
X014550Y003643D01*
X014550Y004143D01*
X014800Y004393D01*
X023050Y005693D02*
X023050Y008093D01*
X024250Y009293D01*
X027250Y009293D01*
X027298Y009272D01*
X027344Y009248D01*
X027388Y009221D01*
X027430Y009190D01*
X027470Y009156D01*
X027507Y009120D01*
X027541Y009081D01*
X027572Y009039D01*
X027600Y008995D01*
X027625Y008949D01*
X027646Y008902D01*
X027664Y008853D01*
X027677Y008803D01*
X027688Y008751D01*
X027694Y008700D01*
X027696Y008648D01*
X027694Y008596D01*
X027689Y008544D01*
X027680Y008493D01*
X027666Y008442D01*
X027650Y008393D01*
X027581Y008320D01*
X027514Y008243D01*
X027452Y008164D01*
X027393Y008082D01*
X027339Y007997D01*
X027288Y007909D01*
X027242Y007820D01*
X027200Y007728D01*
X027163Y007634D01*
X027130Y007539D01*
X027101Y007442D01*
X027077Y007344D01*
X027058Y007245D01*
X027044Y007145D01*
X027034Y007044D01*
X027030Y006943D01*
X027030Y006843D01*
X027034Y006742D01*
X027044Y006641D01*
X027058Y006541D01*
X027077Y006442D01*
X027101Y006344D01*
X027130Y006247D01*
X027163Y006152D01*
X027200Y006058D01*
X027242Y005966D01*
X027288Y005877D01*
X027339Y005789D01*
X027393Y005704D01*
X027452Y005622D01*
X027514Y005543D01*
X027581Y005466D01*
X027650Y005393D01*
X027666Y005344D01*
X027680Y005293D01*
X027689Y005242D01*
X027694Y005190D01*
X027696Y005138D01*
X027694Y005086D01*
X027688Y005035D01*
X027677Y004983D01*
X027664Y004933D01*
X027646Y004884D01*
X027625Y004837D01*
X027600Y004791D01*
X027572Y004747D01*
X027541Y004705D01*
X027507Y004666D01*
X027470Y004630D01*
X027430Y004596D01*
X027388Y004565D01*
X027344Y004538D01*
X027298Y004514D01*
X027250Y004493D01*
X024250Y004493D01*
X023050Y005693D01*
M02*
