%
M48
M72
T01C0.0130
T02C0.0400
%
T01
X17550Y4393
X19050Y4393
X15050Y6643
X15050Y4893
X15550Y8143
X6550Y4143
X9950Y4593
X6550Y2893
X7050Y8143
X10300Y8393
X16550Y4393
X19550Y4393
X18550Y6393
X13330Y8363
X11050Y4543
X11850Y4543
X17050Y5393
X25500Y4853
X25510Y7993
X4640Y7513
X13040Y4393
X13320Y5663
X11830Y5703
X8020Y4903
X23050Y8143
X22800Y5643
X20550Y4393
X16080Y8543
X17540Y8523
X9050Y4143
X10050Y4143
X12050Y4143
X12050Y4893
X16050Y4393
X12050Y5393
X13050Y5393
X15550Y3893
X20050Y6393
X20050Y6893
X5550Y4643
X16300Y5393
X16300Y6643
T02
X7050Y7393
X8050Y7393
X9050Y7393
X10050Y7393
X11050Y7393
X12050Y7393
X13050Y7393
X7050Y6393
X8050Y6393
X9050Y6393
X10050Y6393
X11050Y6393
X12050Y6393
X13050Y6393
X14050Y4393
X14050Y5393
X14050Y6393
X14050Y7393
X14050Y8393
X19160Y5613
X19160Y8173
X20940Y5613
X20940Y8173
X14050Y9393
X13050Y9393
X12050Y9393
X11050Y9393
X10050Y9393
X9050Y9393
X8050Y9393
X7050Y9393
X6050Y9393
X5050Y9393
X4050Y9393
X3050Y9393
X2050Y9393
X1050Y9393
X24050Y3393
X23050Y3393
X22050Y3393
X21050Y3393
X20050Y3393
X19050Y3393
X18050Y3393
X17050Y3393
X16050Y3393
X15050Y3393
X24050Y9393
X23050Y9393
X22050Y9393
X21050Y9393
X20050Y9393
X19050Y9393
X18050Y9393
X17050Y9393
X16050Y9393
X15050Y9393
X14050Y3393
X13050Y3393
X12050Y3393
X11050Y3393
X10050Y3393
X9050Y3393
X8050Y3393
X7050Y3393
X6050Y3393
X5050Y3393
X4050Y3393
X3050Y3393
X2050Y3393
X1050Y3393
X2050Y8393
X3050Y8393
X4050Y8393
X5050Y8393
X6050Y8393
M30
