G75*
G70*
%OFA0B0*%
%FSLAX24Y24*%
%IPPOS*%
%LPD*%
%AMOC8*
5,1,8,0,0,1.08239X$1,22.5*
%
%ADD10C,0.0000*%
%ADD11C,0.0820*%
%ADD12R,0.0671X0.0592*%
%ADD13R,0.0580X0.0330*%
%ADD14R,0.0592X0.0671*%
%ADD15OC8,0.0350*%
D10*
X000300Y002393D02*
X000300Y004143D01*
X004050Y004143D01*
X004300Y004143D01*
X004300Y007643D01*
X002050Y007643D01*
X001300Y007643D01*
X001300Y008643D01*
X000300Y008643D01*
X000300Y010389D01*
X000300Y010393D01*
X000300Y010389D02*
X026678Y010389D01*
X026678Y002393D01*
X000300Y002393D01*
D11*
X001050Y003393D03*
X002050Y003393D03*
X003050Y003393D03*
X004050Y003393D03*
X005050Y003393D03*
X006050Y003393D03*
X007050Y003393D03*
X008050Y003393D03*
X009050Y003393D03*
X010050Y003393D03*
X011050Y003393D03*
X012050Y003393D03*
X013050Y003393D03*
X014050Y003393D03*
X015050Y003393D03*
X016050Y003393D03*
X017050Y003393D03*
X018050Y003393D03*
X019050Y003393D03*
X020050Y003393D03*
X021050Y003393D03*
X022050Y003393D03*
X023050Y003393D03*
X024050Y003393D03*
X020940Y005613D03*
X019160Y005613D03*
X014050Y005393D03*
X014050Y006393D03*
X013050Y006393D03*
X012050Y006393D03*
X011050Y006393D03*
X010050Y006393D03*
X009050Y006393D03*
X008050Y006393D03*
X007050Y006393D03*
X007050Y007393D03*
X008050Y007393D03*
X009050Y007393D03*
X010050Y007393D03*
X011050Y007393D03*
X012050Y007393D03*
X013050Y007393D03*
X014050Y007393D03*
X014050Y008393D03*
X014050Y009393D03*
X015050Y009393D03*
X016050Y009393D03*
X017050Y009393D03*
X018050Y009393D03*
X019050Y009393D03*
X020050Y009393D03*
X021050Y009393D03*
X022050Y009393D03*
X023050Y009393D03*
X024050Y009393D03*
X020940Y008173D03*
X019160Y008173D03*
X013050Y009393D03*
X012050Y009393D03*
X011050Y009393D03*
X010050Y009393D03*
X009050Y009393D03*
X008050Y009393D03*
X007050Y009393D03*
X006050Y009393D03*
X005050Y009393D03*
X004050Y009393D03*
X003050Y009393D03*
X002050Y009393D03*
X001050Y009393D03*
X002050Y008393D03*
X003050Y008393D03*
X004050Y008393D03*
X005050Y008393D03*
X006050Y008393D03*
X014050Y004393D03*
D12*
X006050Y006309D03*
X005050Y006309D03*
X005050Y006978D03*
X006050Y006978D03*
D13*
X006050Y005570D03*
X006050Y005216D03*
X005050Y005216D03*
X005050Y005570D03*
D14*
X017215Y006643D03*
X017885Y006643D03*
D15*
X018550Y006393D03*
X020050Y006393D03*
X020050Y006893D03*
X022800Y005643D03*
X020550Y004393D03*
X019550Y004393D03*
X019050Y004393D03*
X017550Y004393D03*
X016550Y004393D03*
X016050Y004393D03*
X015550Y003893D03*
X015050Y004893D03*
X016300Y005393D03*
X017050Y005393D03*
X016300Y006643D03*
X015050Y006643D03*
X013320Y005663D03*
X013050Y005393D03*
X012050Y005393D03*
X011830Y005703D03*
X012050Y004893D03*
X011850Y004543D03*
X011050Y004543D03*
X012050Y004143D03*
X013040Y004393D03*
X010050Y004143D03*
X009050Y004143D03*
X009950Y004593D03*
X008020Y004903D03*
X006550Y004143D03*
X005550Y004643D03*
X006550Y002893D03*
X004640Y007513D03*
X007050Y008143D03*
X010300Y008393D03*
X013330Y008363D03*
X015550Y008143D03*
X016080Y008543D03*
X017540Y008523D03*
X023050Y008143D03*
X025510Y007993D03*
X025500Y004853D03*
M02*
