G75*
G70*
%OFA0B0*%
%FSLAX24Y24*%
%IPPOS*%
%LPD*%
%AMOC8*
5,1,8,0,0,1.08239X$1,22.5*
%
%ADD10C,0.0000*%
%ADD11C,0.0740*%
%ADD12R,0.0591X0.0512*%
%ADD13R,0.0500X0.0250*%
%ADD14R,0.0512X0.0591*%
%ADD15C,0.0100*%
%ADD16OC8,0.0270*%
%ADD17C,0.0200*%
D10*
X000300Y002393D02*
X000300Y004143D01*
X004050Y004143D01*
X004300Y004143D01*
X004300Y007643D01*
X002050Y007643D01*
X001300Y007643D01*
X001300Y008643D01*
X000300Y008643D01*
X000300Y010389D01*
X000300Y010393D01*
X000300Y010389D02*
X026678Y010389D01*
X026678Y002393D01*
X000300Y002393D01*
D11*
X001050Y003393D03*
X002050Y003393D03*
X003050Y003393D03*
X004050Y003393D03*
X005050Y003393D03*
X006050Y003393D03*
X007050Y003393D03*
X008050Y003393D03*
X009050Y003393D03*
X010050Y003393D03*
X011050Y003393D03*
X012050Y003393D03*
X013050Y003393D03*
X014050Y003393D03*
X015050Y003393D03*
X016050Y003393D03*
X017050Y003393D03*
X018050Y003393D03*
X019050Y003393D03*
X020050Y003393D03*
X021050Y003393D03*
X022050Y003393D03*
X023050Y003393D03*
X024050Y003393D03*
X020940Y005613D03*
X019160Y005613D03*
X014050Y005393D03*
X014050Y006393D03*
X013050Y006393D03*
X012050Y006393D03*
X011050Y006393D03*
X010050Y006393D03*
X009050Y006393D03*
X008050Y006393D03*
X007050Y006393D03*
X007050Y007393D03*
X008050Y007393D03*
X009050Y007393D03*
X010050Y007393D03*
X011050Y007393D03*
X012050Y007393D03*
X013050Y007393D03*
X014050Y007393D03*
X014050Y008393D03*
X014050Y009393D03*
X015050Y009393D03*
X016050Y009393D03*
X017050Y009393D03*
X018050Y009393D03*
X019050Y009393D03*
X020050Y009393D03*
X021050Y009393D03*
X022050Y009393D03*
X023050Y009393D03*
X024050Y009393D03*
X020940Y008173D03*
X019160Y008173D03*
X013050Y009393D03*
X012050Y009393D03*
X011050Y009393D03*
X010050Y009393D03*
X009050Y009393D03*
X008050Y009393D03*
X007050Y009393D03*
X006050Y009393D03*
X005050Y009393D03*
X004050Y009393D03*
X003050Y009393D03*
X002050Y009393D03*
X001050Y009393D03*
X002050Y008393D03*
X003050Y008393D03*
X004050Y008393D03*
X005050Y008393D03*
X006050Y008393D03*
X014050Y004393D03*
D12*
X006050Y006309D03*
X005050Y006309D03*
X005050Y006978D03*
X006050Y006978D03*
D13*
X006050Y005570D03*
X006050Y005216D03*
X005050Y005216D03*
X005050Y005570D03*
D14*
X017215Y006643D03*
X017885Y006643D03*
D15*
X018050Y006478D01*
X018050Y005893D01*
X018330Y005613D01*
X019160Y005613D01*
X018680Y005413D02*
X018719Y005319D01*
X018865Y005172D01*
X019057Y005093D01*
X019263Y005093D01*
X019455Y005172D01*
X019601Y005319D01*
X019680Y005510D01*
X019680Y005717D01*
X019601Y005908D01*
X019455Y006054D01*
X019263Y006133D01*
X019057Y006133D01*
X018865Y006054D01*
X018719Y005908D01*
X018680Y005813D01*
X018413Y005813D01*
X018250Y005976D01*
X018250Y006245D01*
X018291Y006286D01*
X018291Y007001D01*
X018250Y007041D01*
X018250Y007943D01*
X018692Y007943D01*
X018719Y007879D01*
X018865Y007732D01*
X019057Y007653D01*
X019263Y007653D01*
X019455Y007732D01*
X019601Y007879D01*
X019680Y008070D01*
X019680Y008277D01*
X019601Y008468D01*
X019455Y008614D01*
X019263Y008693D01*
X019057Y008693D01*
X018865Y008614D01*
X018719Y008468D01*
X018668Y008343D01*
X018250Y008343D01*
X018250Y008913D01*
X018345Y008952D01*
X018491Y009099D01*
X018550Y009242D01*
X018609Y009099D01*
X018755Y008952D01*
X018947Y008873D01*
X019153Y008873D01*
X019345Y008952D01*
X019491Y009099D01*
X019550Y009242D01*
X019609Y009099D01*
X019755Y008952D01*
X019850Y008913D01*
X019850Y007096D01*
X019765Y007011D01*
X019765Y006775D01*
X019897Y006643D01*
X019765Y006511D01*
X019765Y006275D01*
X019850Y006190D01*
X019850Y003873D01*
X019755Y003834D01*
X019609Y003688D01*
X019550Y003545D01*
X019491Y003688D01*
X019345Y003834D01*
X019250Y003873D01*
X019250Y004190D01*
X019335Y004275D01*
X019335Y004511D01*
X019168Y004678D01*
X018932Y004678D01*
X018765Y004511D01*
X018765Y004275D01*
X018850Y004190D01*
X018850Y003873D01*
X018755Y003834D01*
X018609Y003688D01*
X018550Y003545D01*
X018491Y003688D01*
X018345Y003834D01*
X018153Y003913D01*
X017947Y003913D01*
X017755Y003834D01*
X017609Y003688D01*
X017550Y003545D01*
X017491Y003688D01*
X017345Y003834D01*
X017250Y003873D01*
X017250Y004726D01*
X016883Y005093D01*
X016133Y005093D01*
X015783Y005443D01*
X015967Y005443D01*
X016015Y005395D01*
X016015Y005275D01*
X016182Y005108D01*
X016418Y005108D01*
X016585Y005275D01*
X016585Y005511D01*
X016418Y005678D01*
X016298Y005678D01*
X016283Y005693D01*
X017217Y005693D01*
X017350Y005560D01*
X017350Y004596D01*
X017265Y004511D01*
X017265Y004275D01*
X017432Y004108D01*
X017668Y004108D01*
X017835Y004275D01*
X017835Y004511D01*
X017750Y004596D01*
X017750Y005726D01*
X017633Y005843D01*
X017383Y006093D01*
X014475Y006093D01*
X014495Y006121D01*
X014532Y006194D01*
X014557Y006272D01*
X014569Y006343D01*
X014100Y006343D01*
X014100Y006443D01*
X014569Y006443D01*
X014557Y006515D01*
X014532Y006593D01*
X014495Y006666D01*
X014447Y006732D01*
X014389Y006790D01*
X014323Y006838D01*
X014250Y006875D01*
X014198Y006892D01*
X014345Y006952D01*
X014491Y007099D01*
X014570Y007290D01*
X014570Y007497D01*
X014491Y007688D01*
X014345Y007834D01*
X014202Y007893D01*
X014345Y007952D01*
X014491Y008099D01*
X014570Y008290D01*
X014570Y008497D01*
X014491Y008688D01*
X014485Y008693D01*
X014633Y008693D01*
X014750Y008810D01*
X014750Y008958D01*
X014755Y008952D01*
X014850Y008913D01*
X014850Y006846D01*
X014765Y006761D01*
X014765Y006525D01*
X014932Y006358D01*
X015168Y006358D01*
X015335Y006525D01*
X015335Y006761D01*
X015250Y006846D01*
X015250Y008913D01*
X015345Y008952D01*
X015491Y009099D01*
X015551Y009245D01*
X015568Y009194D01*
X015605Y009121D01*
X015653Y009055D01*
X015711Y008997D01*
X015777Y008949D01*
X015850Y008911D01*
X015928Y008886D01*
X016000Y008875D01*
X016000Y009343D01*
X016100Y009343D01*
X016100Y008875D01*
X016172Y008886D01*
X016250Y008911D01*
X016323Y008949D01*
X016389Y008997D01*
X016447Y009055D01*
X016495Y009121D01*
X016532Y009194D01*
X016549Y009245D01*
X016609Y009099D01*
X016755Y008952D01*
X016947Y008873D01*
X017153Y008873D01*
X017345Y008952D01*
X017491Y009099D01*
X017550Y009242D01*
X017609Y009099D01*
X017755Y008952D01*
X017850Y008913D01*
X017850Y008343D01*
X015753Y008343D01*
X015668Y008428D01*
X015432Y008428D01*
X015265Y008261D01*
X015265Y008025D01*
X015432Y007858D01*
X015668Y007858D01*
X015753Y007943D01*
X017850Y007943D01*
X017850Y007089D01*
X017567Y007089D01*
X017550Y007072D01*
X017533Y007089D01*
X016897Y007089D01*
X016809Y007001D01*
X016809Y006843D01*
X016503Y006843D01*
X016418Y006928D01*
X016182Y006928D01*
X016015Y006761D01*
X016015Y006525D01*
X016182Y006358D01*
X016418Y006358D01*
X016503Y006443D01*
X016809Y006443D01*
X016809Y006286D01*
X016897Y006198D01*
X017533Y006198D01*
X017550Y006215D01*
X017567Y006198D01*
X017850Y006198D01*
X017850Y005810D01*
X017967Y005693D01*
X018247Y005413D01*
X018680Y005413D01*
X018707Y005348D02*
X017750Y005348D01*
X017750Y005250D02*
X018788Y005250D01*
X018917Y005151D02*
X017750Y005151D01*
X017750Y005053D02*
X019850Y005053D01*
X019850Y005151D02*
X019403Y005151D01*
X019532Y005250D02*
X019850Y005250D01*
X019850Y005348D02*
X019613Y005348D01*
X019654Y005447D02*
X019850Y005447D01*
X019850Y005545D02*
X019680Y005545D01*
X019680Y005644D02*
X019850Y005644D01*
X019850Y005742D02*
X019669Y005742D01*
X019629Y005841D02*
X019850Y005841D01*
X019850Y005939D02*
X019569Y005939D01*
X019471Y006038D02*
X019850Y006038D01*
X019850Y006136D02*
X018250Y006136D01*
X018250Y006038D02*
X018849Y006038D01*
X018751Y005939D02*
X018287Y005939D01*
X018385Y005841D02*
X018691Y005841D01*
X018115Y005545D02*
X017750Y005545D01*
X017750Y005447D02*
X018214Y005447D01*
X018017Y005644D02*
X017750Y005644D01*
X017734Y005742D02*
X017918Y005742D01*
X017850Y005841D02*
X017635Y005841D01*
X017537Y005939D02*
X017850Y005939D01*
X017850Y006038D02*
X017438Y006038D01*
X017300Y005893D02*
X017550Y005643D01*
X017550Y004393D01*
X017835Y004363D02*
X018765Y004363D01*
X018775Y004265D02*
X017825Y004265D01*
X017726Y004166D02*
X018850Y004166D01*
X018850Y004068D02*
X017250Y004068D01*
X017250Y004166D02*
X017374Y004166D01*
X017275Y004265D02*
X017250Y004265D01*
X017250Y004363D02*
X017265Y004363D01*
X017265Y004462D02*
X017250Y004462D01*
X017250Y004560D02*
X017314Y004560D01*
X017350Y004659D02*
X017250Y004659D01*
X017219Y004757D02*
X017350Y004757D01*
X017350Y004856D02*
X017120Y004856D01*
X017022Y004954D02*
X017350Y004954D01*
X017350Y005053D02*
X016923Y005053D01*
X016800Y004893D02*
X017050Y004643D01*
X017050Y003393D01*
X016563Y003575D02*
X016537Y003575D01*
X016550Y003545D02*
X016491Y003688D01*
X016345Y003834D01*
X016250Y003873D01*
X016250Y004190D01*
X016335Y004275D01*
X016335Y004511D01*
X016168Y004678D01*
X015932Y004678D01*
X015765Y004511D01*
X015765Y004275D01*
X015850Y004190D01*
X015850Y003873D01*
X015835Y003867D01*
X015835Y004011D01*
X015668Y004178D01*
X015432Y004178D01*
X015347Y004093D01*
X014485Y004093D01*
X014491Y004099D01*
X014530Y004193D01*
X014633Y004193D01*
X015048Y004608D01*
X015168Y004608D01*
X015335Y004775D01*
X015335Y005011D01*
X015168Y005178D01*
X015118Y005178D01*
X015133Y005193D01*
X015467Y005193D01*
X015850Y004810D01*
X015967Y004693D01*
X016717Y004693D01*
X016850Y004560D01*
X016286Y004560D01*
X016335Y004462D02*
X016850Y004462D01*
X016850Y004560D02*
X016850Y003873D01*
X016755Y003834D01*
X016609Y003688D01*
X016550Y003545D01*
X016497Y003674D02*
X016603Y003674D01*
X016694Y003772D02*
X016406Y003772D01*
X016256Y003871D02*
X016844Y003871D01*
X016850Y003969D02*
X016250Y003969D01*
X016250Y004068D02*
X016850Y004068D01*
X016850Y004166D02*
X016250Y004166D01*
X016325Y004265D02*
X016850Y004265D01*
X016850Y004363D02*
X016335Y004363D01*
X016050Y004393D02*
X016050Y003393D01*
X015844Y003871D02*
X015835Y003871D01*
X015835Y003969D02*
X015850Y003969D01*
X015850Y004068D02*
X015779Y004068D01*
X015850Y004166D02*
X015680Y004166D01*
X015775Y004265D02*
X014704Y004265D01*
X014803Y004363D02*
X015765Y004363D01*
X015765Y004462D02*
X014901Y004462D01*
X015000Y004560D02*
X015814Y004560D01*
X015912Y004659D02*
X015219Y004659D01*
X015317Y004757D02*
X015903Y004757D01*
X015805Y004856D02*
X015335Y004856D01*
X015335Y004954D02*
X015706Y004954D01*
X015608Y005053D02*
X015294Y005053D01*
X015195Y005151D02*
X015509Y005151D01*
X015878Y005348D02*
X016015Y005348D01*
X016040Y005250D02*
X015976Y005250D01*
X016075Y005151D02*
X016139Y005151D01*
X016461Y005151D02*
X017350Y005151D01*
X017350Y005250D02*
X016560Y005250D01*
X016585Y005348D02*
X017350Y005348D01*
X017350Y005447D02*
X016585Y005447D01*
X016551Y005545D02*
X017350Y005545D01*
X017267Y005644D02*
X016453Y005644D01*
X016300Y005393D02*
X016050Y005643D01*
X014800Y005643D01*
X014550Y005393D01*
X014050Y005393D01*
X013530Y005348D02*
X013335Y005348D01*
X013335Y005275D02*
X013268Y005208D01*
X013383Y005093D01*
X013615Y005093D01*
X013609Y005099D01*
X013530Y005290D01*
X013530Y005497D01*
X013609Y005688D01*
X013615Y005693D01*
X013467Y005693D01*
X013350Y005810D01*
X013248Y005912D01*
X013153Y005873D01*
X012947Y005873D01*
X012755Y005952D01*
X012750Y005958D01*
X012750Y004226D01*
X012883Y004093D01*
X013615Y004093D01*
X013609Y004099D01*
X013530Y004290D01*
X013530Y004497D01*
X013609Y004688D01*
X013615Y004693D01*
X013217Y004693D01*
X013100Y004810D01*
X012850Y005060D01*
X012850Y005190D01*
X012765Y005275D01*
X012765Y005511D01*
X012932Y005678D01*
X013168Y005678D01*
X013335Y005511D01*
X013335Y005275D01*
X013310Y005250D02*
X013547Y005250D01*
X013587Y005151D02*
X013325Y005151D01*
X013300Y004893D02*
X013050Y005143D01*
X013050Y005393D01*
X012765Y005348D02*
X012750Y005348D01*
X012750Y005250D02*
X012790Y005250D01*
X012750Y005151D02*
X012850Y005151D01*
X012858Y005053D02*
X012750Y005053D01*
X012750Y004954D02*
X012956Y004954D01*
X013055Y004856D02*
X012750Y004856D01*
X012750Y004757D02*
X013153Y004757D01*
X013300Y004893D02*
X014550Y004893D01*
X015050Y005393D01*
X015550Y005393D01*
X016050Y004893D01*
X016800Y004893D01*
X016752Y004659D02*
X016188Y004659D01*
X015420Y004166D02*
X014519Y004166D01*
X014550Y004393D02*
X014050Y004393D01*
X014550Y004393D02*
X015050Y004893D01*
X013597Y004659D02*
X012750Y004659D01*
X012750Y004560D02*
X013556Y004560D01*
X013530Y004462D02*
X012750Y004462D01*
X012750Y004363D02*
X013530Y004363D01*
X013540Y004265D02*
X012750Y004265D01*
X012810Y004166D02*
X013581Y004166D01*
X012800Y003893D02*
X015550Y003893D01*
X017250Y003969D02*
X018850Y003969D01*
X018844Y003871D02*
X018256Y003871D01*
X018406Y003772D02*
X018694Y003772D01*
X018603Y003674D02*
X018497Y003674D01*
X018537Y003575D02*
X018563Y003575D01*
X019050Y003393D02*
X019050Y004393D01*
X019335Y004363D02*
X019850Y004363D01*
X019850Y004265D02*
X019325Y004265D01*
X019250Y004166D02*
X019850Y004166D01*
X019850Y004068D02*
X019250Y004068D01*
X019250Y003969D02*
X019850Y003969D01*
X019844Y003871D02*
X019256Y003871D01*
X019406Y003772D02*
X019694Y003772D01*
X019603Y003674D02*
X019497Y003674D01*
X019537Y003575D02*
X019563Y003575D01*
X020050Y003393D02*
X020050Y006393D01*
X020250Y006190D02*
X020335Y006275D01*
X020335Y006511D01*
X020203Y006643D01*
X020335Y006775D01*
X020335Y007011D01*
X020250Y007096D01*
X020250Y008913D01*
X020345Y008952D01*
X020491Y009099D01*
X020550Y009242D01*
X020609Y009099D01*
X020755Y008952D01*
X020947Y008873D01*
X021153Y008873D01*
X021345Y008952D01*
X021491Y009099D01*
X021550Y009242D01*
X021609Y009099D01*
X021755Y008952D01*
X021947Y008873D01*
X022153Y008873D01*
X022345Y008952D01*
X022491Y009099D01*
X022550Y009242D01*
X022609Y009099D01*
X022755Y008952D01*
X022947Y008873D01*
X023153Y008873D01*
X023345Y008952D01*
X023491Y009099D01*
X023550Y009242D01*
X023609Y009099D01*
X023755Y008952D01*
X023947Y008873D01*
X024153Y008873D01*
X024345Y008952D01*
X024491Y009099D01*
X024570Y009290D01*
X024570Y009497D01*
X024491Y009688D01*
X024345Y009834D01*
X024153Y009913D01*
X023947Y009913D01*
X023755Y009834D01*
X023609Y009688D01*
X023550Y009545D01*
X023491Y009688D01*
X023345Y009834D01*
X023153Y009913D01*
X022947Y009913D01*
X022755Y009834D01*
X022609Y009688D01*
X022550Y009545D01*
X022491Y009688D01*
X022345Y009834D01*
X022153Y009913D01*
X021947Y009913D01*
X021755Y009834D01*
X021609Y009688D01*
X021550Y009545D01*
X021491Y009688D01*
X021345Y009834D01*
X021153Y009913D01*
X020947Y009913D01*
X020755Y009834D01*
X020609Y009688D01*
X020550Y009545D01*
X020491Y009688D01*
X020345Y009834D01*
X020153Y009913D01*
X019947Y009913D01*
X019755Y009834D01*
X019609Y009688D01*
X019550Y009545D01*
X019491Y009688D01*
X019345Y009834D01*
X019153Y009913D01*
X018947Y009913D01*
X018852Y009874D01*
X018537Y010189D01*
X026300Y010189D01*
X026300Y002643D01*
X023583Y002643D01*
X023852Y002912D01*
X023947Y002873D01*
X024153Y002873D01*
X024345Y002952D01*
X024491Y003099D01*
X024570Y003290D01*
X024570Y003497D01*
X024491Y003688D01*
X024345Y003834D01*
X024153Y003913D01*
X023947Y003913D01*
X023755Y003834D01*
X023609Y003688D01*
X023550Y003545D01*
X023491Y003688D01*
X023345Y003834D01*
X023153Y003913D01*
X022947Y003913D01*
X022755Y003834D01*
X022609Y003688D01*
X022550Y003545D01*
X022491Y003688D01*
X022345Y003834D01*
X022153Y003913D01*
X021947Y003913D01*
X021755Y003834D01*
X021609Y003688D01*
X021550Y003545D01*
X021491Y003688D01*
X021345Y003834D01*
X021153Y003913D01*
X020947Y003913D01*
X020755Y003834D01*
X020609Y003688D01*
X020550Y003545D01*
X020491Y003688D01*
X020345Y003834D01*
X020250Y003873D01*
X020250Y006190D01*
X020250Y006136D02*
X026300Y006136D01*
X026300Y006038D02*
X021240Y006038D01*
X021213Y006058D02*
X021140Y006095D01*
X021062Y006121D01*
X020990Y006132D01*
X020990Y005663D01*
X021459Y005663D01*
X021447Y005735D01*
X021422Y005813D01*
X021385Y005886D01*
X021337Y005952D01*
X021279Y006010D01*
X021213Y006058D01*
X021346Y005939D02*
X026300Y005939D01*
X026300Y005841D02*
X021408Y005841D01*
X021445Y005742D02*
X026300Y005742D01*
X026300Y005644D02*
X020990Y005644D01*
X020990Y005663D02*
X020990Y005563D01*
X020990Y005095D01*
X021062Y005106D01*
X021140Y005131D01*
X021213Y005169D01*
X021279Y005217D01*
X021337Y005275D01*
X021385Y005341D01*
X021422Y005414D01*
X021447Y005492D01*
X021459Y005563D01*
X020990Y005563D01*
X020890Y005563D01*
X020890Y005095D01*
X020818Y005106D01*
X020740Y005131D01*
X020667Y005169D01*
X020601Y005217D01*
X020543Y005275D01*
X020495Y005341D01*
X020458Y005414D01*
X020433Y005492D01*
X020421Y005563D01*
X020890Y005563D01*
X020890Y005663D01*
X020421Y005663D01*
X020433Y005735D01*
X020458Y005813D01*
X020495Y005886D01*
X020543Y005952D01*
X020601Y006010D01*
X020667Y006058D01*
X020740Y006095D01*
X020818Y006121D01*
X020890Y006132D01*
X020890Y005663D01*
X020990Y005663D01*
X020990Y005742D02*
X020890Y005742D01*
X020890Y005644D02*
X020250Y005644D01*
X020250Y005742D02*
X020435Y005742D01*
X020472Y005841D02*
X020250Y005841D01*
X020250Y005939D02*
X020534Y005939D01*
X020640Y006038D02*
X020250Y006038D01*
X020295Y006235D02*
X026300Y006235D01*
X026300Y006333D02*
X020335Y006333D01*
X020335Y006432D02*
X026300Y006432D01*
X026300Y006530D02*
X020316Y006530D01*
X020218Y006629D02*
X026300Y006629D01*
X026300Y006727D02*
X020287Y006727D01*
X020335Y006826D02*
X026300Y006826D01*
X026300Y006924D02*
X020335Y006924D01*
X020324Y007023D02*
X026300Y007023D01*
X026300Y007121D02*
X020250Y007121D01*
X020250Y007220D02*
X026300Y007220D01*
X026300Y007318D02*
X020250Y007318D01*
X020250Y007417D02*
X026300Y007417D01*
X026300Y007515D02*
X020250Y007515D01*
X020250Y007614D02*
X026300Y007614D01*
X026300Y007712D02*
X021181Y007712D01*
X021213Y007729D02*
X021279Y007777D01*
X021337Y007835D01*
X021385Y007901D01*
X021422Y007974D01*
X021447Y008052D01*
X021459Y008123D01*
X020990Y008123D01*
X020990Y007655D01*
X021062Y007666D01*
X021140Y007691D01*
X021213Y007729D01*
X021313Y007811D02*
X026300Y007811D01*
X026300Y007909D02*
X021389Y007909D01*
X021433Y008008D02*
X026300Y008008D01*
X026300Y008106D02*
X021456Y008106D01*
X021459Y008223D02*
X021447Y008295D01*
X021422Y008373D01*
X021385Y008446D01*
X021337Y008512D01*
X021279Y008570D01*
X021213Y008618D01*
X021140Y008655D01*
X021062Y008681D01*
X020990Y008692D01*
X020990Y008223D01*
X021459Y008223D01*
X021445Y008303D02*
X026300Y008303D01*
X026300Y008205D02*
X020990Y008205D01*
X020990Y008223D02*
X020990Y008123D01*
X020890Y008123D01*
X020890Y007655D01*
X020818Y007666D01*
X020740Y007691D01*
X020667Y007729D01*
X020601Y007777D01*
X020543Y007835D01*
X020495Y007901D01*
X020458Y007974D01*
X020433Y008052D01*
X020421Y008123D01*
X020890Y008123D01*
X020890Y008223D01*
X020421Y008223D01*
X020433Y008295D01*
X020458Y008373D01*
X020495Y008446D01*
X020543Y008512D01*
X020601Y008570D01*
X020667Y008618D01*
X020740Y008655D01*
X020818Y008681D01*
X020890Y008692D01*
X020890Y008223D01*
X020990Y008223D01*
X020990Y008303D02*
X020890Y008303D01*
X020890Y008205D02*
X020250Y008205D01*
X020250Y008303D02*
X020435Y008303D01*
X020473Y008402D02*
X020250Y008402D01*
X020250Y008500D02*
X020535Y008500D01*
X020641Y008599D02*
X020250Y008599D01*
X020250Y008697D02*
X026300Y008697D01*
X026300Y008599D02*
X021239Y008599D01*
X021345Y008500D02*
X026300Y008500D01*
X026300Y008402D02*
X021407Y008402D01*
X020990Y008402D02*
X020890Y008402D01*
X020890Y008500D02*
X020990Y008500D01*
X020990Y008599D02*
X020890Y008599D01*
X020250Y008796D02*
X026300Y008796D01*
X026300Y008894D02*
X024204Y008894D01*
X024385Y008993D02*
X026300Y008993D01*
X026300Y009091D02*
X024483Y009091D01*
X024529Y009190D02*
X026300Y009190D01*
X026300Y009288D02*
X024569Y009288D01*
X024570Y009387D02*
X026300Y009387D01*
X026300Y009485D02*
X024570Y009485D01*
X024534Y009584D02*
X026300Y009584D01*
X026300Y009682D02*
X024493Y009682D01*
X024398Y009781D02*
X026300Y009781D01*
X026300Y009879D02*
X024235Y009879D01*
X023865Y009879D02*
X023235Y009879D01*
X023398Y009781D02*
X023702Y009781D01*
X023607Y009682D02*
X023493Y009682D01*
X023534Y009584D02*
X023566Y009584D01*
X022865Y009879D02*
X022235Y009879D01*
X022398Y009781D02*
X022702Y009781D01*
X022607Y009682D02*
X022493Y009682D01*
X022534Y009584D02*
X022566Y009584D01*
X021865Y009879D02*
X021235Y009879D01*
X021398Y009781D02*
X021702Y009781D01*
X021607Y009682D02*
X021493Y009682D01*
X021534Y009584D02*
X021566Y009584D01*
X020865Y009879D02*
X020235Y009879D01*
X020398Y009781D02*
X020702Y009781D01*
X020607Y009682D02*
X020493Y009682D01*
X020534Y009584D02*
X020566Y009584D01*
X020050Y009393D02*
X020050Y006893D01*
X019765Y006924D02*
X018291Y006924D01*
X018291Y006826D02*
X019765Y006826D01*
X019813Y006727D02*
X018291Y006727D01*
X018291Y006629D02*
X019882Y006629D01*
X019784Y006530D02*
X018291Y006530D01*
X018291Y006432D02*
X019765Y006432D01*
X019765Y006333D02*
X018291Y006333D01*
X018250Y006235D02*
X019805Y006235D01*
X020890Y006038D02*
X020990Y006038D01*
X020990Y005939D02*
X020890Y005939D01*
X020890Y005841D02*
X020990Y005841D01*
X020990Y005545D02*
X020890Y005545D01*
X020890Y005447D02*
X020990Y005447D01*
X020990Y005348D02*
X020890Y005348D01*
X020890Y005250D02*
X020990Y005250D01*
X020990Y005151D02*
X020890Y005151D01*
X020701Y005151D02*
X020250Y005151D01*
X020250Y005053D02*
X026300Y005053D01*
X026300Y005151D02*
X021179Y005151D01*
X021312Y005250D02*
X026300Y005250D01*
X026300Y005348D02*
X021389Y005348D01*
X021433Y005447D02*
X026300Y005447D01*
X026300Y005545D02*
X021456Y005545D01*
X020568Y005250D02*
X020250Y005250D01*
X020250Y005348D02*
X020491Y005348D01*
X020447Y005447D02*
X020250Y005447D01*
X020250Y005545D02*
X020424Y005545D01*
X020250Y004954D02*
X026300Y004954D01*
X026300Y004856D02*
X020250Y004856D01*
X020250Y004757D02*
X026300Y004757D01*
X026300Y004659D02*
X020250Y004659D01*
X020250Y004560D02*
X026300Y004560D01*
X026300Y004462D02*
X020250Y004462D01*
X020250Y004363D02*
X026300Y004363D01*
X026300Y004265D02*
X020250Y004265D01*
X020250Y004166D02*
X026300Y004166D01*
X026300Y004068D02*
X020250Y004068D01*
X020250Y003969D02*
X026300Y003969D01*
X026300Y003871D02*
X024256Y003871D01*
X024406Y003772D02*
X026300Y003772D01*
X026300Y003674D02*
X024497Y003674D01*
X024537Y003575D02*
X026300Y003575D01*
X026300Y003477D02*
X024570Y003477D01*
X024570Y003378D02*
X026300Y003378D01*
X026300Y003280D02*
X024566Y003280D01*
X024525Y003181D02*
X026300Y003181D01*
X026300Y003083D02*
X024475Y003083D01*
X024376Y002984D02*
X026300Y002984D01*
X026300Y002886D02*
X024184Y002886D01*
X023916Y002886D02*
X023825Y002886D01*
X023727Y002787D02*
X026300Y002787D01*
X026300Y002689D02*
X023628Y002689D01*
X023300Y002643D02*
X008800Y002643D01*
X008550Y002893D01*
X008550Y006893D01*
X009050Y007393D01*
X008578Y007614D02*
X008522Y007614D01*
X008550Y007545D02*
X008491Y007688D01*
X008345Y007834D01*
X008153Y007913D01*
X007947Y007913D01*
X007755Y007834D01*
X007609Y007688D01*
X007550Y007545D01*
X007491Y007688D01*
X007345Y007834D01*
X007153Y007913D01*
X006947Y007913D01*
X006755Y007834D01*
X006750Y007829D01*
X006750Y008310D01*
X006883Y008443D01*
X008883Y008443D01*
X009133Y008693D01*
X009250Y008810D01*
X009250Y008913D01*
X009345Y008952D01*
X009491Y009099D01*
X009550Y009242D01*
X009609Y009099D01*
X009755Y008952D01*
X009947Y008873D01*
X010153Y008873D01*
X010345Y008952D01*
X010491Y009099D01*
X010550Y009242D01*
X010609Y009099D01*
X010755Y008952D01*
X010947Y008873D01*
X011153Y008873D01*
X011345Y008952D01*
X011491Y009099D01*
X011550Y009242D01*
X011609Y009099D01*
X011755Y008952D01*
X011947Y008873D01*
X012153Y008873D01*
X012345Y008952D01*
X012491Y009099D01*
X012550Y009242D01*
X012609Y009099D01*
X012755Y008952D01*
X012947Y008873D01*
X013153Y008873D01*
X013345Y008952D01*
X013350Y008958D01*
X013350Y008810D01*
X013467Y008693D01*
X013615Y008693D01*
X013609Y008688D01*
X013530Y008497D01*
X013530Y008290D01*
X013609Y008099D01*
X013755Y007952D01*
X013898Y007893D01*
X013755Y007834D01*
X013609Y007688D01*
X013550Y007545D01*
X013491Y007688D01*
X013345Y007834D01*
X013153Y007913D01*
X012947Y007913D01*
X012755Y007834D01*
X012609Y007688D01*
X012550Y007545D01*
X012491Y007688D01*
X012345Y007834D01*
X012153Y007913D01*
X011947Y007913D01*
X011755Y007834D01*
X011609Y007688D01*
X011550Y007545D01*
X011491Y007688D01*
X011345Y007834D01*
X011153Y007913D01*
X010947Y007913D01*
X010755Y007834D01*
X010609Y007688D01*
X010550Y007545D01*
X010491Y007688D01*
X010345Y007834D01*
X010153Y007913D01*
X009947Y007913D01*
X009755Y007834D01*
X009609Y007688D01*
X009550Y007545D01*
X009491Y007688D01*
X009345Y007834D01*
X009153Y007913D01*
X008947Y007913D01*
X008755Y007834D01*
X008609Y007688D01*
X008550Y007545D01*
X008466Y007712D02*
X008634Y007712D01*
X008732Y007811D02*
X008368Y007811D01*
X008163Y007909D02*
X008937Y007909D01*
X009163Y007909D02*
X009937Y007909D01*
X010163Y007909D02*
X010937Y007909D01*
X011163Y007909D02*
X011937Y007909D01*
X012163Y007909D02*
X012937Y007909D01*
X013163Y007909D02*
X013860Y007909D01*
X013732Y007811D02*
X013368Y007811D01*
X013466Y007712D02*
X013634Y007712D01*
X013578Y007614D02*
X013522Y007614D01*
X013550Y007893D02*
X014550Y007893D01*
X014400Y008008D02*
X014850Y008008D01*
X014850Y008106D02*
X014494Y008106D01*
X014535Y008205D02*
X014850Y008205D01*
X014850Y008303D02*
X014570Y008303D01*
X014570Y008402D02*
X014850Y008402D01*
X014850Y008500D02*
X014569Y008500D01*
X014528Y008599D02*
X014850Y008599D01*
X014850Y008697D02*
X014637Y008697D01*
X014735Y008796D02*
X014850Y008796D01*
X014850Y008894D02*
X014750Y008894D01*
X014550Y008893D02*
X013550Y008893D01*
X013350Y008894D02*
X013204Y008894D01*
X013365Y008796D02*
X009235Y008796D01*
X009250Y008894D02*
X009896Y008894D01*
X009715Y008993D02*
X009385Y008993D01*
X009483Y009091D02*
X009617Y009091D01*
X009571Y009190D02*
X009529Y009190D01*
X009050Y009393D02*
X009050Y008893D01*
X008800Y008643D01*
X006800Y008643D01*
X006550Y008393D01*
X006550Y007893D01*
X006050Y007393D01*
X006050Y006978D01*
X006495Y007023D02*
X006685Y007023D01*
X006755Y006952D02*
X006609Y007099D01*
X006530Y007290D01*
X006530Y007497D01*
X006596Y007657D01*
X006323Y007384D01*
X006407Y007384D01*
X006495Y007296D01*
X006495Y006660D01*
X006479Y006643D01*
X006495Y006627D01*
X006495Y005991D01*
X006407Y005903D01*
X006250Y005903D01*
X006250Y005845D01*
X006362Y005845D01*
X006450Y005758D01*
X006450Y005029D01*
X006362Y004941D01*
X005750Y004941D01*
X005750Y004846D01*
X005835Y004761D01*
X005835Y004525D01*
X005668Y004358D01*
X005432Y004358D01*
X005265Y004525D01*
X005265Y004761D01*
X005350Y004846D01*
X005350Y004941D01*
X004738Y004941D01*
X004650Y005029D01*
X004650Y005758D01*
X004738Y005845D01*
X004850Y005845D01*
X004850Y005903D01*
X004693Y005903D01*
X004605Y005991D01*
X004605Y006627D01*
X004621Y006643D01*
X004605Y006660D01*
X004605Y007296D01*
X004693Y007384D01*
X004850Y007384D01*
X004850Y007476D01*
X005100Y007726D01*
X005313Y007940D01*
X005153Y007873D01*
X004947Y007873D01*
X004755Y007952D01*
X004699Y008009D01*
X004500Y007810D01*
X004458Y007768D01*
X004500Y007726D01*
X004500Y004060D01*
X004383Y003943D01*
X000550Y003943D01*
X000550Y003537D01*
X000568Y003593D01*
X000605Y003666D01*
X000653Y003732D01*
X000711Y003790D01*
X000777Y003838D01*
X000850Y003875D01*
X000928Y003901D01*
X001000Y003912D01*
X001000Y003443D01*
X001100Y003443D01*
X001100Y003912D01*
X001172Y003901D01*
X001250Y003875D01*
X001323Y003838D01*
X001389Y003790D01*
X001447Y003732D01*
X001495Y003666D01*
X001532Y003593D01*
X001549Y003542D01*
X001609Y003688D01*
X001755Y003834D01*
X001947Y003913D01*
X002153Y003913D01*
X002345Y003834D01*
X002491Y003688D01*
X002550Y003545D01*
X002609Y003688D01*
X002755Y003834D01*
X002947Y003913D01*
X003153Y003913D01*
X003345Y003834D01*
X003491Y003688D01*
X003550Y003545D01*
X003609Y003688D01*
X003755Y003834D01*
X003947Y003913D01*
X004153Y003913D01*
X004345Y003834D01*
X004491Y003688D01*
X004550Y003545D01*
X004609Y003688D01*
X004755Y003834D01*
X004947Y003913D01*
X005153Y003913D01*
X005345Y003834D01*
X005491Y003688D01*
X005550Y003545D01*
X005609Y003688D01*
X005755Y003834D01*
X005947Y003913D01*
X006153Y003913D01*
X006345Y003834D01*
X006491Y003688D01*
X006550Y003545D01*
X006609Y003688D01*
X006755Y003834D01*
X006947Y003913D01*
X007153Y003913D01*
X007345Y003834D01*
X007491Y003688D01*
X007550Y003545D01*
X007609Y003688D01*
X007755Y003834D01*
X007947Y003913D01*
X008153Y003913D01*
X008345Y003834D01*
X008350Y003829D01*
X008350Y005969D01*
X008323Y005949D01*
X008250Y005911D01*
X008172Y005886D01*
X008100Y005875D01*
X008100Y006343D01*
X008000Y006343D01*
X008000Y005875D01*
X007928Y005886D01*
X007850Y005911D01*
X007777Y005949D01*
X007711Y005997D01*
X007653Y006055D01*
X007605Y006121D01*
X007568Y006194D01*
X007551Y006245D01*
X007491Y006099D01*
X007345Y005952D01*
X007153Y005873D01*
X006947Y005873D01*
X006755Y005952D01*
X006609Y006099D01*
X006530Y006290D01*
X006530Y006497D01*
X006609Y006688D01*
X006755Y006834D01*
X006898Y006893D01*
X006755Y006952D01*
X006823Y006924D02*
X006495Y006924D01*
X006550Y006893D02*
X007550Y006893D01*
X007550Y007643D01*
X007522Y007614D02*
X007578Y007614D01*
X007634Y007712D02*
X007466Y007712D01*
X007368Y007811D02*
X007732Y007811D01*
X007937Y007909D02*
X007163Y007909D01*
X006937Y007909D02*
X006750Y007909D01*
X006750Y008008D02*
X013700Y008008D01*
X013606Y008106D02*
X006750Y008106D01*
X006750Y008205D02*
X013565Y008205D01*
X013550Y008143D02*
X013330Y008363D01*
X013530Y008402D02*
X006841Y008402D01*
X006750Y008303D02*
X013530Y008303D01*
X013550Y008143D02*
X013550Y007893D01*
X013550Y006893D01*
X014550Y006893D01*
X014415Y007023D02*
X014850Y007023D01*
X014850Y007121D02*
X014500Y007121D01*
X014541Y007220D02*
X014850Y007220D01*
X014850Y007318D02*
X014570Y007318D01*
X014570Y007417D02*
X014850Y007417D01*
X014850Y007515D02*
X014562Y007515D01*
X014522Y007614D02*
X014850Y007614D01*
X014850Y007712D02*
X014466Y007712D01*
X014368Y007811D02*
X014850Y007811D01*
X014850Y007909D02*
X014240Y007909D01*
X015250Y007909D02*
X015381Y007909D01*
X015282Y008008D02*
X015250Y008008D01*
X015250Y008106D02*
X015265Y008106D01*
X015265Y008205D02*
X015250Y008205D01*
X015250Y008303D02*
X015307Y008303D01*
X015250Y008402D02*
X015405Y008402D01*
X015250Y008500D02*
X017850Y008500D01*
X017850Y008402D02*
X015695Y008402D01*
X015250Y008599D02*
X017850Y008599D01*
X017850Y008697D02*
X015250Y008697D01*
X015250Y008796D02*
X017850Y008796D01*
X017850Y008894D02*
X017204Y008894D01*
X017385Y008993D02*
X017715Y008993D01*
X017617Y009091D02*
X017483Y009091D01*
X017529Y009190D02*
X017571Y009190D01*
X018050Y009393D02*
X018050Y008143D01*
X019130Y008143D01*
X019160Y008173D01*
X019680Y008205D02*
X019850Y008205D01*
X019850Y008303D02*
X019669Y008303D01*
X019628Y008402D02*
X019850Y008402D01*
X019850Y008500D02*
X019568Y008500D01*
X019470Y008599D02*
X019850Y008599D01*
X019850Y008697D02*
X018250Y008697D01*
X018250Y008599D02*
X018850Y008599D01*
X018752Y008500D02*
X018250Y008500D01*
X018250Y008402D02*
X018692Y008402D01*
X018050Y008393D02*
X018050Y009393D01*
X018529Y009190D02*
X018571Y009190D01*
X018617Y009091D02*
X018483Y009091D01*
X018385Y008993D02*
X018715Y008993D01*
X018896Y008894D02*
X018250Y008894D01*
X018250Y008796D02*
X019850Y008796D01*
X019850Y008894D02*
X019204Y008894D01*
X019385Y008993D02*
X019715Y008993D01*
X019617Y009091D02*
X019483Y009091D01*
X019529Y009190D02*
X019571Y009190D01*
X019050Y009393D02*
X018300Y010143D01*
X004800Y010143D01*
X003800Y010143D01*
X003550Y009893D01*
X003550Y008893D01*
X004050Y008393D01*
X004550Y008143D02*
X004300Y007893D01*
X002550Y007893D01*
X002050Y008393D01*
X004550Y008643D02*
X004550Y008143D01*
X004697Y008008D02*
X004700Y008008D01*
X004599Y007909D02*
X004860Y007909D01*
X005086Y007712D02*
X004500Y007712D01*
X004500Y007614D02*
X004988Y007614D01*
X004889Y007515D02*
X004500Y007515D01*
X004500Y007417D02*
X004850Y007417D01*
X005050Y007393D02*
X005300Y007643D01*
X005550Y007893D01*
X005550Y008643D01*
X005800Y008893D01*
X007550Y008893D01*
X008050Y009393D01*
X009137Y008697D02*
X013463Y008697D01*
X013572Y008599D02*
X009038Y008599D01*
X008940Y008500D02*
X013531Y008500D01*
X012896Y008894D02*
X012204Y008894D01*
X012385Y008993D02*
X012715Y008993D01*
X012617Y009091D02*
X012483Y009091D01*
X012529Y009190D02*
X012571Y009190D01*
X011896Y008894D02*
X011204Y008894D01*
X011385Y008993D02*
X011715Y008993D01*
X011617Y009091D02*
X011483Y009091D01*
X011529Y009190D02*
X011571Y009190D01*
X010896Y008894D02*
X010204Y008894D01*
X010385Y008993D02*
X010715Y008993D01*
X010617Y009091D02*
X010483Y009091D01*
X010529Y009190D02*
X010571Y009190D01*
X012550Y007893D02*
X012550Y007143D01*
X012800Y006893D01*
X013550Y006893D01*
X013415Y007023D02*
X013685Y007023D01*
X013755Y006952D02*
X013902Y006892D01*
X013850Y006875D01*
X013777Y006838D01*
X013711Y006790D01*
X013653Y006732D01*
X013605Y006666D01*
X013568Y006593D01*
X013551Y006542D01*
X013491Y006688D01*
X013345Y006834D01*
X013202Y006893D01*
X013345Y006952D01*
X013491Y007099D01*
X013550Y007242D01*
X013609Y007099D01*
X013755Y006952D01*
X013823Y006924D02*
X013277Y006924D01*
X013353Y006826D02*
X013761Y006826D01*
X013650Y006727D02*
X013451Y006727D01*
X013515Y006629D02*
X013586Y006629D01*
X014100Y006432D02*
X014858Y006432D01*
X014765Y006530D02*
X014552Y006530D01*
X014514Y006629D02*
X014765Y006629D01*
X014765Y006727D02*
X014450Y006727D01*
X014339Y006826D02*
X014829Y006826D01*
X014850Y006924D02*
X014277Y006924D01*
X015050Y006893D02*
X015050Y006643D01*
X015335Y006629D02*
X016015Y006629D01*
X016015Y006727D02*
X015335Y006727D01*
X015271Y006826D02*
X016079Y006826D01*
X016178Y006924D02*
X015250Y006924D01*
X015250Y007023D02*
X016832Y007023D01*
X016809Y006924D02*
X016422Y006924D01*
X016300Y006643D02*
X017215Y006643D01*
X016809Y006432D02*
X016492Y006432D01*
X016809Y006333D02*
X014567Y006333D01*
X014545Y006235D02*
X016861Y006235D01*
X016108Y006432D02*
X015242Y006432D01*
X015335Y006530D02*
X016015Y006530D01*
X015050Y006893D02*
X015050Y009393D01*
X015529Y009190D02*
X015570Y009190D01*
X015627Y009091D02*
X015483Y009091D01*
X015385Y008993D02*
X015717Y008993D01*
X015903Y008894D02*
X015250Y008894D01*
X016000Y008894D02*
X016100Y008894D01*
X016197Y008894D02*
X016896Y008894D01*
X016715Y008993D02*
X016383Y008993D01*
X016473Y009091D02*
X016617Y009091D01*
X016571Y009190D02*
X016530Y009190D01*
X016100Y009190D02*
X016000Y009190D01*
X016000Y009288D02*
X016100Y009288D01*
X016100Y009091D02*
X016000Y009091D01*
X016000Y008993D02*
X016100Y008993D01*
X016550Y009893D02*
X017050Y009393D01*
X016550Y009893D02*
X005800Y009893D01*
X005550Y009643D01*
X005550Y009143D01*
X005300Y008893D01*
X004800Y008893D01*
X004550Y008643D01*
X005240Y007909D02*
X005283Y007909D01*
X005185Y007811D02*
X004500Y007811D01*
X004500Y007318D02*
X004627Y007318D01*
X004605Y007220D02*
X004500Y007220D01*
X004500Y007121D02*
X004605Y007121D01*
X004605Y007023D02*
X004500Y007023D01*
X004500Y006924D02*
X004605Y006924D01*
X004605Y006826D02*
X004500Y006826D01*
X004500Y006727D02*
X004605Y006727D01*
X004607Y006629D02*
X004500Y006629D01*
X004500Y006530D02*
X004605Y006530D01*
X004605Y006432D02*
X004500Y006432D01*
X004500Y006333D02*
X004605Y006333D01*
X004605Y006235D02*
X004500Y006235D01*
X004500Y006136D02*
X004605Y006136D01*
X004605Y006038D02*
X004500Y006038D01*
X004500Y005939D02*
X004656Y005939D01*
X004733Y005841D02*
X004500Y005841D01*
X004500Y005742D02*
X004650Y005742D01*
X004650Y005644D02*
X004500Y005644D01*
X004500Y005545D02*
X004650Y005545D01*
X004650Y005447D02*
X004500Y005447D01*
X004500Y005348D02*
X004650Y005348D01*
X004650Y005250D02*
X004500Y005250D01*
X004500Y005151D02*
X004650Y005151D01*
X004650Y005053D02*
X004500Y005053D01*
X004500Y004954D02*
X004725Y004954D01*
X004500Y004856D02*
X005350Y004856D01*
X005265Y004757D02*
X004500Y004757D01*
X004500Y004659D02*
X005265Y004659D01*
X005265Y004560D02*
X004500Y004560D01*
X004500Y004462D02*
X005328Y004462D01*
X005427Y004363D02*
X004500Y004363D01*
X004500Y004265D02*
X008350Y004265D01*
X008350Y004363D02*
X005673Y004363D01*
X005772Y004462D02*
X008350Y004462D01*
X008350Y004560D02*
X005835Y004560D01*
X005835Y004659D02*
X008350Y004659D01*
X008350Y004757D02*
X005835Y004757D01*
X005750Y004856D02*
X008350Y004856D01*
X008350Y004954D02*
X006375Y004954D01*
X006450Y005053D02*
X008350Y005053D01*
X008350Y005151D02*
X006450Y005151D01*
X006450Y005250D02*
X008350Y005250D01*
X008350Y005348D02*
X006450Y005348D01*
X006450Y005447D02*
X008350Y005447D01*
X008350Y005545D02*
X006450Y005545D01*
X006450Y005644D02*
X008350Y005644D01*
X008350Y005742D02*
X006450Y005742D01*
X006367Y005841D02*
X008350Y005841D01*
X008350Y005939D02*
X008304Y005939D01*
X008100Y005939D02*
X008000Y005939D01*
X008000Y006038D02*
X008100Y006038D01*
X008100Y006136D02*
X008000Y006136D01*
X008000Y006235D02*
X008100Y006235D01*
X008100Y006333D02*
X008000Y006333D01*
X007555Y006235D02*
X007547Y006235D01*
X007506Y006136D02*
X007597Y006136D01*
X007670Y006038D02*
X007430Y006038D01*
X007313Y005939D02*
X007796Y005939D01*
X007551Y006542D02*
X007491Y006688D01*
X007345Y006834D01*
X007202Y006893D01*
X007345Y006952D01*
X007491Y007099D01*
X007550Y007242D01*
X007609Y007099D01*
X007755Y006952D01*
X007902Y006892D01*
X007850Y006875D01*
X007777Y006838D01*
X007711Y006790D01*
X007653Y006732D01*
X007605Y006666D01*
X007568Y006593D01*
X007551Y006542D01*
X007586Y006629D02*
X007515Y006629D01*
X007451Y006727D02*
X007650Y006727D01*
X007761Y006826D02*
X007353Y006826D01*
X007277Y006924D02*
X007823Y006924D01*
X007685Y007023D02*
X007415Y007023D01*
X007500Y007121D02*
X007600Y007121D01*
X007559Y007220D02*
X007541Y007220D01*
X006747Y006826D02*
X006495Y006826D01*
X006495Y006727D02*
X006649Y006727D01*
X006585Y006629D02*
X006493Y006629D01*
X006495Y006530D02*
X006544Y006530D01*
X006530Y006432D02*
X006495Y006432D01*
X006495Y006333D02*
X006530Y006333D01*
X006553Y006235D02*
X006495Y006235D01*
X006495Y006136D02*
X006594Y006136D01*
X006670Y006038D02*
X006495Y006038D01*
X006444Y005939D02*
X006787Y005939D01*
X006050Y006309D02*
X006050Y005570D01*
X006050Y005216D02*
X005550Y005216D01*
X005550Y004643D01*
X005550Y005216D02*
X005050Y005216D01*
X005050Y005570D02*
X005050Y006309D01*
X005050Y006978D02*
X005050Y007393D01*
X006356Y007417D02*
X006530Y007417D01*
X006538Y007515D02*
X006455Y007515D01*
X006553Y007614D02*
X006578Y007614D01*
X006530Y007318D02*
X006473Y007318D01*
X006495Y007220D02*
X006559Y007220D01*
X006600Y007121D02*
X006495Y007121D01*
X009050Y006393D02*
X009050Y004143D01*
X009750Y004166D02*
X009765Y004166D01*
X009765Y004261D02*
X009765Y004025D01*
X009897Y003893D01*
X009755Y003834D01*
X009750Y003829D01*
X009750Y005958D01*
X009755Y005952D01*
X009850Y005913D01*
X009850Y005060D01*
X010100Y004810D01*
X010217Y004693D01*
X011847Y004693D01*
X011932Y004608D01*
X012168Y004608D01*
X012335Y004775D01*
X012335Y005011D01*
X012203Y005143D01*
X012335Y005275D01*
X012335Y005511D01*
X012168Y005678D01*
X011932Y005678D01*
X011847Y005593D01*
X011383Y005593D01*
X011250Y005726D01*
X011250Y005913D01*
X011345Y005952D01*
X011491Y006099D01*
X011550Y006242D01*
X011609Y006099D01*
X011755Y005952D01*
X011947Y005873D01*
X012153Y005873D01*
X012248Y005912D01*
X012350Y005810D01*
X012350Y004060D01*
X012600Y003810D01*
X012666Y003745D01*
X012609Y003688D01*
X012550Y003545D01*
X012491Y003688D01*
X012345Y003834D01*
X012203Y003893D01*
X012335Y004025D01*
X012335Y004261D01*
X012168Y004428D01*
X011932Y004428D01*
X011847Y004343D01*
X010253Y004343D01*
X010168Y004428D01*
X009932Y004428D01*
X009765Y004261D01*
X009768Y004265D02*
X009750Y004265D01*
X009750Y004363D02*
X009867Y004363D01*
X009750Y004462D02*
X012350Y004462D01*
X012350Y004560D02*
X009750Y004560D01*
X009750Y004659D02*
X011881Y004659D01*
X012219Y004659D02*
X012350Y004659D01*
X012350Y004757D02*
X012317Y004757D01*
X012335Y004856D02*
X012350Y004856D01*
X012350Y004954D02*
X012335Y004954D01*
X012350Y005053D02*
X012294Y005053D01*
X012350Y005151D02*
X012211Y005151D01*
X012310Y005250D02*
X012350Y005250D01*
X012350Y005348D02*
X012335Y005348D01*
X012335Y005447D02*
X012350Y005447D01*
X012350Y005545D02*
X012301Y005545D01*
X012350Y005644D02*
X012203Y005644D01*
X012350Y005742D02*
X011250Y005742D01*
X011250Y005841D02*
X012320Y005841D01*
X012550Y005893D02*
X012550Y004143D01*
X012800Y003893D01*
X012638Y003772D02*
X012406Y003772D01*
X012497Y003674D02*
X012603Y003674D01*
X012563Y003575D02*
X012537Y003575D01*
X012540Y003871D02*
X012256Y003871D01*
X012279Y003969D02*
X012441Y003969D01*
X012350Y004068D02*
X012335Y004068D01*
X012335Y004166D02*
X012350Y004166D01*
X012350Y004265D02*
X012332Y004265D01*
X012350Y004363D02*
X012233Y004363D01*
X012050Y004143D02*
X010050Y004143D01*
X009821Y003969D02*
X009750Y003969D01*
X009750Y003871D02*
X009844Y003871D01*
X009765Y004068D02*
X009750Y004068D01*
X010233Y004363D02*
X011867Y004363D01*
X012050Y004893D02*
X010300Y004893D01*
X010050Y005143D01*
X010050Y006393D01*
X009787Y005939D02*
X009750Y005939D01*
X009750Y005841D02*
X009850Y005841D01*
X009850Y005742D02*
X009750Y005742D01*
X009750Y005644D02*
X009850Y005644D01*
X009850Y005545D02*
X009750Y005545D01*
X009750Y005447D02*
X009850Y005447D01*
X009850Y005348D02*
X009750Y005348D01*
X009750Y005250D02*
X009850Y005250D01*
X009850Y005151D02*
X009750Y005151D01*
X009750Y005053D02*
X009858Y005053D01*
X009956Y004954D02*
X009750Y004954D01*
X009750Y004856D02*
X010055Y004856D01*
X010153Y004757D02*
X009750Y004757D01*
X008350Y004166D02*
X004500Y004166D01*
X004500Y004068D02*
X008350Y004068D01*
X008350Y003969D02*
X004409Y003969D01*
X004550Y003893D02*
X004550Y002893D01*
X004376Y002984D02*
X004724Y002984D01*
X004755Y002952D02*
X004609Y003099D01*
X004550Y003242D01*
X004491Y003099D01*
X004345Y002952D01*
X004153Y002873D01*
X003947Y002873D01*
X003755Y002952D01*
X003609Y003099D01*
X003550Y003242D01*
X003491Y003099D01*
X003345Y002952D01*
X003153Y002873D01*
X002947Y002873D01*
X002755Y002952D01*
X002609Y003099D01*
X002550Y003242D01*
X002491Y003099D01*
X002345Y002952D01*
X002153Y002873D01*
X001947Y002873D01*
X001755Y002952D01*
X001609Y003099D01*
X001549Y003245D01*
X001532Y003194D01*
X001495Y003121D01*
X001447Y003055D01*
X001389Y002997D01*
X001323Y002949D01*
X001250Y002911D01*
X001172Y002886D01*
X001100Y002875D01*
X001100Y003343D01*
X001000Y003343D01*
X001000Y002875D01*
X000928Y002886D01*
X000850Y002911D01*
X000777Y002949D01*
X000711Y002997D01*
X000653Y003055D01*
X000605Y003121D01*
X000568Y003194D01*
X000550Y003249D01*
X000550Y002643D01*
X008517Y002643D01*
X008467Y002693D01*
X008350Y002810D01*
X008350Y002958D01*
X008345Y002952D01*
X008153Y002873D01*
X007947Y002873D01*
X007755Y002952D01*
X007609Y003099D01*
X007550Y003242D01*
X007491Y003099D01*
X007345Y002952D01*
X007153Y002873D01*
X006947Y002873D01*
X006755Y002952D01*
X006609Y003099D01*
X006550Y003242D01*
X006491Y003099D01*
X006345Y002952D01*
X006153Y002873D01*
X005947Y002873D01*
X005755Y002952D01*
X005609Y003099D01*
X005550Y003242D01*
X005491Y003099D01*
X005345Y002952D01*
X005153Y002873D01*
X004947Y002873D01*
X004755Y002952D01*
X004916Y002886D02*
X004184Y002886D01*
X003916Y002886D02*
X003184Y002886D01*
X003376Y002984D02*
X003724Y002984D01*
X003625Y003083D02*
X003475Y003083D01*
X003525Y003181D02*
X003575Y003181D01*
X003563Y003575D02*
X003537Y003575D01*
X003497Y003674D02*
X003603Y003674D01*
X003694Y003772D02*
X003406Y003772D01*
X003256Y003871D02*
X003844Y003871D01*
X004256Y003871D02*
X004844Y003871D01*
X004694Y003772D02*
X004406Y003772D01*
X004497Y003674D02*
X004603Y003674D01*
X004563Y003575D02*
X004537Y003575D01*
X005256Y003871D02*
X005844Y003871D01*
X005694Y003772D02*
X005406Y003772D01*
X005497Y003674D02*
X005603Y003674D01*
X005563Y003575D02*
X005537Y003575D01*
X005550Y003893D02*
X005550Y002893D01*
X005550Y003893D01*
X006256Y003871D02*
X006844Y003871D01*
X006694Y003772D02*
X006406Y003772D01*
X006497Y003674D02*
X006603Y003674D01*
X006563Y003575D02*
X006537Y003575D01*
X007256Y003871D02*
X007844Y003871D01*
X007694Y003772D02*
X007406Y003772D01*
X007497Y003674D02*
X007603Y003674D01*
X007563Y003575D02*
X007537Y003575D01*
X007550Y003893D02*
X007550Y002893D01*
X007376Y002984D02*
X007724Y002984D01*
X007625Y003083D02*
X007475Y003083D01*
X007525Y003181D02*
X007575Y003181D01*
X007916Y002886D02*
X007184Y002886D01*
X006916Y002886D02*
X006184Y002886D01*
X006376Y002984D02*
X006724Y002984D01*
X006625Y003083D02*
X006475Y003083D01*
X006525Y003181D02*
X006575Y003181D01*
X006550Y002893D02*
X006550Y004143D01*
X008256Y003871D02*
X008350Y003871D01*
X009550Y003143D02*
X009550Y006893D01*
X010050Y007393D01*
X009578Y007614D02*
X009522Y007614D01*
X009466Y007712D02*
X009634Y007712D01*
X009732Y007811D02*
X009368Y007811D01*
X010368Y007811D02*
X010732Y007811D01*
X010634Y007712D02*
X010466Y007712D01*
X010522Y007614D02*
X010578Y007614D01*
X011368Y007811D02*
X011732Y007811D01*
X011634Y007712D02*
X011466Y007712D01*
X011522Y007614D02*
X011578Y007614D01*
X012368Y007811D02*
X012732Y007811D01*
X012634Y007712D02*
X012466Y007712D01*
X012522Y007614D02*
X012578Y007614D01*
X012550Y007242D02*
X012609Y007099D01*
X012755Y006952D01*
X012898Y006893D01*
X012755Y006834D01*
X012609Y006688D01*
X012550Y006545D01*
X012491Y006688D01*
X012345Y006834D01*
X012202Y006893D01*
X012345Y006952D01*
X012491Y007099D01*
X012550Y007242D01*
X012541Y007220D02*
X012559Y007220D01*
X012600Y007121D02*
X012500Y007121D01*
X012415Y007023D02*
X012685Y007023D01*
X012823Y006924D02*
X012277Y006924D01*
X012353Y006826D02*
X012747Y006826D01*
X012649Y006727D02*
X012451Y006727D01*
X012515Y006629D02*
X012585Y006629D01*
X013050Y006393D02*
X013550Y005893D01*
X014300Y005893D01*
X015050Y005893D01*
X017300Y005893D01*
X017850Y006136D02*
X014503Y006136D01*
X013418Y005742D02*
X012750Y005742D01*
X012750Y005644D02*
X012897Y005644D01*
X012799Y005545D02*
X012750Y005545D01*
X012750Y005447D02*
X012765Y005447D01*
X013203Y005644D02*
X013591Y005644D01*
X013550Y005545D02*
X013301Y005545D01*
X013335Y005447D02*
X013530Y005447D01*
X013320Y005841D02*
X012750Y005841D01*
X012750Y005939D02*
X012787Y005939D01*
X012550Y005893D02*
X012050Y006393D01*
X011553Y006235D02*
X011547Y006235D01*
X011506Y006136D02*
X011594Y006136D01*
X011670Y006038D02*
X011430Y006038D01*
X011313Y005939D02*
X011787Y005939D01*
X011897Y005644D02*
X011332Y005644D01*
X011300Y005393D02*
X012050Y005393D01*
X011300Y005393D02*
X011050Y005643D01*
X011050Y006393D01*
X013500Y007121D02*
X013600Y007121D01*
X013559Y007220D02*
X013541Y007220D01*
X015250Y007220D02*
X017850Y007220D01*
X017850Y007318D02*
X015250Y007318D01*
X015250Y007417D02*
X017850Y007417D01*
X017850Y007515D02*
X015250Y007515D01*
X015250Y007614D02*
X017850Y007614D01*
X017850Y007712D02*
X015250Y007712D01*
X015250Y007811D02*
X017850Y007811D01*
X017850Y007909D02*
X015719Y007909D01*
X015550Y008143D02*
X018050Y008143D01*
X018050Y006809D01*
X017885Y006643D01*
X017850Y007121D02*
X015250Y007121D01*
X018250Y007121D02*
X019850Y007121D01*
X019850Y007220D02*
X018250Y007220D01*
X018250Y007318D02*
X019850Y007318D01*
X019850Y007417D02*
X018250Y007417D01*
X018250Y007515D02*
X019850Y007515D01*
X019850Y007614D02*
X018250Y007614D01*
X018250Y007712D02*
X018914Y007712D01*
X018787Y007811D02*
X018250Y007811D01*
X018250Y007909D02*
X018707Y007909D01*
X019406Y007712D02*
X019850Y007712D01*
X019850Y007811D02*
X019533Y007811D01*
X019613Y007909D02*
X019850Y007909D01*
X019850Y008008D02*
X019654Y008008D01*
X019680Y008106D02*
X019850Y008106D01*
X020250Y008106D02*
X020424Y008106D01*
X020447Y008008D02*
X020250Y008008D01*
X020250Y007909D02*
X020491Y007909D01*
X020567Y007811D02*
X020250Y007811D01*
X020250Y007712D02*
X020699Y007712D01*
X020890Y007712D02*
X020990Y007712D01*
X020990Y007811D02*
X020890Y007811D01*
X020890Y007909D02*
X020990Y007909D01*
X020990Y008008D02*
X020890Y008008D01*
X020890Y008106D02*
X020990Y008106D01*
X020896Y008894D02*
X020250Y008894D01*
X020385Y008993D02*
X020715Y008993D01*
X020617Y009091D02*
X020483Y009091D01*
X020529Y009190D02*
X020571Y009190D01*
X021204Y008894D02*
X021896Y008894D01*
X021715Y008993D02*
X021385Y008993D01*
X021483Y009091D02*
X021617Y009091D01*
X021571Y009190D02*
X021529Y009190D01*
X022204Y008894D02*
X022896Y008894D01*
X022715Y008993D02*
X022385Y008993D01*
X022483Y009091D02*
X022617Y009091D01*
X022571Y009190D02*
X022529Y009190D01*
X023204Y008894D02*
X023896Y008894D01*
X023715Y008993D02*
X023385Y008993D01*
X023483Y009091D02*
X023617Y009091D01*
X023571Y009190D02*
X023529Y009190D01*
X026300Y009978D02*
X018748Y009978D01*
X018650Y010076D02*
X026300Y010076D01*
X026300Y010175D02*
X018551Y010175D01*
X018847Y009879D02*
X018865Y009879D01*
X019235Y009879D02*
X019865Y009879D01*
X019702Y009781D02*
X019398Y009781D01*
X019493Y009682D02*
X019607Y009682D01*
X019566Y009584D02*
X019534Y009584D01*
X019776Y007023D02*
X018268Y007023D01*
X017750Y004954D02*
X019850Y004954D01*
X019850Y004856D02*
X017750Y004856D01*
X017750Y004757D02*
X019850Y004757D01*
X019850Y004659D02*
X019188Y004659D01*
X019286Y004560D02*
X019850Y004560D01*
X019850Y004462D02*
X019335Y004462D01*
X018912Y004659D02*
X017750Y004659D01*
X017786Y004560D02*
X018814Y004560D01*
X018765Y004462D02*
X017835Y004462D01*
X017844Y003871D02*
X017256Y003871D01*
X017406Y003772D02*
X017694Y003772D01*
X017603Y003674D02*
X017497Y003674D01*
X017537Y003575D02*
X017563Y003575D01*
X020256Y003871D02*
X020844Y003871D01*
X020694Y003772D02*
X020406Y003772D01*
X020497Y003674D02*
X020603Y003674D01*
X020563Y003575D02*
X020537Y003575D01*
X021256Y003871D02*
X021844Y003871D01*
X021694Y003772D02*
X021406Y003772D01*
X021497Y003674D02*
X021603Y003674D01*
X021563Y003575D02*
X021537Y003575D01*
X022256Y003871D02*
X022844Y003871D01*
X022694Y003772D02*
X022406Y003772D01*
X022497Y003674D02*
X022603Y003674D01*
X022563Y003575D02*
X022537Y003575D01*
X023050Y003393D02*
X022550Y002893D01*
X009800Y002893D01*
X009550Y003143D01*
X008472Y002689D02*
X000550Y002689D01*
X000550Y002787D02*
X008373Y002787D01*
X008350Y002886D02*
X008184Y002886D01*
X005916Y002886D02*
X005184Y002886D01*
X005376Y002984D02*
X005724Y002984D01*
X005625Y003083D02*
X005475Y003083D01*
X005525Y003181D02*
X005575Y003181D01*
X004625Y003083D02*
X004475Y003083D01*
X004525Y003181D02*
X004575Y003181D01*
X002916Y002886D02*
X002184Y002886D01*
X002376Y002984D02*
X002724Y002984D01*
X002625Y003083D02*
X002475Y003083D01*
X002525Y003181D02*
X002575Y003181D01*
X001916Y002886D02*
X001170Y002886D01*
X001100Y002886D02*
X001000Y002886D01*
X000930Y002886D02*
X000550Y002886D01*
X000550Y002984D02*
X000728Y002984D01*
X000633Y003083D02*
X000550Y003083D01*
X000550Y003181D02*
X000574Y003181D01*
X001000Y003181D02*
X001100Y003181D01*
X001100Y003083D02*
X001000Y003083D01*
X001000Y002984D02*
X001100Y002984D01*
X001372Y002984D02*
X001724Y002984D01*
X001625Y003083D02*
X001467Y003083D01*
X001526Y003181D02*
X001575Y003181D01*
X001100Y003280D02*
X001000Y003280D01*
X001000Y003477D02*
X001100Y003477D01*
X001100Y003575D02*
X001000Y003575D01*
X001000Y003674D02*
X001100Y003674D01*
X001100Y003772D02*
X001000Y003772D01*
X001000Y003871D02*
X001100Y003871D01*
X001258Y003871D02*
X001844Y003871D01*
X001694Y003772D02*
X001406Y003772D01*
X001489Y003674D02*
X001603Y003674D01*
X001563Y003575D02*
X001538Y003575D01*
X002256Y003871D02*
X002844Y003871D01*
X002694Y003772D02*
X002406Y003772D01*
X002497Y003674D02*
X002603Y003674D01*
X002563Y003575D02*
X002537Y003575D01*
X000842Y003871D02*
X000550Y003871D01*
X000550Y003772D02*
X000694Y003772D01*
X000611Y003674D02*
X000550Y003674D01*
X000550Y003575D02*
X000562Y003575D01*
X023256Y003871D02*
X023844Y003871D01*
X023694Y003772D02*
X023406Y003772D01*
X023497Y003674D02*
X023603Y003674D01*
X023563Y003575D02*
X023537Y003575D01*
X024050Y003393D02*
X023300Y002643D01*
D16*
X020550Y004393D03*
X019550Y004393D03*
X019050Y004393D03*
X017550Y004393D03*
X016550Y004393D03*
X016050Y004393D03*
X015550Y003893D03*
X015050Y004893D03*
X016300Y005393D03*
X017050Y005393D03*
X018550Y006393D03*
X020050Y006393D03*
X020050Y006893D03*
X022800Y005643D03*
X025500Y004853D03*
X025510Y007993D03*
X023050Y008143D03*
X017540Y008523D03*
X016080Y008543D03*
X015550Y008143D03*
X013330Y008363D03*
X010300Y008393D03*
X007050Y008143D03*
X004640Y007513D03*
X008020Y004903D03*
X009050Y004143D03*
X010050Y004143D03*
X009950Y004593D03*
X011050Y004543D03*
X011850Y004543D03*
X012050Y004893D03*
X012050Y005393D03*
X011830Y005703D03*
X013050Y005393D03*
X013320Y005663D03*
X015050Y006643D03*
X016300Y006643D03*
X013040Y004393D03*
X012050Y004143D03*
X006550Y004143D03*
X005550Y004643D03*
X006550Y002893D03*
D17*
X008050Y006393D02*
X007550Y006893D01*
X013550Y006893D02*
X014050Y006393D01*
M02*
